<svg xmlns="http://www.w3.org/2000/svg" viewBox="0 0 512.853 512.853" xml:space="preserve" width="50px" height="50px" class="svg-editor">
<g transform="matrix(0.9994 0 0 0.9994 0.153817 0.153817)"><g transform="translate(1 1)">
	<g>
		<g>
			<path d="M330.947,179.907c0-2.56-0.853-5.12-3.413-6.827L216.6,96.28c-2.56-1.707-5.973-2.56-8.533-0.853     c-2.56,1.707-4.267,4.267-4.267,7.68v153.6c0,3.413,1.707,5.973,4.267,7.68c1.707,0.853,2.56,0.853,4.267,0.853     c1.707,0,3.413-0.853,4.267-1.707l110.933-76.8C329.24,185.027,330.947,182.467,330.947,179.907z M220.867,240.493V119.32     l87.04,60.587L220.867,240.493z" data-original="#000000" class="active-path"/>
			<path d="M195.267,359.107H46.787c-14.507,0-30.72-10.24-30.72-25.6V47.64c0-15.36,15.36-29.867,30.72-29.867h417.28     c15.36,0,29.867,14.507,29.867,29.867v243.2c0,5.12,3.413,8.533,8.533,8.533S511,295.96,511,290.84V47.64     c0-24.747-22.187-46.933-46.933-46.933H46.787C22.04,0.707-1,22.893-1,47.64v285.867c0,26.453,24.747,42.667,47.787,42.667     h148.48c5.12,0,8.533-3.413,8.533-8.533S200.387,359.107,195.267,359.107z" data-original="#000000" class="active-path"/>
			<path d="M509.293,337.773c-7.68-7.68-15.36-16.213-23.04-24.747c-41.813-46.933-93.013-104.96-162.987-87.893     c-58.88,14.507-95.573,75.093-81.92,133.973c7.68,32.427,29.867,53.76,52.053,74.24c2.56,2.56,5.973,5.12,8.533,7.68l69.12,66.56     c1.707,1.707,4.267,2.56,5.973,2.56s4.267-0.853,5.973-2.56c3.413-3.413,3.413-8.533,0-11.947l-68.267-67.413     c-2.56-2.56-5.973-5.12-8.533-7.68C284.867,400.92,265.24,383,258.413,354.84c-11.947-49.493,19.627-101.547,69.12-113.493     c60.587-13.653,106.667,37.547,146.773,82.773c7.68,9.387,15.36,17.92,23.04,25.6c3.413,3.413,8.533,3.413,11.947,0     C512.707,346.307,512.707,341.187,509.293,337.773z" data-original="#000000" class="active-path"/>
			<path d="M402.627,278.893c-29.867-29.867-78.507-29.867-108.373,0c-29.867,29.867-29.867,78.507,0,108.373l35.84,35.84     c5.973,5.12,12.8,8.533,20.48,8.533c0.853,0,1.707,0,1.707,0c50.347-3.413,91.307-44.373,94.72-94.72     c0-8.533-2.56-16.213-8.533-22.187L402.627,278.893z M306.2,376.173c-23.04-23.893-23.04-61.44,0.853-85.333     c23.04-23.04,61.44-23.04,84.48,0l33.574,35.211c-3.813,1.859-8.026,3.641-12.24,5.749c-13.653,6.827-29.013,13.653-40.96,25.6     c-11.947,12.8-20.48,29.013-27.307,43.52c-1.214,3.237-2.623,6.468-4.13,9.523L306.2,376.173z M357.059,414.864     c0.822-2.072,1.524-4.167,2.048-6.264c6.827-14.507,14.507-29.013,24.747-39.253c10.24-10.24,23.04-16.213,35.84-22.187     c3.207-1.203,6.413-2.601,9.62-4.18C424.253,380.125,394.259,409.996,357.059,414.864z" data-original="#000000" class="active-path"/>
		</g>
	</g>
</g></g> </svg>
