<svg xmlns="http://www.w3.org/2000/svg" height="50px" viewBox="-21 -96 682.66669 682" width="50px"><path d="m618.667969-4.667969h-42.667969c-11.78125 0-21.332031 9.550781-21.332031 21.335938v10.667969h-469.335938v-10.667969c0-11.785157-9.550781-21.335938-21.332031-21.335938h-42.667969c-11.78125 0-21.332031 9.550781-21.332031 21.335938v42.664062c0 11.78125 9.550781 21.332031 21.332031 21.332031h10.667969v320h-10.667969c-11.78125 0-21.332031 9.550782-21.332031 21.335938v42.664062c0 11.78125 9.550781 21.339844 21.332031 21.339844h42.667969c11.78125 0 21.332031-9.558594 21.332031-21.339844v-10.664062h469.335938v10.664062c0 11.78125 9.550781 21.339844 21.332031 21.339844h42.667969c11.78125 0 21.332031-9.558594 21.332031-21.339844v-42.664062c0-11.785156-9.550781-21.335938-21.332031-21.335938h-10.667969v-320h10.667969c11.78125 0 21.332031-9.550781 21.332031-21.332031v-42.664062c0-11.785157-9.550781-21.335938-21.332031-21.335938zm-597.335938 21.335938h42.667969v42.664062h-42.667969zm0 447.996093v-42.664062h42.667969v42.664062zm597.335938 0h-42.667969v-42.664062h42.667969zm-32.003907-64h-10.664062c-11.78125 0-21.332031 9.550782-21.332031 21.335938v10.667969h-469.335938v-10.667969c0-11.785156-9.550781-21.335938-21.332031-21.335938h-10.664062v-320h10.664062c11.78125 0 21.332031-9.550781 21.332031-21.332031v-10.664062h469.335938v10.664062c0 11.78125 9.550781 21.332031 21.332031 21.332031h10.664062zm-10.664062-341.332031v-42.664062h42.667969v42.664062zm0 0" /><path d="m544 358h-448c-5.890625 0-10.667969 4.773438-10.667969 10.667969 0 5.890625 4.777344 10.664062 10.667969 10.664062h448c5.890625 0 10.667969-4.773437 10.667969-10.664062 0-5.894531-4.777344-10.667969-10.667969-10.667969zm0 0" /><path d="m544 315.332031h-448c-5.890625 0-10.667969 4.777344-10.667969 10.671875 0 5.886719 4.777344 10.664063 10.667969 10.664063h448c5.890625 0 10.667969-4.777344 10.667969-10.664063 0-5.894531-4.777344-10.671875-10.667969-10.671875zm0 0" /><path d="m544 272.667969h-234.667969c-5.890625 0-10.664062 4.773437-10.664062 10.664062 0 5.894531 4.773437 10.667969 10.664062 10.667969h234.667969c5.890625 0 10.667969-4.773438 10.667969-10.667969 0-5.890625-4.777344-10.664062-10.667969-10.664062zm0 0" /><path d="m544 230h-234.667969c-5.890625 0-10.664062 4.777344-10.664062 10.664062 0 5.894532 4.773437 10.671876 10.664062 10.671876h234.667969c5.890625 0 10.667969-4.777344 10.667969-10.671876 0-5.886718-4.777344-10.664062-10.667969-10.664062zm0 0" /><path d="m544 187.335938h-234.667969c-5.890625 0-10.664062 4.773437-10.664062 10.664062 0 5.894531 4.773437 10.667969 10.664062 10.667969h234.667969c5.890625 0 10.667969-4.773438 10.667969-10.667969 0-5.890625-4.777344-10.664062-10.667969-10.664062zm0 0" /><path d="m544 144.664062h-234.667969c-5.890625 0-10.664062 4.78125-10.664062 10.667969 0 5.890625 4.773437 10.671875 10.664062 10.671875h234.667969c5.890625 0 10.667969-4.78125 10.667969-10.671875 0-5.886719-4.777344-10.667969-10.667969-10.667969zm0 0" /><path d="m544 102h-234.667969c-5.890625 0-10.664062 4.773438-10.664062 10.667969 0 5.886719 4.773437 10.664062 10.664062 10.664062h234.667969c5.890625 0 10.667969-4.777343 10.667969-10.664062 0-5.894531-4.777344-10.667969-10.667969-10.667969zm0 0" /><path d="m91.453125 292.984375c5.320313 2.476563 11.636719.195313 14.148437-5.105469l32.320313-68.683594c.242187 0 .445313.136719.691406.136719h85.332031c.25 0 .449219-.125.695313-.136719l32.316406 68.683594c1.628907 3.445313 4.964844 5.769532 8.765625 6.085938 3.800782.320312 7.476563-1.414063 9.652344-4.542969 2.171875-3.132813 2.515625-7.183594.890625-10.632813l-85.332031-181.332031c-1.757813-3.738281-5.519532-6.128906-9.652344-6.128906s-7.898438 2.390625-9.65625 6.128906l-85.332031 181.332031c-1.199219 2.566407-1.332031 5.503907-.363281 8.171876.964843 2.664062 2.957031 4.832031 5.523437 6.023437zm89.878906-165.925781 33.390625 70.941406h-66.777344zm0 0" /></svg>
