<svg xmlns="http://www.w3.org/2000/svg" xmlns:xlink="http://www.w3.org/1999/xlink" width="123" height="40" viewBox="0 0 123 40"><style><![CDATA[.B{fill:rgb(0%,18.823529%,52.941176%)}.C{fill:rgb(0%,61.176471%,87.058824%)}]]></style><use xlink:href="#B" class="B"/><path d="M91.918 18.93c-.332 2.184-1.996 2.184-3.61 2.184h-.914l.64-4.074a.51.51 0 0 1 .5-.43h.422c1.098 0 2.133 0 2.668.625.316.375.414.93.293 1.695m-.7-5.695H85.14c-.414 0-.77.3-.836.715l-2.453 15.598a.51.51 0 0 0 .113.406c.098.113.238.176.387.18h3.117a.59.59 0 0 0 .582-.5l.7-4.426a.84.84 0 0 1 .832-.711h1.922c4.004 0 6.313-1.937 6.918-5.78.27-1.684.008-3.004-.777-3.926-.863-1.02-2.395-1.555-4.426-1.555" class="C"/><path d="M48.582 18.93c-.332 2.184-1.996 2.184-3.61 2.184h-.914l.64-4.074c.043-.246.254-.43.5-.43h.422c1.098 0 2.133 0 2.668.625.32.375.414.93.293 1.695m-.7-5.695H41.81c-.418 0-.77.3-.836.715l-2.457 15.598a.5.5 0 0 0 .117.406c.094.113.234.18.383.18h2.902c.414 0 .77-.305.832-.715l.664-4.207c.066-.414.418-.715.836-.715h1.922c4 0 6.313-1.937 6.914-5.78.273-1.684.012-3.004-.773-3.926-.863-1.02-2.398-1.555-4.43-1.555M61.988 24.53c-.28 1.664-1.602 2.78-3.285 2.78-.844 0-1.52-.273-1.953-.785s-.6-1.238-.457-2.047c.262-1.648 1.605-2.805 3.262-2.805.828 0 1.496.277 1.94.797s.62 1.254.492 2.06m4.055-5.672h-2.9a.51.51 0 0 0-.5.43l-.13.813-.203-.293c-.63-.914-2.035-1.223-3.437-1.223-3.21 0-5.957 2.44-6.492 5.86-.277 1.707.117 3.34 1.082 4.477.887 1.047 2.156 1.48 3.664 1.48 2.594 0 4.027-1.664 4.027-1.664l-.13.81a.5.5 0 0 0 .117.406c.094.113.234.18.383.18h2.62c.414 0 .77-.305.832-.715l1.574-9.973a.5.5 0 0 0-.117-.406c-.094-.113-.234-.18-.383-.18" class="B"/><path d="M105.324 24.53c-.285 1.664-1.602 2.78-3.285 2.78-.844 0-1.52-.273-1.953-.785s-.594-1.238-.457-2.047c.262-1.648 1.602-2.805 3.262-2.805.824 0 1.496.277 1.938.797s.62 1.254.496 2.06m4.055-5.672h-2.9a.51.51 0 0 0-.504.43l-.125.813-.203-.293c-.63-.914-2.035-1.223-3.437-1.223-3.215 0-5.957 2.44-6.492 5.86-.28 1.707.117 3.34 1.082 4.477.887 1.047 2.156 1.48 3.664 1.48 2.594 0 4.027-1.664 4.027-1.664l-.13.81a.51.51 0 0 0 .5.586h2.617a.85.85 0 0 0 .836-.715l1.574-9.973a.5.5 0 0 0-.117-.406.51.51 0 0 0-.387-.18" class="C"/><path d="M81.54 18.86h-2.926a.85.85 0 0 0-.699.371l-4.03 5.95-1.71-5.715a.85.85 0 0 0-.809-.605h-2.875c-.164 0-.316.082-.414.215s-.117.3-.066.457l3.22 9.465-3.027 4.277c-.11.156-.12.36-.035.527s.262.273.45.273h2.922a.85.85 0 0 0 .695-.363l9.723-14.055c.11-.152.12-.355.03-.523a.5.5 0 0 0-.445-.273" class="B"/><path d="M112.805 13.664l-2.492 15.883a.51.51 0 0 0 .5.586h2.508c.414 0 .77-.305.832-.715l2.46-15.598c.023-.148-.02-.297-.117-.4s-.234-.176-.383-.176h-2.81c-.246 0-.46.18-.5.426" class="C"/><g class="B"><use xlink:href="#B"/><path d="M13.988 12.953c.086-.535.547-.93 1.1-.93h6.898c.816 0 1.578.05 2.277.164.38.06.758.145 1.125.25.422.12.828.28 1.22.488.344-2.207-.004-3.707-1.195-5.07-1.312-1.492-3.68-2.137-6.715-2.137h-8.8c-.62 0-1.148.453-1.242 1.066L4.98 30.055a.76.76 0 0 0 .168.609.76.76 0 0 0 .574.266h5.438l1.363-8.668zm0 0"/></g><path d="M26.598 12.922l-.1.516c-1.16 5.97-5.133 8.03-10.207 8.03H13.72c-.617 0-1.145.453-1.238 1.066l-1.7 10.773a.67.67 0 0 0 .152.531.66.66 0 0 0 .504.234h4.578c.543 0 1.004-.395 1.1-.93l.043-.234.863-5.48.055-.3c.086-.535.547-.93 1.1-.93h.684c4.438 0 7.914-1.805 8.926-7.027.426-2.18.207-4-.914-5.28a4.46 4.46 0 0 0-1.254-.969" class="C"/><path d="M25.383 12.438l-.547-.14-.582-.11a14.3 14.3 0 0 0-2.277-.168h-6.898c-.543 0-1.004.398-1.1.934l-1.508 9.582c.094-.613.62-1.066 1.238-1.066H16.3c5.074 0 9.047-2.062 10.207-8.03l.1-.516a6.44 6.44 0 0 0-.957-.402l-.258-.082" fill="rgb(0.392157%,12.941176%,41.176471%)"/><defs ><path id="B" d="M25.402 7.855C24.1 6.36 21.723 5.72 18.688 5.72h-8.8c-.617 0-1.148.453-1.246 1.066l-3.66 23.27a.75.75 0 0 0 .172.609c.145.168.352.266.574.266h5.434l1.32-8.395a1.26 1.26 0 0 1 1.242-1.066h2.582c5.07 0 9.043-2.062 10.203-8.027.035-.18.063-.352.1-.516.344-2.207-.004-3.707-1.195-5.066"/></defs></svg>