<?xml version="1.0" encoding="UTF-8"?>
<svg xmlns="http://www.w3.org/2000/svg" xmlns:xlink="http://www.w3.org/1999/xlink" width="129pt" height="42pt" viewBox="0 0 129 42" version="1.1">
<g id="surface1">
<path style=" stroke:none;fill-rule:nonzero;fill:rgb(0%,18.823529%,52.941176%);fill-opacity:1;" d="M 33.351562 9.976562 C 32.199219 8.609375 30.101562 8.085938 27.375 8.085938 L 19.507812 8.085938 C 18.984375 8.085938 18.457031 8.503906 18.355469 9.03125 L 15.101562 29.714844 C 15.101562 29.925781 15.101562 30.136719 15.207031 30.238281 C 15.3125 30.34375 15.523438 30.449219 15.730469 30.449219 L 20.554688 30.449219 L 21.816406 22.785156 L 21.816406 22.996094 C 21.917969 22.46875 22.339844 22.050781 22.96875 22.050781 L 25.277344 22.050781 C 29.785156 22.050781 33.351562 20.265625 34.296875 14.910156 C 34.296875 14.699219 34.398438 14.59375 34.398438 14.488281 C 34.714844 12.601562 34.398438 11.234375 33.351562 9.976562 "/>
<path style=" stroke:none;fill-rule:nonzero;fill:rgb(0%,61.176471%,87.058824%);fill-opacity:1;" d="M 92.398438 19.84375 C 92.082031 21.734375 90.613281 21.734375 89.144531 21.734375 L 88.308594 21.734375 L 88.832031 18.058594 C 88.832031 17.851562 89.042969 17.640625 89.25 17.640625 L 89.671875 17.640625 C 90.613281 17.640625 91.558594 17.640625 92.082031 18.164062 C 92.398438 18.691406 92.503906 19.214844 92.398438 19.84375 M 91.769531 14.804688 L 86.417969 14.804688 C 86 14.804688 85.683594 15.121094 85.683594 15.433594 L 83.484375 29.296875 C 83.484375 29.398438 83.484375 29.503906 83.585938 29.609375 C 83.691406 29.714844 83.796875 29.714844 83.902344 29.820312 L 86.628906 29.820312 C 86.839844 29.820312 87.152344 29.609375 87.152344 29.398438 L 87.78125 25.515625 C 87.886719 25.199219 88.203125 24.886719 88.515625 24.886719 L 90.195312 24.886719 C 93.761719 24.886719 95.753906 23.203125 96.382812 19.738281 C 96.59375 18.269531 96.382812 17.113281 95.648438 16.273438 C 94.914062 15.226562 93.550781 14.804688 91.769531 14.804688 "/>
<path style=" stroke:none;fill-rule:nonzero;fill:rgb(0%,18.823529%,52.941176%);fill-opacity:1;" d="M 53.90625 19.84375 C 53.59375 21.734375 52.125 21.734375 50.65625 21.734375 L 49.816406 21.734375 L 50.339844 18.058594 C 50.339844 17.851562 50.550781 17.640625 50.761719 17.640625 L 51.179688 17.640625 C 52.125 17.640625 53.066406 17.640625 53.59375 18.164062 C 53.90625 18.691406 54.011719 19.214844 53.90625 19.84375 M 53.277344 14.804688 L 47.929688 14.804688 C 47.507812 14.804688 47.195312 15.121094 47.195312 15.433594 L 44.992188 29.296875 C 44.992188 29.398438 44.992188 29.503906 45.097656 29.609375 C 45.203125 29.714844 45.308594 29.820312 45.414062 29.820312 L 48.035156 29.820312 C 48.453125 29.820312 48.769531 29.503906 48.769531 29.191406 L 49.398438 25.410156 C 49.503906 24.988281 49.816406 24.78125 50.132812 24.78125 L 51.808594 24.78125 C 55.375 24.78125 57.367188 23.101562 57.996094 19.636719 C 58.207031 18.164062 57.996094 17.011719 57.261719 16.171875 C 56.425781 15.226562 55.0625 14.804688 53.277344 14.804688 M 65.863281 24.886719 C 65.652344 26.355469 64.394531 27.40625 62.925781 27.40625 C 62.191406 27.40625 61.5625 27.195312 61.144531 26.671875 C 60.722656 26.25 60.621094 25.621094 60.722656 24.886719 C 60.933594 23.414062 62.191406 22.363281 63.660156 22.363281 C 64.394531 22.363281 65.023438 22.574219 65.339844 23.101562 C 65.757812 23.519531 65.96875 24.148438 65.863281 24.886719 M 69.429688 19.738281 L 66.808594 19.738281 C 66.597656 19.738281 66.386719 19.949219 66.386719 20.160156 L 66.28125 20.894531 L 66.074219 20.683594 C 65.546875 19.84375 64.289062 19.636719 63.03125 19.636719 C 60.199219 19.636719 57.789062 21.839844 57.261719 24.886719 C 57.054688 26.355469 57.367188 27.824219 58.207031 28.875 C 59.046875 29.820312 60.09375 30.238281 61.457031 30.238281 C 63.765625 30.238281 65.023438 28.769531 65.023438 28.769531 L 64.917969 29.503906 C 64.917969 29.609375 64.917969 29.714844 65.023438 29.820312 C 65.128906 29.925781 65.234375 30.03125 65.339844 30.03125 L 67.644531 30.03125 C 68.066406 30.03125 68.378906 29.714844 68.378906 29.398438 L 69.742188 20.578125 C 69.742188 20.476562 69.742188 20.371094 69.640625 20.265625 C 69.640625 19.84375 69.535156 19.738281 69.429688 19.738281 "/>
<path style=" stroke:none;fill-rule:nonzero;fill:rgb(0%,61.176471%,87.058824%);fill-opacity:1;" d="M 104.355469 24.886719 C 104.144531 26.355469 102.886719 27.40625 101.417969 27.40625 C 100.683594 27.40625 100.054688 27.195312 99.632812 26.671875 C 99.214844 26.25 99.109375 25.621094 99.214844 24.886719 C 99.425781 23.414062 100.683594 22.363281 102.152344 22.363281 C 102.886719 22.363281 103.515625 22.574219 103.828125 23.101562 C 104.25 23.519531 104.457031 24.148438 104.355469 24.886719 M 107.917969 19.738281 L 105.296875 19.738281 C 105.085938 19.738281 104.878906 19.949219 104.878906 20.160156 L 104.773438 20.894531 L 104.5625 20.683594 C 104.039062 19.84375 102.78125 19.636719 101.523438 19.636719 C 98.691406 19.636719 96.277344 21.839844 95.753906 24.886719 C 95.542969 26.355469 95.859375 27.824219 96.699219 28.875 C 97.535156 29.820312 98.585938 30.238281 99.949219 30.238281 C 102.257812 30.238281 103.515625 28.769531 103.515625 28.769531 L 103.410156 29.503906 C 103.410156 29.609375 103.410156 29.714844 103.515625 29.820312 C 103.621094 29.925781 103.722656 30.03125 103.828125 30.03125 L 106.136719 30.03125 C 106.554688 30.03125 106.871094 29.714844 106.871094 29.398438 L 108.234375 20.578125 C 108.234375 20.476562 108.234375 20.371094 108.128906 20.265625 C 108.023438 20.160156 108.023438 19.738281 107.917969 19.738281 "/>
<path style=" stroke:none;fill-rule:nonzero;fill:rgb(0%,18.823529%,52.941176%);fill-opacity:1;" d="M 83.167969 19.738281 L 80.546875 19.738281 C 80.335938 19.738281 80.023438 19.84375 79.917969 20.054688 L 76.351562 25.304688 L 74.882812 20.265625 C 74.777344 19.949219 74.464844 19.738281 74.148438 19.738281 L 71.632812 19.738281 C 71.527344 19.738281 71.316406 19.84375 71.210938 19.949219 C 71.105469 20.054688 71.105469 20.265625 71.105469 20.371094 L 73.9375 28.769531 L 71.210938 32.550781 C 71.105469 32.65625 71.105469 32.863281 71.210938 32.96875 C 71.316406 33.074219 71.421875 33.179688 71.632812 33.179688 L 74.253906 33.179688 C 74.464844 33.179688 74.777344 33.074219 74.882812 32.863281 L 83.484375 20.371094 C 83.585938 20.265625 83.585938 20.054688 83.484375 19.949219 C 83.484375 19.84375 83.378906 19.738281 83.167969 19.738281 "/>
<path style=" stroke:none;fill-rule:nonzero;fill:rgb(0%,61.176471%,87.058824%);fill-opacity:1;" d="M 110.960938 15.121094 L 108.757812 29.296875 C 108.757812 29.398438 108.757812 29.503906 108.863281 29.609375 C 108.96875 29.714844 109.074219 29.820312 109.179688 29.820312 L 111.378906 29.820312 C 111.800781 29.820312 112.113281 29.503906 112.113281 29.191406 L 114.316406 15.328125 C 114.316406 15.226562 114.316406 15.015625 114.210938 15.015625 C 114.105469 14.910156 114.003906 14.910156 113.898438 14.910156 L 111.378906 14.910156 C 111.171875 14.804688 110.960938 14.910156 110.960938 15.121094 "/>
<path style=" stroke:none;fill-rule:nonzero;fill:rgb(0%,18.823529%,52.941176%);fill-opacity:1;" d="M 33.351562 9.976562 C 32.199219 8.609375 30.101562 8.085938 27.375 8.085938 L 19.507812 8.085938 C 18.984375 8.085938 18.457031 8.503906 18.355469 9.03125 L 15.101562 29.714844 C 15.101562 29.925781 15.101562 30.136719 15.207031 30.238281 C 15.3125 30.34375 15.523438 30.449219 15.730469 30.449219 L 20.554688 30.449219 L 21.816406 22.785156 L 21.816406 22.996094 C 21.917969 22.46875 22.339844 22.050781 22.96875 22.050781 L 25.277344 22.050781 C 29.785156 22.050781 33.351562 20.265625 34.296875 14.910156 C 34.296875 14.699219 34.398438 14.59375 34.398438 14.488281 C 34.714844 12.601562 34.398438 11.234375 33.351562 9.976562 "/>
<path style=" stroke:none;fill-rule:nonzero;fill:rgb(0%,18.823529%,52.941176%);fill-opacity:1;" d="M 23.179688 14.488281 C 23.28125 13.964844 23.703125 13.648438 24.121094 13.648438 L 30.203125 13.648438 C 30.9375 13.648438 31.566406 13.648438 32.199219 13.753906 C 32.511719 13.753906 32.828125 13.859375 33.246094 13.964844 C 33.664062 14.070312 33.980469 14.175781 34.296875 14.386719 C 34.609375 12.390625 34.296875 11.128906 33.246094 9.871094 C 32.09375 8.503906 29.996094 7.980469 27.269531 7.980469 L 19.402344 7.980469 C 18.878906 7.980469 18.355469 8.398438 18.25 8.925781 L 14.996094 29.609375 C 14.996094 29.820312 14.996094 30.03125 15.101562 30.136719 C 15.207031 30.238281 15.417969 30.34375 15.625 30.34375 L 20.453125 30.34375 L 21.710938 22.679688 Z M 23.179688 14.488281 "/>
<path style=" stroke:none;fill-rule:nonzero;fill:rgb(0%,61.176471%,87.058824%);fill-opacity:1;" d="M 34.398438 14.488281 C 34.398438 14.59375 34.398438 14.804688 34.296875 14.910156 C 33.246094 20.265625 29.785156 22.050781 25.277344 22.050781 L 22.96875 22.050781 C 22.445312 22.050781 21.917969 22.46875 21.917969 22.996094 L 20.765625 30.449219 L 20.453125 32.550781 C 20.453125 32.761719 20.453125 32.863281 20.554688 33.074219 C 20.660156 33.179688 20.871094 33.285156 20.976562 33.285156 L 25.066406 33.285156 C 25.589844 33.285156 26.007812 32.96875 26.007812 32.445312 L 26.007812 32.234375 L 26.742188 27.40625 L 26.742188 27.089844 C 26.847656 26.566406 27.269531 26.25 27.6875 26.25 L 28.316406 26.25 C 32.300781 26.25 35.34375 24.675781 36.289062 19.949219 C 36.707031 18.058594 36.496094 16.378906 35.449219 15.226562 C 35.238281 15.015625 34.820312 14.699219 34.398438 14.488281 "/>
<path style=" stroke:none;fill-rule:nonzero;fill:rgb(0.392157%,12.941176%,41.176471%);fill-opacity:1;" d="M 33.351562 14.070312 C 33.140625 14.070312 33.035156 13.964844 32.828125 13.964844 C 32.617188 13.964844 32.511719 13.859375 32.300781 13.859375 C 31.671875 13.753906 31.042969 13.753906 30.308594 13.753906 L 24.226562 13.753906 C 23.703125 13.753906 23.28125 14.070312 23.28125 14.59375 L 22.023438 22.890625 L 22.023438 23.101562 C 22.128906 22.574219 22.546875 22.15625 23.074219 22.15625 L 25.378906 22.15625 C 29.890625 22.15625 33.457031 20.371094 34.398438 15.015625 C 34.398438 14.910156 34.503906 14.699219 34.503906 14.59375 C 34.191406 14.488281 33.980469 14.386719 33.664062 14.28125 C 33.457031 14.175781 33.351562 14.070312 33.351562 14.070312 "/>
</g>
</svg>
