<?xml version="1.0" encoding="UTF-8" ?>
<!DOCTYPE svg PUBLIC "-//W3C//DTD SVG 1.1//EN" "http://www.w3.org/Graphics/SVG/1.1/DTD/svg11.dtd">
<svg width="1504pt" height="863pt" viewBox="0 0 1504 863" version="1.1" xmlns="http://www.w3.org/2000/svg">
  <g id="#474747ff">
    <path fill="#474747" opacity="1.00"
          d=" M 260.12 0.00 L 1254.60 0.00 C 1263.43 1.07 1271.88 5.67 1276.94 13.09 C 1280.62 18.28 1282.52 24.63 1282.50 30.98 C 1282.50 98.32 1282.50 165.66 1282.50 233.00 C 1347.00 233.00 1411.50 233.01 1476.00 232.99 C 1481.75 232.90 1487.61 234.29 1492.40 237.58 C 1498.90 241.83 1503.02 249.10 1504.00 256.74 L 1504.00 838.03 C 1503.22 844.11 1500.82 850.12 1496.42 854.49 C 1491.69 859.46 1485.04 862.18 1478.32 863.00 L 1084.18 863.00 C 1074.42 861.95 1064.97 856.19 1060.83 847.10 C 1058.01 841.50 1058.47 835.09 1058.49 829.02 C 1058.51 794.38 1058.49 759.74 1058.50 725.10 C 997.83 725.10 937.16 725.10 876.49 725.10 C 878.38 751.88 880.78 778.68 885.42 805.14 C 886.76 810.99 887.36 817.31 890.57 822.51 C 895.55 824.97 901.29 825.23 906.69 826.31 C 916.74 828.17 927.03 828.95 936.85 831.92 C 936.83 833.41 936.83 834.91 936.83 836.42 C 936.01 836.63 934.37 837.04 933.55 837.25 C 933.51 838.34 933.49 839.43 933.47 840.54 C 923.01 841.81 912.46 841.72 901.95 842.02 C 869.97 842.44 837.98 842.54 806.00 842.50 C 745.67 842.16 685.35 842.87 625.02 842.19 C 609.81 841.90 594.54 842.17 579.40 840.55 C 579.35 839.43 579.32 838.33 579.29 837.23 C 578.49 837.04 576.90 836.67 576.10 836.49 C 576.02 834.96 575.95 833.44 575.90 831.94 C 590.00 827.91 604.83 827.31 619.06 823.82 C 620.64 823.36 622.57 822.88 623.14 821.10 C 625.68 815.29 626.62 808.94 627.84 802.76 C 632.16 777.07 634.51 751.08 636.33 725.10 C 511.89 725.09 387.44 725.11 263.00 725.09 C 246.51 725.49 231.87 710.52 232.50 694.07 C 232.50 473.04 232.49 252.00 232.50 30.97 C 232.47 24.37 234.54 17.77 238.51 12.47 C 243.53 5.45 251.65 1.18 260.12 0.00 M 252.98 3.89 C 241.97 7.94 234.20 19.29 234.50 31.04 C 234.51 230.06 234.50 429.08 234.51 628.10 C 509.17 628.10 783.83 628.10 1058.49 628.10 C 1058.50 614.76 1058.50 601.43 1058.50 588.10 C 798.65 588.10 538.81 588.11 278.97 588.09 C 276.40 588.55 273.98 586.68 274.50 583.98 C 274.49 407.00 274.51 230.02 274.49 53.04 C 274.57 49.97 274.20 46.85 274.77 43.81 C 275.34 42.04 277.41 42.00 278.95 42.00 C 597.97 42.00 917.00 42.00 1236.03 42.00 C 1238.55 41.48 1240.98 43.30 1240.49 45.98 C 1240.51 108.32 1240.49 170.66 1240.50 233.00 C 1253.83 233.00 1267.16 233.00 1280.49 233.00 C 1280.48 165.33 1280.53 97.66 1280.47 29.99 C 1280.50 15.01 1267.01 1.76 1252.04 2.02 C 924.71 1.97 597.37 2.02 270.03 1.99 C 264.32 1.98 258.38 1.68 252.98 3.89 M 277.47 45.04 C 277.57 225.08 277.41 405.11 277.55 585.14 C 537.86 585.06 798.18 585.13 1058.50 585.11 C 1058.50 476.72 1058.50 368.33 1058.50 259.94 C 1058.18 249.56 1064.52 239.31 1074.10 235.19 C 1079.98 232.38 1086.64 233.06 1092.96 233.00 C 1141.16 232.97 1189.35 233.07 1237.54 232.95 C 1237.45 170.30 1237.51 107.66 1237.51 45.01 C 917.50 45.01 597.48 44.95 277.47 45.04 M 1060.51 258.97 C 1060.46 367.66 1060.53 476.35 1060.48 585.04 C 1061.24 585.07 1062.76 585.12 1063.52 585.14 C 1063.53 479.08 1063.53 373.02 1063.53 266.96 C 1063.60 261.64 1062.94 256.06 1065.17 251.05 C 1068.34 243.22 1076.48 237.66 1085.00 238.00 C 1135.83 238.00 1186.66 238.00 1237.50 238.00 C 1237.50 237.25 1237.50 235.75 1237.50 235.00 C 1186.34 235.02 1135.17 234.96 1084.00 235.03 C 1071.37 234.96 1060.39 246.43 1060.51 258.97 M 1240.50 235.00 C 1240.50 235.75 1240.50 237.25 1240.50 238.00 C 1253.83 238.00 1267.16 238.00 1280.50 238.00 C 1280.50 237.25 1280.50 235.75 1280.50 235.00 C 1267.16 235.00 1253.83 235.00 1240.50 235.00 M 1282.50 235.00 C 1282.50 235.75 1282.50 237.25 1282.51 238.00 C 1345.02 238.00 1407.53 238.01 1470.04 237.99 C 1475.66 238.02 1481.62 237.51 1486.81 240.12 C 1494.35 243.58 1499.35 251.71 1499.03 260.01 C 1499.04 449.35 1499.02 638.70 1499.04 828.04 C 1499.02 833.95 1499.54 840.23 1496.66 845.64 C 1492.78 853.65 1483.81 858.30 1475.06 858.00 C 1346.04 858.00 1217.02 857.99 1088.00 858.01 C 1076.09 858.82 1063.57 849.53 1063.55 837.05 C 1063.50 799.73 1063.56 762.40 1063.52 725.08 C 1062.76 725.09 1061.25 725.11 1060.49 725.12 C 1060.51 762.09 1060.50 799.06 1060.50 836.04 C 1060.44 840.31 1061.49 844.62 1063.71 848.30 C 1068.42 856.34 1077.72 861.10 1086.94 860.99 C 1215.29 861.02 1343.63 860.97 1471.98 861.02 C 1477.94 861.23 1484.15 860.53 1489.37 857.43 C 1497.34 853.07 1502.30 844.09 1502.00 835.05 C 1502.00 646.03 1502.00 457.02 1502.00 268.00 C 1501.92 261.72 1502.67 255.09 1499.82 249.26 C 1495.92 240.51 1486.52 234.80 1476.99 235.01 C 1412.16 234.99 1347.33 235.01 1282.50 235.00 M 1065.55 259.04 C 1065.50 367.73 1065.54 476.42 1065.53 585.11 C 1072.68 585.11 1079.84 585.11 1087.00 585.11 C 1086.99 488.07 1087.02 391.03 1086.98 294.00 C 1086.99 292.41 1086.79 290.06 1088.86 289.68 C 1092.88 289.25 1096.94 289.58 1100.98 289.50 C 1146.49 289.50 1191.99 289.51 1237.50 289.50 C 1237.51 273.00 1237.49 256.51 1237.51 240.01 C 1186.66 239.99 1135.81 240.00 1084.96 240.00 C 1074.64 239.51 1065.37 248.78 1065.55 259.04 M 1240.50 240.00 C 1240.50 256.50 1240.50 273.00 1240.50 289.50 C 1253.83 289.50 1267.16 289.50 1280.50 289.50 C 1280.48 282.30 1280.54 275.09 1280.46 267.90 C 1279.31 266.70 1277.54 265.75 1277.46 263.92 C 1277.31 261.90 1279.21 260.84 1280.45 259.60 C 1280.55 253.06 1280.47 246.53 1280.50 240.00 C 1267.16 240.00 1253.83 240.00 1240.50 240.00 M 1282.50 240.00 C 1282.53 246.59 1282.41 253.18 1282.58 259.77 C 1283.51 261.06 1285.15 262.20 1285.02 264.00 C 1284.79 265.57 1283.38 266.58 1282.53 267.80 C 1282.47 275.03 1282.51 282.26 1282.50 289.50 C 1345.96 289.52 1409.41 289.46 1472.86 289.53 C 1474.79 289.27 1476.39 290.95 1475.98 292.89 C 1476.01 462.95 1476.01 633.02 1475.99 803.08 C 1476.55 805.53 1474.11 806.86 1472.01 806.51 C 1344.98 806.50 1217.95 806.50 1090.92 806.51 C 1088.85 806.84 1086.48 805.54 1087.02 803.16 C 1086.97 777.14 1087.02 751.12 1087.00 725.10 C 1079.84 725.10 1072.68 725.10 1065.53 725.10 C 1065.52 760.05 1065.54 795.00 1065.52 829.95 C 1065.58 834.63 1065.01 839.59 1067.09 843.96 C 1070.48 851.54 1078.83 856.09 1086.98 855.99 C 1216.34 856.01 1345.70 855.99 1475.06 856.00 C 1483.07 856.28 1491.33 852.06 1494.90 844.71 C 1497.60 839.57 1496.97 833.62 1497.03 828.02 C 1497.02 641.00 1497.02 453.98 1497.03 266.96 C 1496.93 261.62 1497.64 255.92 1495.12 250.99 C 1491.93 244.19 1484.54 239.85 1477.07 240.01 C 1412.22 239.98 1347.36 240.01 1282.50 240.00 M 1280.54 265.53 C 1281.16 264.44 1281.35 262.27 1279.95 261.74 C 1277.95 262.08 1278.46 266.54 1280.54 265.53 M 1282.14 262.48 C 1281.00 263.35 1282.09 265.95 1283.53 264.88 C 1284.66 264.00 1283.54 261.41 1282.14 262.48 M 1089.49 292.01 C 1089.50 389.70 1089.51 487.38 1089.49 585.07 C 1138.83 585.13 1188.18 585.15 1237.52 585.06 C 1237.48 487.38 1237.49 389.71 1237.52 292.03 C 1188.18 291.97 1138.83 292.00 1089.49 292.01 M 1240.49 292.01 C 1240.50 389.33 1240.50 486.64 1240.49 583.95 C 1240.63 585.65 1239.97 587.88 1237.93 587.93 C 1232.62 588.37 1227.28 587.98 1221.97 588.10 C 1177.81 588.10 1133.66 588.11 1089.50 588.10 C 1089.49 601.43 1089.50 614.76 1089.50 628.10 C 1153.17 628.10 1216.83 628.10 1280.50 628.10 C 1280.51 516.06 1280.50 404.03 1280.50 292.00 C 1267.16 292.01 1253.82 291.98 1240.49 292.01 M 1282.50 292.00 C 1282.48 426.36 1282.53 560.72 1282.48 695.08 C 1282.57 710.82 1268.71 724.94 1252.96 725.07 C 1198.48 725.15 1143.99 725.08 1089.50 725.10 C 1089.49 751.40 1089.50 777.70 1089.50 804.00 C 1217.50 803.99 1345.51 804.02 1473.51 803.98 C 1473.47 633.31 1473.55 462.64 1473.47 291.97 C 1409.81 292.04 1346.16 291.98 1282.50 292.00 M 1060.50 588.09 C 1060.50 601.43 1060.50 614.76 1060.50 628.10 C 1061.26 628.10 1062.77 628.10 1063.53 628.10 C 1063.53 614.76 1063.53 601.43 1063.53 588.10 C 1062.77 588.10 1061.26 588.09 1060.50 588.09 M 1065.53 588.10 C 1065.53 601.43 1065.53 614.76 1065.53 628.10 C 1072.69 628.10 1079.84 628.10 1087.00 628.10 C 1087.00 614.76 1087.00 601.43 1087.00 588.10 C 1079.84 588.10 1072.68 588.10 1065.53 588.10 M 234.50 630.10 C 234.55 652.03 234.42 673.97 234.56 695.90 C 234.93 710.63 248.32 723.47 263.08 723.10 C 528.22 723.10 793.36 723.10 1058.49 723.10 C 1058.50 692.10 1058.50 661.10 1058.50 630.10 C 783.83 630.10 509.17 630.10 234.50 630.10 M 1060.50 630.10 C 1060.50 661.10 1060.50 692.10 1060.50 723.10 C 1061.26 723.10 1062.77 723.10 1063.53 723.10 C 1063.53 692.09 1063.53 661.09 1063.53 630.09 C 1062.77 630.09 1061.26 630.10 1060.50 630.10 M 1065.53 630.10 C 1065.53 661.10 1065.53 692.10 1065.53 723.10 C 1072.68 723.10 1079.84 723.10 1087.00 723.10 C 1087.00 692.10 1087.00 661.10 1087.00 630.10 C 1079.84 630.10 1072.69 630.10 1065.53 630.10 M 1089.50 630.10 C 1089.49 661.10 1089.49 692.10 1089.50 723.10 C 1144.02 723.07 1198.53 723.15 1253.05 723.06 C 1267.37 722.87 1280.03 710.26 1280.43 695.97 C 1280.60 674.02 1280.45 652.06 1280.50 630.10 C 1216.83 630.10 1153.17 630.10 1089.50 630.10 M 638.32 725.10 C 636.36 752.80 633.94 780.55 628.93 807.88 C 627.64 813.26 626.96 819.09 623.85 823.80 C 620.48 826.35 615.89 826.39 611.90 827.37 C 601.92 829.12 591.87 830.49 581.91 832.31 C 580.12 832.62 578.13 833.01 577.37 834.91 C 592.85 836.61 608.47 836.21 624.01 836.52 C 661.35 836.99 698.70 836.74 736.05 836.80 C 793.02 836.68 850.00 837.15 906.98 836.30 C 916.48 835.99 926.04 836.16 935.49 834.90 C 934.56 832.68 932.04 832.59 930.04 832.15 C 918.33 830.01 906.48 828.62 894.83 826.15 C 892.21 825.47 888.83 825.00 887.87 822.02 C 884.99 815.32 883.96 808.03 882.63 800.91 C 878.59 775.81 876.22 750.46 874.50 725.11 C 795.78 725.10 717.05 725.10 638.32 725.10 M 580.32 837.45 C 580.67 839.95 583.36 839.30 585.07 839.66 C 597.02 840.36 609.00 840.46 620.97 840.67 C 656.66 841.00 692.35 841.09 728.04 840.94 C 789.05 840.73 850.08 841.51 911.09 840.32 C 917.90 839.95 924.82 840.30 931.56 839.09 L 932.52 837.44 C 908.68 838.61 884.81 838.54 860.95 838.80 C 801.29 838.80 741.63 838.80 681.96 838.80 C 648.08 838.76 614.18 838.90 580.32 837.45 Z"/>
    <path fill="#474747" opacity="1.00"
          d=" M 1269.25 262.28 C 1271.27 260.49 1273.85 263.98 1271.70 265.53 C 1269.63 267.05 1267.22 263.76 1269.25 262.28 Z"/>
    <path fill="#474747" opacity="1.00"
          d=" M 128.63 439.71 C 136.34 438.29 144.21 439.30 152.00 438.97 C 155.79 439.22 161.18 437.63 162.77 442.35 C 166.23 442.58 169.75 442.76 173.08 443.82 C 182.23 446.58 189.73 454.19 192.34 463.39 C 193.94 468.78 193.45 474.44 193.51 479.98 C 193.50 587.99 193.50 696.00 193.51 804.00 C 193.45 810.98 194.17 818.33 191.18 824.87 C 186.89 835.19 176.20 842.43 165.00 842.47 C 122.32 842.57 79.64 842.45 36.97 842.53 C 31.01 842.65 24.80 842.38 19.38 839.60 C 9.37 834.88 2.71 824.07 3.00 813.00 C 2.99 737.15 3.02 661.29 2.98 585.44 C 1.97 584.71 0.98 583.97 0.00 583.22 L 0.00 569.07 C 1.00 568.52 2.00 567.97 3.00 567.44 C 3.00 562.25 3.00 557.06 3.01 551.88 C 2.00 551.30 1.00 550.74 0.00 550.18 L 0.00 536.08 C 0.97 535.33 1.97 534.63 2.98 533.94 C 3.01 528.82 3.00 523.70 3.00 518.58 C 1.98 517.90 0.98 517.21 0.00 516.51 L 0.00 498.07 C 1.00 497.52 2.00 496.97 3.00 496.44 C 3.08 487.60 2.85 478.76 3.08 469.92 C 3.48 458.53 11.44 447.98 22.17 444.24 C 27.86 442.07 34.03 442.51 40.00 442.49 C 69.47 442.52 98.94 442.48 128.41 442.51 C 128.47 441.81 128.57 440.41 128.63 439.71 M 129.34 442.30 C 139.98 442.58 150.67 442.73 161.30 442.21 C 160.22 440.92 158.71 440.30 157.05 440.49 C 149.01 440.52 140.97 440.47 132.93 440.51 C 131.44 440.30 130.24 441.20 129.34 442.30 M 8.42 458.38 C 4.85 464.39 4.65 471.61 5.17 478.39 C 5.58 478.15 6.40 477.68 6.81 477.44 C 7.26 472.60 6.59 467.53 8.51 462.92 C 11.92 453.29 21.67 446.40 31.90 446.51 C 75.95 446.48 120.00 446.50 164.05 446.50 C 174.48 446.19 184.58 453.13 188.01 462.98 C 189.87 467.53 189.30 472.49 189.66 477.26 C 190.08 477.55 190.92 478.14 191.35 478.44 C 191.81 471.75 191.69 464.65 188.24 458.68 C 183.63 449.94 173.92 444.26 164.03 444.51 C 120.00 444.51 75.96 444.48 31.92 444.52 C 22.34 444.45 13.01 449.97 8.42 458.38 M 25.38 449.46 C 15.70 452.26 8.64 461.93 9.00 472.01 C 9.00 583.35 9.01 694.68 9.00 806.02 C 9.07 811.01 8.51 816.17 10.27 820.97 C 13.28 830.05 22.41 836.57 31.98 836.47 C 76.30 836.50 120.63 836.54 164.95 836.46 C 176.87 836.51 187.50 825.93 187.47 814.00 C 187.52 699.68 187.51 585.34 187.47 471.02 C 187.54 459.10 176.92 448.47 165.00 448.52 C 122.66 448.47 80.31 448.53 37.97 448.49 C 33.76 448.52 29.46 448.21 25.38 449.46 M 5.00 480.80 C 5.07 588.85 4.86 696.90 5.11 804.95 C 6.66 804.57 7.30 803.60 7.00 802.02 C 7.00 694.95 7.00 587.87 7.00 480.80 C 6.50 480.80 5.50 480.80 5.00 480.80 M 189.50 480.84 C 189.52 588.74 189.48 696.64 189.52 804.54 L 191.50 804.47 C 191.49 696.57 191.51 588.67 191.49 480.77 C 190.99 480.78 189.99 480.82 189.50 480.84 M 1.47 508.00 C 1.69 511.09 0.72 514.54 2.73 517.23 C 3.15 510.66 3.20 504.04 2.71 497.47 C 0.66 500.61 1.73 504.49 1.47 508.00 M 1.44 542.97 C 1.60 545.56 0.94 548.51 2.78 550.68 C 3.13 545.57 3.13 540.43 2.78 535.32 C 0.95 537.47 1.59 540.39 1.44 542.97 M 1.43 577.00 C 1.52 579.37 1.11 581.99 2.76 583.99 C 3.14 578.83 3.18 573.63 2.73 568.48 C 0.95 570.98 1.55 574.12 1.43 577.00 M 5.14 807.77 C 4.60 813.93 5.04 820.43 8.06 825.96 C 12.55 834.75 22.15 840.61 32.04 840.49 C 76.02 840.51 120.01 840.49 163.99 840.50 C 173.65 840.74 183.15 835.37 187.89 826.96 C 191.52 821.15 191.72 814.12 191.50 807.50 L 189.51 807.50 C 189.60 813.07 189.72 818.93 187.15 824.04 C 183.15 832.85 173.70 838.73 164.03 838.49 C 122.35 838.52 80.67 838.49 38.99 838.51 C 33.69 838.48 28.17 838.87 23.15 836.85 C 15.83 834.12 10.00 827.76 7.92 820.22 C 6.69 816.16 7.21 811.87 6.85 807.70 L 5.95 807.19 L 5.14 807.77 Z"/>
    <path fill="#474747" opacity="1.00"
          d=" M 95.49 459.52 C 97.80 457.33 102.04 458.89 102.44 462.03 C 103.09 464.98 99.93 467.80 97.08 466.83 C 93.91 466.09 92.92 461.51 95.49 459.52 M 96.90 459.49 C 96.17 461.21 94.58 463.07 96.15 464.85 C 97.92 466.43 99.79 464.84 101.51 464.11 C 101.23 461.43 99.57 459.77 96.90 459.49 Z"/>
    <path fill="#474747" opacity="1.00"
          d=" M 83.49 474.68 C 91.63 474.20 99.82 474.67 107.98 474.47 C 110.53 474.54 114.27 473.98 115.33 477.07 C 116.32 479.72 113.72 482.39 111.05 481.98 C 101.99 481.97 92.91 482.14 83.86 481.89 C 79.74 481.85 79.35 475.12 83.49 474.68 M 82.37 476.75 C 82.56 477.49 82.93 478.96 83.11 479.70 C 92.69 480.29 102.36 480.01 111.95 479.86 C 113.93 480.34 114.11 476.03 112.05 476.68 C 102.17 476.37 92.25 476.35 82.37 476.75 Z"/>
    <path fill="#474747" opacity="1.00"
          d=" M 17.46 498.68 C 30.62 498.23 43.82 498.63 56.99 498.50 C 96.67 498.49 136.35 498.52 176.03 498.48 C 177.26 498.51 178.57 498.49 179.66 499.15 C 179.92 500.44 180.04 501.75 180.02 503.08 C 179.96 596.43 180.03 689.78 179.99 783.12 C 180.39 785.18 179.20 786.83 177.01 786.49 C 124.66 786.53 72.30 786.47 19.95 786.52 C 18.29 786.57 15.55 786.46 16.07 784.06 C 15.90 690.37 16.07 596.67 15.98 502.98 C 16.26 501.54 15.43 498.99 17.46 498.68 M 18.00 500.50 C 18.00 595.17 18.00 689.83 18.00 784.50 C 71.33 784.50 124.67 784.50 178.00 784.50 C 178.00 689.83 178.00 595.17 178.00 500.50 C 124.67 500.50 71.33 500.50 18.00 500.50 Z"/>
    <path fill="#474747" opacity="1.00"
          d=" M 92.33 796.53 C 101.21 792.99 112.13 798.67 114.39 807.92 C 117.01 816.59 111.30 826.52 102.49 828.64 C 93.59 831.31 83.36 825.09 81.64 815.96 C 79.73 807.98 84.60 799.19 92.33 796.53 M 95.48 797.74 C 88.36 798.93 82.74 805.85 83.28 813.10 C 83.44 821.08 91.01 827.89 98.96 827.21 C 107.13 826.98 113.98 819.01 112.92 810.89 C 112.32 802.55 103.67 796.03 95.48 797.74 Z"/>
    <path fill="#474747" opacity="1.00"
          d=" M 1277.39 819.47 C 1285.99 817.01 1295.61 823.98 1295.96 832.93 C 1296.75 840.93 1290.03 848.59 1282.02 848.96 C 1274.08 849.68 1266.36 843.05 1266.04 835.05 C 1265.38 827.97 1270.51 821.08 1277.39 819.47 M 1277.36 821.52 C 1271.21 823.20 1267.00 829.82 1268.17 836.11 C 1269.11 842.95 1276.19 848.06 1282.99 846.85 C 1289.89 845.93 1295.12 838.80 1293.83 831.94 C 1292.84 824.47 1284.55 819.17 1277.36 821.52 Z"/>
    <path fill="#474747" opacity="1.00"
          d=" M 1276.28 829.22 C 1279.07 828.02 1282.95 828.00 1285.74 829.24 C 1287.02 832.01 1286.93 835.90 1285.79 838.74 C 1282.94 839.99 1279.12 839.94 1276.25 838.79 C 1275.03 835.96 1274.97 832.00 1276.28 829.22 M 1277.52 830.52 C 1277.50 832.83 1277.49 835.15 1277.52 837.48 C 1279.83 837.48 1282.15 837.48 1284.48 837.48 C 1284.48 835.15 1284.48 832.83 1284.48 830.52 C 1282.15 830.50 1279.83 830.50 1277.52 830.52 Z"/>
  </g>
  <g id="#414141ea">
    <path fill="#414141" opacity="0.92"
          d=" M 756.21 18.29 C 758.93 17.07 762.33 20.17 761.41 23.02 C 760.89 25.84 757.00 27.17 754.92 25.16 C 752.43 23.34 753.33 19.16 756.21 18.29 M 755.19 21.66 C 755.51 22.32 756.16 23.65 756.49 24.31 C 757.87 23.81 759.08 22.98 760.18 22.00 C 758.74 20.28 756.70 19.65 755.19 21.66 Z"/>
  </g>
  <g id="#0707071a">
    <path fill="#070707" opacity="0.10"
          d=" M 277.47 45.04 C 597.48 44.95 917.50 45.01 1237.51 45.01 C 1237.51 107.66 1237.45 170.30 1237.54 232.95 C 1189.35 233.07 1141.16 232.97 1092.96 233.00 C 1086.64 233.06 1079.98 232.38 1074.10 235.19 C 1064.52 239.31 1058.18 249.56 1058.50 259.94 C 1058.50 368.33 1058.50 476.72 1058.50 585.11 C 798.18 585.13 537.86 585.06 277.55 585.14 C 277.41 405.11 277.57 225.08 277.47 45.04 Z"/>
    <path fill="#070707" opacity="0.10"
          d=" M 1060.51 258.97 C 1060.39 246.43 1071.37 234.96 1084.00 235.03 C 1135.17 234.96 1186.34 235.02 1237.50 235.00 C 1237.50 235.75 1237.50 237.25 1237.50 238.00 C 1186.66 238.00 1135.83 238.00 1085.00 238.00 C 1076.48 237.66 1068.34 243.22 1065.17 251.05 C 1062.94 256.06 1063.60 261.64 1063.53 266.96 C 1063.53 373.02 1063.53 479.08 1063.52 585.14 C 1062.76 585.12 1061.24 585.07 1060.48 585.04 C 1060.53 476.35 1060.46 367.66 1060.51 258.97 Z"/>
    <path fill="#070707" opacity="0.10"
          d=" M 1065.55 259.04 C 1065.37 248.78 1074.64 239.51 1084.96 240.00 C 1135.81 240.00 1186.66 239.99 1237.51 240.01 C 1237.49 256.51 1237.51 273.00 1237.50 289.50 C 1191.99 289.51 1146.49 289.50 1100.98 289.50 C 1096.94 289.58 1092.88 289.25 1088.86 289.68 C 1086.79 290.06 1086.99 292.41 1086.98 294.00 C 1087.02 391.03 1086.99 488.07 1087.00 585.11 C 1079.84 585.11 1072.68 585.11 1065.53 585.11 C 1065.54 476.42 1065.50 367.73 1065.55 259.04 Z"/>
    <path fill="#070707" opacity="0.10"
          d=" M 1240.49 292.01 C 1253.82 291.98 1267.16 292.01 1280.50 292.00 C 1280.50 404.03 1280.51 516.06 1280.50 628.10 C 1216.83 628.10 1153.17 628.10 1089.50 628.10 C 1089.50 614.76 1089.49 601.43 1089.50 588.10 C 1133.66 588.11 1177.81 588.10 1221.97 588.10 C 1227.28 587.98 1232.62 588.37 1237.93 587.93 C 1239.97 587.88 1240.63 585.65 1240.49 583.95 C 1240.50 486.64 1240.50 389.33 1240.49 292.01 Z"/>
    <path fill="#070707" opacity="0.10"
          d=" M 1282.50 292.00 C 1346.16 291.98 1409.81 292.04 1473.47 291.97 C 1473.55 462.64 1473.47 633.31 1473.51 803.98 C 1345.51 804.02 1217.50 803.99 1089.50 804.00 C 1089.50 777.70 1089.49 751.40 1089.50 725.10 C 1143.99 725.08 1198.48 725.15 1252.96 725.07 C 1268.71 724.94 1282.57 710.82 1282.48 695.08 C 1282.53 560.72 1282.48 426.36 1282.50 292.00 Z"/>
    <path fill="#070707" opacity="0.10"
          d=" M 18.00 500.50 C 71.33 500.50 124.67 500.50 178.00 500.50 C 178.00 595.17 178.00 689.83 178.00 784.50 C 124.67 784.50 71.33 784.50 18.00 784.50 C 18.00 689.83 18.00 595.17 18.00 500.50 Z"/>
    <path fill="#070707" opacity="0.10"
          d=" M 1089.50 630.10 C 1153.17 630.10 1216.83 630.10 1280.50 630.10 C 1280.45 652.06 1280.60 674.02 1280.43 695.97 C 1280.03 710.26 1267.37 722.87 1253.05 723.06 C 1198.53 723.15 1144.02 723.07 1089.50 723.10 C 1089.49 692.10 1089.49 661.10 1089.50 630.10 Z"/>
  </g>
  <g id="#2727278d">
    <path fill="#272727" opacity="0.55"
          d=" M 1282.14 262.48 C 1283.54 261.41 1284.66 264.00 1283.53 264.88 C 1282.09 265.95 1281.00 263.35 1282.14 262.48 Z"/>
  </g>
  <g id="#0d0d0d31">
    <path fill="#0d0d0d" opacity="0.19"
          d=" M 1089.49 292.01 C 1138.83 292.00 1188.18 291.97 1237.52 292.03 C 1237.49 389.71 1237.48 487.38 1237.52 585.06 C 1188.18 585.15 1138.83 585.13 1089.49 585.07 C 1089.51 487.38 1089.50 389.70 1089.49 292.01 Z"/>
  </g>
  <g id="#0d0d0d2e">
    <path fill="#0d0d0d" opacity="0.18"
          d=" M 96.90 459.49 C 99.57 459.77 101.23 461.43 101.51 464.11 C 99.79 464.84 97.92 466.43 96.15 464.85 C 94.58 463.07 96.17 461.21 96.90 459.49 M 97.97 461.25 C 96.20 461.62 96.89 464.60 98.67 464.00 C 100.42 463.61 99.67 460.75 97.97 461.25 Z"/>
  </g>
  <g id="#3f3f3fe2">
    <path fill="#3f3f3f" opacity="0.89"
          d=" M 97.97 461.25 C 99.67 460.75 100.42 463.61 98.67 464.00 C 96.89 464.60 96.20 461.62 97.97 461.25 Z"/>
  </g>
</svg>
