<?xml version="1.0" encoding="UTF-8" standalone="no"?>
<!DOCTYPE svg PUBLIC "-//W3C//DTD SVG 1.1//EN" "http://www.w3.org/Graphics/SVG/1.1/DTD/svg11.dtd">
<svg version="1.1" xmlns="http://www.w3.org/2000/svg" xmlns:xlink="http://www.w3.org/1999/xlink"
     preserveAspectRatio="xMidYMid meet" viewBox="0 0 100 100" width="75" height="75">
  <defs>
    <path
        d="M0.29 50.17C0.29 22.71 22.64 0.36 50.1 0.36C77.57 0.36 99.91 22.71 99.91 50.17C99.91 77.64 77.57 99.98 50.1 99.98C22.64 99.98 0.29 77.64 0.29 50.17Z"
        id="c2ybIeXJjM"></path>
    <path
        d="M50.96 0.47L51.33 0.47L51.69 0.48L52.06 0.5L52.42 0.51L52.78 0.53L53.14 0.55L53.51 0.57L53.87 0.59L54.23 0.62L54.59 0.65L54.94 0.69L55.3 0.72L55.66 0.76L56.01 0.8L56.37 0.84L56.72 0.89L57.08 0.94L57.43 0.99L57.78 1.04L58.14 1.1L58.49 1.15L58.84 1.21L59.19 1.28L59.53 1.34L59.88 1.41L60.23 1.48L60.57 1.55L60.92 1.63L61.26 1.7L61.6 1.78L61.95 1.87L62.29 1.95L62.63 2.04L62.97 2.13L63.31 2.22L63.64 2.31L63.98 2.41L64.32 2.5L64.65 2.8L64.99 3.1L65.32 3.4L65.64 3.72L65.97 4.04L66.29 4.36L66.61 4.7L66.93 5.03L67.25 5.38L67.56 5.73L67.87 6.09L68.18 6.45L68.49 6.82L68.79 7.2L69.09 7.58L69.39 7.97L69.68 8.36L69.97 8.76L70.26 9.16L70.55 9.57L70.83 9.99L71.11 10.41L71.39 10.84L71.66 11.27L71.93 11.71L72.2 12.15L72.47 12.6L72.73 13.06L72.99 13.52L73.24 13.98L73.5 14.45L73.74 14.93L73.99 15.41L74.23 15.89L74.47 16.39L74.71 16.88L74.94 17.38L75.17 17.89L75.39 18.4L75.62 18.91L88.89 18.91L88.96 19L89.03 19.09L89.11 19.18L89.18 19.27L89.25 19.36L89.32 19.45L89.39 19.54L89.46 19.63L89.53 19.72L89.6 19.81L89.67 19.9L89.74 19.99L89.81 20.08L89.88 20.17L89.95 20.26L90.02 20.35L90.09 20.45L90.16 20.54L90.23 20.63L90.3 20.72L90.37 20.81L90.43 20.91L90.5 21L90.57 21.09L90.64 21.19L90.7 21.28L90.77 21.37L90.84 21.47L90.9 21.56L90.97 21.65L91.04 21.75L91.1 21.84L91.17 21.94L91.23 22.03L91.3 22.12L91.36 22.22L91.43 22.31L91.49 22.41L91.56 22.5L91.62 22.6L77.06 22.6L77.26 23.17L77.46 23.75L77.65 24.33L77.84 24.91L78.02 25.5L78.2 26.09L78.38 26.69L78.55 27.29L78.71 27.9L78.88 28.51L79.03 29.12L79.19 29.74L79.34 30.36L79.48 30.99L79.62 31.62L79.76 32.25L79.89 32.89L80.02 33.53L80.14 34.18L80.25 34.82L80.37 35.48L80.47 36.13L80.58 36.79L80.68 37.45L80.77 38.11L80.86 38.78L80.94 39.45L81.02 40.13L81.09 40.8L81.16 41.48L81.22 42.17L81.28 42.85L81.34 43.54L81.38 44.23L81.43 44.92L81.47 45.62L81.5 46.32L81.53 47.02L81.55 47.72L81.56 48.43L99.99 48.43L100 48.52L100 48.61L100 48.7L100.01 48.8L100.01 48.89L100.01 48.93L100.01 48.98L100.02 49.03L100.02 49.07L100.02 49.12L100.02 49.16L100.02 49.21L100.02 49.26L100.02 49.3L100.03 49.35L100.03 49.39L100.03 49.44L100.03 49.49L100.03 49.53L100.03 49.58L100.03 49.62L100.03 49.67L100.03 49.72L100.04 49.76L100.04 49.81L100.04 49.86L100.04 49.9L100.04 49.95L100.04 49.99L100.04 50.04L100.04 50.09L100.04 50.13L100.04 50.18L100.04 50.23L100.04 50.27L100.04 50.32L100.04 50.37L100.04 50.41L100.04 50.46L100.04 50.5L100.04 50.55L100.04 50.6L100.04 50.64L100.04 50.69L100.04 50.74L100.04 50.78L100.03 50.83L100.03 50.87L100.03 50.92L100.03 50.97L100.03 51.01L100.03 51.06L100.03 51.1L100.03 51.15L100.03 51.2L100.02 51.24L100.02 51.29L100.02 51.33L100.02 51.38L100.02 51.43L100.02 51.47L100.02 51.52L100.01 51.57L100.01 51.61L100.01 51.66L100.01 51.75L100 51.84L100 51.89L100 52.03L99.99 52.12L81.56 52.12L81.55 52.82L81.53 53.53L81.5 54.23L81.47 54.93L81.43 55.62L81.38 56.32L81.34 57.01L81.28 57.69L81.22 58.38L81.16 59.06L81.09 59.74L81.02 60.42L80.94 61.09L80.86 61.76L80.77 62.43L80.68 63.1L80.58 63.76L80.47 64.41L80.37 65.07L80.25 65.72L80.14 66.37L80.02 67.01L79.89 67.65L79.76 68.29L79.62 68.92L79.48 69.55L79.34 70.18L79.19 70.8L79.03 71.42L78.88 72.03L78.71 72.64L78.55 73.25L78.38 73.85L78.2 74.45L78.02 75.04L77.84 75.63L77.65 76.22L77.46 76.8L77.26 77.37L77.06 77.94L91.62 77.94L91.56 78.04L91.49 78.14L91.43 78.23L91.36 78.33L91.3 78.42L91.23 78.52L91.17 78.61L91.1 78.7L91.04 78.8L90.97 78.89L90.9 78.99L90.84 79.08L90.77 79.17L90.7 79.27L90.64 79.36L90.57 79.45L90.5 79.54L90.43 79.64L90.37 79.73L90.3 79.82L90.23 79.91L90.16 80.01L90.09 80.1L90.02 80.19L89.95 80.28L89.88 80.37L89.81 80.46L89.74 80.56L89.67 80.65L89.6 80.74L89.53 80.83L89.46 80.92L89.39 81.01L89.32 81.1L89.25 81.19L89.18 81.28L89.11 81.37L89.03 81.46L88.96 81.55L88.89 81.63L75.62 81.63L75.39 82.15L75.17 82.66L74.94 83.16L74.71 83.66L74.47 84.16L74.23 84.65L73.99 85.14L73.74 85.62L73.5 86.09L73.24 86.56L72.99 87.03L72.73 87.49L72.47 87.94L72.2 88.39L71.93 88.83L71.66 89.27L71.39 89.71L71.11 90.13L70.83 90.55L70.55 90.97L70.26 91.38L69.97 91.79L69.68 92.19L69.39 92.58L69.09 92.97L68.79 93.35L68.49 93.72L68.18 94.09L67.87 94.46L67.56 94.81L67.25 95.17L66.93 95.51L66.61 95.85L66.29 96.18L65.97 96.51L65.64 96.83L65.32 97.14L64.99 97.45L64.65 97.75L64.32 98.04L63.98 98.14L63.64 98.24L63.31 98.33L62.97 98.42L62.63 98.51L62.29 98.59L61.95 98.68L61.61 98.76L61.26 98.84L60.92 98.92L60.57 98.99L60.23 99.07L59.88 99.14L59.53 99.2L59.19 99.27L58.84 99.33L58.49 99.39L58.14 99.45L57.78 99.5L57.43 99.56L57.08 99.61L56.72 99.66L56.37 99.7L56.01 99.74L55.66 99.79L55.3 99.82L54.94 99.86L54.59 99.89L54.23 99.92L53.87 99.95L53.51 99.98L53.14 100L52.78 100.02L52.42 100.03L52.06 100.05L51.69 100.06L51.33 100.07L50.96 100.08L50.6 100.08L50.23 100.08L49.86 100.08L49.5 100.08L49.13 100.07L48.77 100.06L48.4 100.05L48.04 100.03L47.68 100.02L47.32 100L46.95 99.98L46.59 99.95L46.23 99.92L45.87 99.89L45.52 99.86L45.16 99.82L44.8 99.79L44.45 99.74L44.09 99.7L43.73 99.66L43.38 99.61L43.03 99.56L42.68 99.5L42.32 99.45L41.97 99.39L41.62 99.33L41.27 99.27L40.93 99.2L40.58 99.13L40.23 99.06L39.89 98.99L39.54 98.92L39.2 98.84L38.85 98.76L38.51 98.68L38.17 98.59L37.83 98.51L37.49 98.42L37.15 98.33L36.82 98.24L36.48 98.14L36.14 98.04L35.81 97.75L35.47 97.45L35.14 97.14L34.82 96.83L34.49 96.51L34.17 96.18L33.84 95.85L33.53 95.51L33.21 95.17L32.9 94.81L32.59 94.46L32.28 94.09L31.97 93.72L31.67 93.35L31.37 92.97L31.07 92.58L30.78 92.19L30.49 91.79L30.2 91.38L29.91 90.97L29.63 90.55L29.35 90.13L29.07 89.71L28.8 89.27L28.53 88.83L28.26 88.39L27.99 87.94L27.73 87.49L27.47 87.03L27.22 86.56L26.96 86.09L26.72 85.62L26.47 85.14L26.23 84.65L25.99 84.16L25.75 83.66L25.52 83.16L25.29 82.66L25.07 82.15L24.84 81.63L11.57 81.63L11.5 81.55L11.42 81.46L11.35 81.37L11.28 81.28L11.21 81.19L11.14 81.1L11.07 81.01L11 80.92L10.93 80.83L10.86 80.74L10.79 80.65L10.72 80.56L10.65 80.46L10.58 80.37L10.51 80.28L10.44 80.19L10.37 80.1L10.3 80.01L10.23 79.91L10.16 79.82L10.09 79.73L10.03 79.64L9.96 79.54L9.89 79.45L9.82 79.36L9.76 79.27L9.69 79.17L9.62 79.08L9.55 78.99L9.49 78.89L9.42 78.8L9.36 78.7L9.29 78.61L9.22 78.51L9.16 78.42L9.09 78.33L9.03 78.23L8.97 78.14L8.9 78.04L8.84 77.94L23.4 77.94L23.2 77.37L23 76.8L22.81 76.22L22.62 75.63L22.44 75.04L22.26 74.45L22.08 73.85L21.91 73.25L21.74 72.64L21.58 72.03L21.42 71.42L21.27 70.8L21.12 70.18L20.98 69.55L20.84 68.92L20.7 68.29L20.57 67.65L20.44 67.01L20.32 66.37L20.21 65.72L20.09 65.07L19.99 64.41L19.88 63.76L19.78 63.1L19.69 62.43L19.6 61.76L19.52 61.09L19.44 60.42L19.37 59.74L19.3 59.06L19.24 58.38L19.18 57.69L19.12 57.01L19.07 56.32L19.03 55.62L18.99 54.93L18.96 54.23L18.93 53.53L18.91 52.82L18.89 52.12L0.47 52.12L0.46 52.03L0.46 51.93L0.46 51.84L0.45 51.75L0.45 51.66L0.45 51.61L0.45 51.57L0.44 51.52L0.44 51.47L0.44 51.43L0.44 51.38L0.44 51.33L0.44 51.29L0.44 51.24L0.43 51.2L0.43 51.15L0.43 51.1L0.43 51.06L0.43 51.01L0.43 50.97L0.43 50.92L0.43 50.87L0.43 50.83L0.42 50.78L0.42 50.74L0.42 50.69L0.42 50.64L0.42 50.6L0.42 50.55L0.42 50.5L0.42 50.46L0.42 50.41L0.42 50.37L0.42 50.32L0.42 50.27L0.42 50.23L0.42 50.18L0.42 50.13L0.42 50.09L0.42 50.04L0.42 49.99L0.42 49.95L0.42 49.9L0.42 49.86L0.42 49.81L0.42 49.76L0.43 49.72L0.43 49.67L0.43 49.62L0.43 49.58L0.43 49.53L0.43 49.49L0.43 49.44L0.43 49.39L0.43 49.35L0.44 49.3L0.44 49.26L0.44 49.21L0.44 49.16L0.44 49.12L0.44 49.07L0.44 49.03L0.45 48.98L0.45 48.93L0.45 48.89L0.45 48.8L0.46 48.7L0.46 48.66L0.46 48.52L0.47 48.43L18.89 48.43L18.91 47.72L18.93 47.02L18.96 46.32L18.99 45.62L19.03 44.92L19.07 44.23L19.12 43.54L19.18 42.85L19.24 42.17L19.3 41.48L19.37 40.8L19.44 40.13L19.52 39.45L19.6 38.78L19.69 38.11L19.78 37.45L19.88 36.79L19.99 36.13L20.09 35.48L20.21 34.82L20.32 34.18L20.44 33.53L20.57 32.89L20.7 32.25L20.84 31.62L20.98 30.99L21.12 30.36L21.27 29.74L21.42 29.12L21.58 28.51L21.74 27.9L21.91 27.29L22.08 26.69L22.26 26.09L22.44 25.5L22.62 24.91L22.81 24.33L23 23.75L23.2 23.17L23.4 22.6L8.84 22.6L8.9 22.5L8.97 22.41L9.03 22.31L9.09 22.22L9.16 22.12L9.22 22.03L9.29 21.94L9.36 21.84L9.42 21.75L9.49 21.65L9.55 21.56L9.62 21.47L9.69 21.37L9.76 21.28L9.82 21.19L9.89 21.09L9.96 21L10.03 20.91L10.09 20.81L10.16 20.72L10.23 20.63L10.3 20.54L10.37 20.45L10.44 20.35L10.51 20.26L10.58 20.17L10.65 20.08L10.72 19.99L10.79 19.9L10.86 19.81L10.93 19.72L11 19.63L11.07 19.54L11.14 19.45L11.21 19.36L11.28 19.27L11.35 19.18L11.42 19.09L11.5 19L11.57 18.91L24.84 18.91L25.07 18.4L25.29 17.89L25.52 17.38L25.75 16.88L25.99 16.39L26.23 15.89L26.47 15.41L26.72 14.93L26.96 14.45L27.22 13.98L27.47 13.52L27.73 13.06L27.99 12.6L28.26 12.15L28.53 11.71L28.8 11.27L29.07 10.84L29.35 10.41L29.63 9.99L29.91 9.57L30.2 9.16L30.49 8.76L30.78 8.36L31.07 7.97L31.37 7.58L31.67 7.2L31.97 6.82L32.28 6.45L32.59 6.09L32.9 5.73L33.21 5.38L33.53 5.03L33.84 4.7L34.17 4.36L34.49 4.04L34.81 3.72L35.14 3.4L35.47 3.1L35.81 2.8L36.14 2.5L36.48 2.41L36.81 2.31L37.15 2.22L37.49 2.13L37.83 2.04L38.17 1.95L38.51 1.87L38.85 1.78L39.2 1.7L39.54 1.63L39.89 1.55L40.23 1.48L40.58 1.41L40.93 1.34L41.27 1.28L41.62 1.21L41.97 1.15L42.32 1.1L42.68 1.04L43.03 0.99L43.38 0.94L43.73 0.89L44.09 0.84L44.44 0.8L44.8 0.76L45.16 0.72L45.52 0.69L45.87 0.65L46.23 0.62L46.59 0.59L46.95 0.57L47.32 0.55L47.68 0.53L48.04 0.51L48.4 0.5L48.77 0.48L49.13 0.47L49.5 0.47L49.86 0.46L50.23 0.46L50.6 0.46L50.96 0.47ZM52.07 99.96L53.88 99.64L55.66 99.11L57.39 98.38L59.08 97.46L60.72 96.35L62.31 95.07L63.85 93.61L65.33 91.99L66.75 90.21L68.09 88.27L69.37 86.2L70.58 83.98L71.71 81.63L52.07 81.63L52.07 99.96ZM29.54 83.23L30.44 84.79L31.47 86.32L32.62 87.82L33.89 89.29L35.28 90.73L36.79 92.14L38.42 93.52L40.17 94.87L42.04 96.18L44.04 97.47L46.15 98.73L48.39 99.96L48.39 81.63L28.75 81.63L29.54 83.23ZM22.63 53.62L22.69 55.1L22.79 56.58L22.9 58.04L23.04 59.49L23.2 60.92L23.38 62.34L23.59 63.74L23.82 65.13L24.07 66.5L24.34 67.85L24.63 69.18L24.95 70.5L25.28 71.79L25.63 73.06L26 74.32L26.39 75.55L26.8 76.76L27.23 77.95L48.39 77.95L48.39 52.12L22.58 52.12L22.63 53.62ZM52.07 77.95L73.23 77.95L73.66 76.76L74.07 75.55L74.46 74.32L74.83 73.06L75.18 71.79L75.51 70.5L75.83 69.18L76.12 67.85L76.39 66.5L76.64 65.13L76.87 63.74L77.08 62.34L77.26 60.92L77.42 59.49L77.56 58.04L77.67 56.58L77.77 55.1L77.83 53.62L77.88 52.12L52.07 52.12L52.07 77.95ZM52.07 48.43L77.88 48.43L77.83 46.93L77.77 45.44L77.67 43.97L77.56 42.51L77.42 41.06L77.26 39.62L77.08 38.21L76.87 36.8L76.64 35.42L76.39 34.05L76.12 32.7L75.83 31.36L75.51 30.05L75.18 28.76L74.83 27.48L74.46 26.23L74.07 25L73.65 23.79L73.23 22.6L52.07 22.6L52.07 48.43ZM26.8 23.79L26.39 25L26 26.23L25.63 27.48L25.28 28.76L24.94 30.05L24.63 31.36L24.34 32.7L24.07 34.05L23.82 35.42L23.59 36.8L23.38 38.21L23.2 39.62L23.04 41.06L22.9 42.51L22.78 43.97L22.69 45.44L22.63 46.93L22.58 48.43L48.38 48.43L48.38 22.6L27.23 22.6L26.8 23.79ZM44.8 1.44L43.07 2.17L41.38 3.09L39.74 4.19L38.15 5.48L36.61 6.94L35.13 8.56L33.71 10.34L32.36 12.27L31.09 14.35L29.88 16.56L28.75 18.91L48.39 18.91L48.39 0.58L46.58 0.91L44.8 1.44ZM71.71 18.91L70.92 17.32L70.02 15.76L68.99 14.23L67.84 12.73L66.57 11.26L65.18 9.82L63.67 8.41L62.04 7.03L60.29 5.68L58.42 4.36L56.42 3.07L54.31 1.81L52.07 0.59L52.07 18.91L71.71 18.91Z"
        id="cEfncHq0p"></path>
    <path
        d="M16.87 4.42L18.02 4.67L19.14 5.01L20.21 5.44L21.24 5.95L22.22 6.54L23.14 7.2L24.01 7.94L24.81 8.74L25.55 9.61L26.21 10.53L26.8 11.51L27.31 12.54L27.74 13.61L28.08 14.72L28.33 15.88L28.48 17.06L28.53 18.27L28.42 20.16L28.1 22L27.59 23.8L26.93 25.54L26.12 27.22L25.21 28.83L24.21 30.37L23.15 31.82L22.06 33.19L20.95 34.46L19.85 35.62L18.79 36.67L17.8 37.61L16.88 38.42L16.08 39.1L15.42 39.64L14.91 40.04L14.59 40.28L14.48 40.36L14.36 40.28L14.04 40.04L13.54 39.64L12.87 39.1L12.07 38.42L11.16 37.61L10.16 36.67L9.1 35.62L8 34.46L6.89 33.19L5.8 31.82L4.74 30.37L3.74 28.83L2.83 27.22L2.03 25.54L1.36 23.8L0.85 22L0.53 20.16L0.42 18.27L0.47 17.06L0.62 15.88L0.87 14.72L1.21 13.61L1.64 12.54L2.15 11.51L2.74 10.53L3.41 9.61L4.14 8.74L4.95 7.94L5.81 7.2L6.74 6.54L7.71 5.95L8.74 5.44L9.81 5.01L10.93 4.67L12.08 4.42L13.26 4.27L14.48 4.22L15.69 4.27L16.87 4.42ZM11.94 10.65L10.78 11.14L9.73 11.79L8.8 12.59L7.99 13.53L7.34 14.58L6.85 15.73L6.55 16.97L6.44 18.27L6.55 19.58L6.85 20.81L7.34 21.96L7.99 23.02L8.8 23.95L9.73 24.75L10.78 25.41L11.94 25.9L13.17 26.2L14.48 26.3L15.78 26.2L17.01 25.9L18.17 25.41L19.22 24.75L20.16 23.95L20.96 23.02L21.61 21.96L22.1 20.81L22.4 19.58L22.51 18.27L22.4 16.97L22.1 15.73L21.61 14.58L20.96 13.53L20.16 12.59L19.22 11.79L18.17 11.14L17.01 10.65L15.78 10.35L14.48 10.24L13.17 10.35L11.94 10.65Z"
        id="b1vbNk1mMZ"></path>
    <path
        d="M88.25 25.67L89.4 25.92L90.52 26.26L91.59 26.69L92.62 27.2L93.59 27.79L94.52 28.46L95.38 29.19L96.19 30L96.92 30.86L97.59 31.79L98.18 32.76L98.69 33.79L99.12 34.86L99.46 35.98L99.71 37.13L99.86 38.31L99.91 39.53L99.8 41.41L99.48 43.26L98.97 45.05L98.3 46.79L97.5 48.48L96.59 50.09L95.59 51.62L94.53 53.08L93.44 54.44L92.33 55.71L91.23 56.88L90.17 57.93L89.17 58.87L88.26 59.68L87.46 60.36L86.79 60.9L86.29 61.29L85.97 61.53L85.85 61.62L85.74 61.53L85.42 61.29L84.91 60.9L84.25 60.36L83.45 59.68L82.53 58.87L81.54 57.93L80.48 56.88L79.38 55.71L78.27 54.44L77.18 53.08L76.12 51.62L75.12 50.09L74.21 48.48L73.4 46.79L72.74 45.05L72.23 43.26L71.91 41.41L71.8 39.53L71.85 38.31L72 37.13L72.25 35.98L72.59 34.86L73.02 33.79L73.53 32.76L74.12 31.79L74.78 30.86L75.52 30L76.32 29.19L77.19 28.46L78.11 27.79L79.09 27.2L80.12 26.69L81.19 26.26L82.31 25.92L83.46 25.67L84.64 25.52L85.85 25.47L87.07 25.52L88.25 25.67ZM83.32 31.9L82.16 32.39L81.11 33.04L80.17 33.85L79.37 34.78L78.72 35.84L78.23 36.99L77.93 38.22L77.82 39.53L77.93 40.83L78.23 42.07L78.72 43.22L79.37 44.27L80.17 45.21L81.11 46.01L82.16 46.66L83.32 47.15L84.55 47.45L85.85 47.56L87.16 47.45L88.39 47.15L89.55 46.66L90.6 46.01L91.53 45.21L92.34 44.27L92.99 43.22L93.48 42.07L93.78 40.83L93.89 39.53L93.78 38.22L93.48 36.99L92.99 35.84L92.34 34.78L91.53 33.85L90.6 33.04L89.55 32.39L88.39 31.9L87.16 31.6L85.85 31.49L84.55 31.6L83.32 31.9Z"
        id="c6QOholYE"></path>
    <path
        d="M25.75 53.99L26.9 54.24L28.01 54.58L29.08 55L30.11 55.51L31.09 56.11L32.01 56.77L32.88 57.51L33.68 58.31L34.42 59.18L35.08 60.1L35.67 61.08L36.19 62.1L36.61 63.18L36.95 64.29L37.2 65.44L37.35 66.63L37.41 67.84L37.29 69.72L36.97 71.57L36.46 73.37L35.8 75.11L35 76.79L34.09 78.4L33.09 79.94L32.03 81.39L30.93 82.76L29.82 84.02L28.73 85.19L27.67 86.24L26.67 87.18L25.76 87.99L24.96 88.67L24.29 89.21L23.78 89.6L23.46 89.85L23.35 89.93L23.24 89.85L22.91 89.6L22.41 89.21L21.74 88.67L20.94 87.99L20.03 87.18L19.03 86.24L17.97 85.19L16.88 84.02L15.77 82.76L14.67 81.39L13.61 79.94L12.61 78.4L11.7 76.79L10.9 75.11L10.23 73.37L9.73 71.57L9.41 69.72L9.29 67.84L9.34 66.63L9.5 65.44L9.74 64.29L10.08 63.18L10.51 62.1L11.02 61.08L11.61 60.1L12.28 59.18L13.02 58.31L13.82 57.51L14.68 56.77L15.61 56.11L16.59 55.51L17.61 55L18.69 54.58L19.8 54.24L20.95 53.99L22.14 53.84L23.35 53.78L24.56 53.84L25.75 53.99ZM20.81 60.22L19.66 60.7L18.61 61.36L17.67 62.16L16.87 63.1L16.21 64.15L15.73 65.3L15.42 66.54L15.32 67.84L15.42 69.14L15.73 70.38L16.21 71.53L16.87 72.58L17.67 73.52L18.61 74.32L19.66 74.98L20.81 75.46L22.05 75.77L23.35 75.87L24.65 75.77L25.89 75.46L27.04 74.98L28.09 74.32L29.03 73.52L29.83 72.58L30.48 71.53L30.97 70.38L31.28 69.14L31.38 67.84L31.28 66.54L30.97 65.3L30.48 64.15L29.83 63.1L29.03 62.16L28.09 61.36L27.04 60.7L25.89 60.22L24.65 59.91L23.35 59.81L22.05 59.91L20.81 60.22Z"
        id="i1h2RiXqP4"></path>
    <path
        d="M31.37 67.82C31.37 72.33 27.78 76 23.35 76C18.92 76 15.32 72.33 15.32 67.82C15.32 63.3 18.92 59.64 23.35 59.64C27.78 59.64 31.37 63.3 31.37 67.82Z"
        id="fzfn6OW95"></path>
    <path
        d="M93.88 39.58C93.88 44.09 90.28 47.76 85.85 47.76C81.42 47.76 77.83 44.09 77.83 39.58C77.83 35.06 81.42 31.4 85.85 31.4C90.28 31.4 93.88 35.06 93.88 39.58Z"
        id="a1SIEyJiZW"></path>
    <path
        d="M22.5 18.18C22.5 22.69 18.91 26.36 14.48 26.36C10.05 26.36 6.45 22.69 6.45 18.18C6.45 13.66 10.05 10 14.48 10C18.91 10 22.5 13.66 22.5 18.18Z"
        id="eamNFMs7Q"></path>
  </defs>
  <g>
    <g>
      <g>
        <use xlink:href="#c2ybIeXJjM" opacity="1" fill="#E2EDF6" fill-opacity="1"></use>
      </g>
      <g>
        <use xlink:href="#cEfncHq0p" opacity="1" fill="#ffffff" fill-opacity="1"></use>
      </g>
      <g>
        <use xlink:href="#b1vbNk1mMZ" opacity="1" fill="#ff2e12" fill-opacity="1"></use>
      </g>
      <g>
        <use xlink:href="#c6QOholYE" opacity="1" fill="#ff2e12" fill-opacity="1"></use>
      </g>
      <g>
        <use xlink:href="#i1h2RiXqP4" opacity="1" fill="#ff2e12" fill-opacity="1"></use>
      </g>
      <g>
        <use xlink:href="#fzfn6OW95" opacity="1" fill="#ffffff" fill-opacity="1"></use>
      </g>
      <g>
        <use xlink:href="#a1SIEyJiZW" opacity="1" fill="#ffffff" fill-opacity="1"></use>
      </g>
      <g>
        <use xlink:href="#eamNFMs7Q" opacity="1" fill="#ffffff" fill-opacity="1"></use>
      </g>
    </g>
  </g>
</svg>