<?xml version="1.0" encoding="UTF-8" standalone="no"?>
<!DOCTYPE svg PUBLIC "-//W3C//DTD SVG 1.1//EN" "http://www.w3.org/Graphics/SVG/1.1/DTD/svg11.dtd">
<svg version="1.1" xmlns="http://www.w3.org/2000/svg" xmlns:xlink="http://www.w3.org/1999/xlink"
     preserveAspectRatio="xMidYMid meet" viewBox="0 0 100 100" width="100" height="100">
  <defs>
    <path
        d="M6.22 0L8.27 0L10.31 0L12.36 0L14.41 0L16.46 0L18.5 0L20.55 0L22.6 0L24.65 0L26.69 0L28.74 0L30.79 0L32.84 0L34.89 0L38.98 0L41.03 0L43.08 0L45.12 0L47.17 0L49.22 0L51.27 0L53.32 0L55.36 0L57.41 0L59.46 0L61.51 0L63.56 0L65.6 0L67.65 0L69.7 0L71.75 0L73.79 0L75.84 0L77.89 0L79.94 0L81.99 0L84.03 0L84.12 0L84.21 0.01L84.3 0.02L84.38 0.03L84.47 0.05L84.55 0.07L84.64 0.1L84.72 0.13L84.8 0.16L84.88 0.2L84.95 0.24L85.03 0.28L85.1 0.33L85.18 0.38L85.25 0.43L85.32 0.49L85.38 0.54L85.45 0.6L85.51 0.67L85.57 0.73L85.63 0.8L85.68 0.87L85.73 0.94L85.78 1.01L85.83 1.09L85.88 1.17L85.92 1.25L85.96 1.33L85.99 1.41L86.03 1.49L86.06 1.58L86.08 1.66L86.11 1.75L86.13 1.83L86.14 1.92L86.16 2.01L86.17 2.1L86.17 2.19L86.17 2.28L86.17 2.37L86.17 2.89L86.17 3.42L86.17 3.94L86.17 4.46L86.17 4.98L86.17 5.51L86.17 6.03L86.17 6.55L86.17 7.08L86.17 7.6L86.17 8.12L86.17 8.64L86.17 9.17L86.17 9.69L86.17 10.21L86.17 10.74L86.17 11.26L86.17 11.78L86.17 12.3L86.17 13.35L86.17 13.87L86.17 14.4L86.17 14.92L86.17 15.44L86.17 15.96L86.17 16.49L86.17 17.01L86.17 17.53L86.17 18.06L86.17 18.58L86.17 19.1L86.17 19.63L86.17 20.15L86.17 20.67L86.17 21.19L86.17 21.72L86.18 22.24L86.18 22.76L86.18 23.29L86.48 23.29L86.79 23.29L87.1 23.28L87.41 23.28L87.72 23.28L88.03 23.28L88.34 23.28L88.65 23.28L88.96 23.28L89.26 23.28L89.57 23.29L89.88 23.29L90.19 23.29L90.5 23.29L90.81 23.29L91.43 23.29L91.74 23.29L92.05 23.29L92.35 23.29L92.66 23.29L92.97 23.29L93.28 23.29L93.59 23.29L93.9 23.29L94.21 23.29L94.52 23.29L94.83 23.29L95.14 23.29L95.44 23.29L95.75 23.29L96.06 23.29L96.37 23.29L96.68 23.29L96.99 23.29L97.3 23.28L97.61 23.28L97.92 23.28L98.23 23.28L98.53 23.28L98.58 23.28L98.63 23.28L98.68 23.28L98.73 23.28L98.78 23.29L98.83 23.3L98.87 23.3L98.92 23.31L98.97 23.33L99.01 23.34L99.06 23.36L99.11 23.37L99.15 23.39L99.2 23.41L99.24 23.44L99.28 23.46L99.32 23.49L99.37 23.51L99.41 23.54L99.44 23.57L99.48 23.6L99.52 23.63L99.56 23.67L99.59 23.7L99.62 23.74L99.66 23.78L99.69 23.81L99.72 23.85L99.75 23.89L99.77 23.94L99.8 23.98L99.82 24.02L99.84 24.07L99.86 24.11L99.88 24.16L99.9 24.21L99.91 24.25L99.92 24.3L99.93 24.35L99.94 24.4L99.95 24.44L99.95 24.48L99.96 24.53L99.96 24.57L99.97 24.61L99.97 24.65L99.98 24.69L99.98 24.73L99.98 24.77L99.99 24.81L99.99 24.86L99.99 24.9L99.99 24.94L99.99 24.98L100 25.02L100 25.06L100 25.1L100 25.15L100 25.19L100 25.23L100 25.27L100 25.31L100 25.35L100 25.39L100 25.44L100 25.48L100 25.52L100 25.56L100 25.6L100 25.68L100 25.72L100 25.77L100 25.81L100 25.85L100 25.89L100 25.93L100 25.97L100 26.01L100 26.06L100 27.15L100 28.23L100 29.32L100 30.41L100 31.5L100 32.59L100 33.68L100 34.77L100 35.86L100 36.95L100 38.04L100 39.13L100 40.22L100 41.3L100 42.39L100 43.48L100 44.57L100 45.66L100 46.75L100 47.84L100 48.93L100 50.02L100 51.11L100 52.2L100 53.29L100 54.37L100 55.46L100 56.55L100 57.64L100 58.73L100 59.82L100 60.91L100 62L100 63.09L100 64.18L99.99 65.27L99.99 66.36L99.99 67.44L99.99 68.53L99.99 69.62L100 69.67L100 69.72L100 69.77L100 69.83L100 69.88L99.99 69.93L99.99 69.98L99.98 70.03L99.97 70.08L99.96 70.13L99.95 70.17L99.94 70.22L99.92 70.27L99.91 70.32L99.89 70.37L99.87 70.41L99.85 70.46L99.83 70.5L99.81 70.55L99.78 70.59L99.76 70.63L99.73 70.68L99.7 70.72L99.67 70.76L99.64 70.79L99.61 70.83L99.58 70.87L99.55 70.9L99.51 70.94L99.47 70.97L99.44 71L99.4 71.03L99.36 71.06L99.32 71.09L99.28 71.11L99.23 71.14L99.19 71.16L99.14 71.18L99.1 71.2L99.05 71.22L99.01 71.23L98.97 71.23L98.93 71.24L98.89 71.24L98.85 71.25L98.81 71.25L98.77 71.26L98.73 71.26L98.7 71.26L98.66 71.27L98.62 71.27L98.58 71.27L98.54 71.27L98.5 71.27L98.46 71.27L98.42 71.27L98.38 71.28L98.34 71.28L98.3 71.28L98.26 71.28L98.22 71.27L98.18 71.27L98.14 71.27L98.1 71.27L98.06 71.27L98.02 71.27L97.94 71.27L97.9 71.27L97.86 71.27L97.82 71.27L97.78 71.27L97.74 71.27L97.7 71.27L97.66 71.27L97.62 71.27L97.58 71.27L97.54 71.27L97.51 71.27L97.47 71.27L96.68 71.27L95.9 71.27L95.11 71.27L94.33 71.27L93.54 71.27L92.76 71.27L91.98 71.27L91.19 71.27L90.41 71.27L89.62 71.27L88.84 71.27L88.05 71.27L87.27 71.27L86.49 71.27L85.7 71.27L84.13 71.27L83.35 71.27L82.57 71.27L81.78 71.27L81 71.27L80.21 71.27L79.43 71.27L78.64 71.27L77.86 71.27L77.08 71.27L76.29 71.27L75.51 71.27L74.72 71.27L73.94 71.27L73.15 71.27L72.37 71.27L71.59 71.27L70.8 71.27L70.02 71.27L69.23 71.27L68.45 71.27L67.66 71.27L66.88 71.27L66.1 71.27L66.06 71.27L66.03 71.27L65.99 71.27L65.96 71.27L65.92 71.27L65.89 71.27L65.85 71.27L65.82 71.27L65.78 71.27L65.75 71.27L65.67 71.27L65.64 71.27L65.6 71.27L65.57 71.28L65.53 71.28L65.5 71.28L65.46 71.28L65.42 71.28L65.39 71.28L65.35 71.27L65.32 71.27L65.28 71.27L65.25 71.27L65.21 71.27L65.18 71.26L65.14 71.26L65.11 71.25L65.08 71.24L65.04 71.24L65.01 71.23L64.97 71.22L64.94 71.21L64.91 71.2L64.88 71.19L64.84 71.17L64.81 71.16L64.78 71.14L64.75 71.12L64.72 71.11L64.68 71.09L64.65 71.07L64.62 71.05L64.59 71.02L64.56 71L64.53 70.98L64.5 70.95L64.47 70.93L64.44 70.9L64.41 70.87L64.39 70.85L64.36 70.82L64.34 70.79L64.32 70.76L64.29 70.73L64.27 70.69L64.25 70.66L64.23 70.63L64.21 70.6L64.19 70.56L64.18 70.53L64.16 70.49L64.14 70.46L64.13 70.42L64.11 70.39L64.1 70.35L64.09 70.31L64.08 70.28L64.07 70.24L64.06 70.2L64.05 70.16L64.04 70.13L64.04 70.09L64.03 70.05L64.03 70.01L64.03 69.97L64.02 69.93L64.02 69.9L64.02 69.86L64.02 69.82L64.02 69.6L64.02 69.38L64.02 69.17L64.02 68.95L64.02 68.73L64.02 68.52L64.02 68.3L64.02 68.09L64.02 67.87L64.02 67.65L64.02 67.44L64.02 67.22L64.02 67L64.02 66.79L64.02 66.57L64.02 66.35L64.02 66.14L64.02 65.92L64.02 65.7L64.02 65.49L64.02 65.27L64.02 65.05L64.02 64.84L64.02 64.62L64.02 64.4L64.02 64.19L64.02 63.97L64.02 63.75L64.02 63.54L64.02 63.32L64.02 63.1L64.02 62.89L64.02 62.67L64.03 62.46L64.03 62.24L64.03 62.02L64.03 61.81L64.03 61.59L64.03 61.37L64.03 61.16L63.75 61.16L63.47 61.15L63.2 61.15L62.92 61.15L62.64 61.15L62.36 61.15L62.09 61.15L61.81 61.15L61.53 61.15L61.26 61.15L60.98 61.15L60.7 61.15L60.42 61.15L60.15 61.15L59.87 61.15L59.59 61.15L59.31 61.15L59.04 61.15L58.76 61.15L58.48 61.15L58.21 61.15L57.93 61.15L57.65 61.15L57.37 61.15L57.1 61.15L56.82 61.15L56.54 61.15L56.27 61.15L55.99 61.15L55.71 61.15L55.43 61.15L55.16 61.15L54.88 61.15L54.6 61.15L54.33 61.15L54.05 61.15L53.49 61.16L52.94 61.16L52.97 61.36L53 61.56L53.04 61.76L53.07 61.96L53.1 62.16L53.13 62.36L53.16 62.56L53.2 62.76L53.23 62.96L53.26 63.16L53.29 63.36L53.32 63.56L53.35 63.76L53.39 63.96L53.42 64.16L53.45 64.36L53.48 64.56L53.51 64.76L53.54 64.96L53.57 65.17L53.61 65.37L53.64 65.57L53.67 65.77L53.7 65.97L53.73 66.17L53.83 66.77L53.86 66.97L53.89 67.17L53.92 67.37L53.95 67.57L53.98 67.77L54.02 67.97L54.05 68.17L54.08 68.37L54.11 68.57L54.14 68.77L54.17 68.97L54.21 69.17L54.3 69.2L54.39 69.22L54.48 69.25L54.57 69.27L54.66 69.29L54.75 69.32L54.85 69.34L54.94 69.36L55.03 69.39L55.12 69.41L55.21 69.43L55.3 69.46L55.39 69.48L55.48 69.51L55.58 69.53L55.76 69.58L55.94 69.62L56.03 69.65L56.22 69.69L56.58 69.79L56.67 69.81L56.86 69.86L56.95 69.88L57.13 69.93L57.31 69.98L57.41 70L57.5 70.02L57.59 70.05L57.68 70.07L57.77 70.09L57.86 70.12L57.86 70.2L57.86 70.29L57.86 70.38L57.86 70.46L57.86 70.55L57.86 70.6L57.86 70.75L57.86 70.86L57.87 70.92L57.87 71.09L57.87 71.24L57.87 71.27L57.13 71.27L56.39 71.27L55.65 71.27L54.91 71.27L54.17 71.27L53.43 71.27L52.7 71.27L51.96 71.27L51.22 71.27L50.48 71.27L49.74 71.27L49 71.27L48.26 71.27L47.52 71.27L46.79 71.27L46.05 71.27L45.31 71.27L44.57 71.27L43.83 71.27L43.09 71.27L42.35 71.27L41.61 71.27L40.88 71.27L40.14 71.27L39.4 71.27L38.66 71.27L37.92 71.27L37.18 71.27L36.44 71.27L35.7 71.27L34.96 71.27L34.23 71.27L33.49 71.27L32.75 71.27L32.01 71.27L31.27 71.27L30.53 71.27L29.79 71.27L28.32 71.27L28.32 70.1L28.41 70.08L28.5 70.06L28.59 70.04L28.68 70.01L28.77 69.99L28.86 69.97L28.95 69.94L29.04 69.92L29.13 69.9L29.22 69.87L29.31 69.85L29.4 69.83L29.49 69.8L29.58 69.78L29.67 69.76L29.94 69.69L30.12 69.64L30.21 69.62L30.3 69.59L30.39 69.57L30.49 69.55L30.58 69.52L30.67 69.5L30.76 69.48L30.85 69.46L30.94 69.43L31.03 69.41L31.12 69.39L31.21 69.36L31.3 69.34L31.39 69.32L31.48 69.3L31.57 69.27L31.66 69.25L31.75 69.23L31.84 69.21L31.93 69.18L31.97 68.98L32 68.78L32.03 68.58L32.06 68.38L32.1 68.18L32.13 67.98L32.16 67.78L32.19 67.58L32.23 67.38L32.26 67.18L32.29 66.98L32.32 66.78L32.35 66.58L32.39 66.38L32.42 66.17L32.45 65.97L32.48 65.77L32.51 65.57L32.54 65.37L32.57 65.17L32.61 64.97L32.64 64.77L32.67 64.57L32.7 64.37L32.73 64.17L32.76 63.97L32.79 63.77L32.82 63.57L32.86 63.37L32.89 63.16L32.92 62.96L32.95 62.76L32.98 62.56L33.01 62.36L33.05 62.16L33.08 61.96L33.11 61.76L33.14 61.56L33.18 61.36L33.21 61.16L32.44 61.16L31.66 61.16L30.89 61.16L30.12 61.16L29.35 61.16L28.57 61.15L27.8 61.15L27.03 61.15L26.25 61.15L25.48 61.15L24.71 61.15L23.94 61.15L23.16 61.15L22.39 61.15L21.62 61.15L20.85 61.15L20.07 61.15L19.3 61.15L18.53 61.15L17.76 61.15L16.98 61.15L16.21 61.15L15.44 61.15L14.66 61.15L13.89 61.15L13.12 61.15L12.35 61.15L11.57 61.15L10.8 61.15L10.03 61.15L9.26 61.15L8.48 61.15L7.71 61.15L6.94 61.15L6.16 61.15L5.39 61.15L4.62 61.15L3.85 61.15L3.07 61.15L2.3 61.15L2.24 61.15L2.17 61.15L2.11 61.15L2.05 61.14L1.99 61.14L1.92 61.13L1.86 61.12L1.8 61.1L1.74 61.09L1.68 61.07L1.62 61.06L1.56 61.04L1.5 61.02L1.44 60.99L1.38 60.97L1.32 60.94L1.26 60.92L1.21 60.89L1.15 60.86L1.1 60.82L1.04 60.79L0.99 60.76L0.94 60.72L0.89 60.68L0.84 60.64L0.79 60.6L0.74 60.56L0.69 60.52L0.65 60.47L0.6 60.42L0.56 60.38L0.52 60.33L0.48 60.28L0.44 60.23L0.4 60.17L0.37 60.12L0.33 60.07L0.3 60.01L0.27 59.95L0.24 59.9L0.21 59.85L0.19 59.81L0.17 59.76L0.15 59.72L0.14 59.67L0.12 59.63L0.1 59.58L0.09 59.53L0.08 59.49L0.07 59.44L0.06 59.39L0.05 59.34L0.04 59.29L0.03 59.25L0.03 59.2L0.02 59.15L0.02 59.1L0.01 59.05L0.01 59L0.01 58.95L0 58.9L0 58.85L0 58.8L0 58.76L0 58.71L0 58.66L0 58.61L0 58.56L0 58.51L0 58.46L0 58.41L0 58.36L0.01 58.31L0.01 58.26L0.01 58.21L0.01 58.16L0.01 58.11L0.01 58.06L0.01 58.01L0 57.97L0 56.57L0.01 55.18L0.01 53.78L0.01 52.39L0.01 50.99L0.01 49.6L0.01 48.2L0.01 46.81L0.01 45.41L0.01 44.02L0.01 42.62L0.01 41.23L0.01 39.83L0.01 38.44L0.01 37.04L0.01 35.65L0.01 34.25L0.01 32.86L0.01 31.46L0.01 30.07L0.01 28.67L0.01 27.28L0.01 25.88L0.01 24.49L0.01 23.09L0.01 21.7L0.01 20.3L0.01 18.91L0.01 17.51L0.01 16.12L0.01 14.72L0.01 13.33L0.01 11.94L0.01 10.54L0.01 9.15L0.01 7.75L0.01 6.36L0.01 4.96L0 3.57L0 2.17L0.01 2.09L0.01 2L0.02 1.92L0.04 1.83L0.05 1.75L0.07 1.67L0.09 1.59L0.12 1.51L0.15 1.43L0.18 1.35L0.22 1.27L0.26 1.2L0.3 1.13L0.34 1.05L0.38 0.98L0.43 0.92L0.48 0.85L0.54 0.78L0.59 0.72L0.65 0.66L0.71 0.6L0.77 0.54L0.83 0.49L0.9 0.44L0.97 0.39L1.04 0.34L1.11 0.3L1.18 0.25L1.25 0.22L1.32 0.18L1.4 0.15L1.48 0.12L1.56 0.09L1.63 0.07L1.71 0.05L1.79 0.03L1.88 0.02L1.96 0.01L2.04 0L2.12 0L4.17 0L6.22 0ZM81.05 68.13L80.94 68.6L81.07 69.08L81.46 69.51L82 69.65L82.55 69.51L82.93 69.07L83.05 68.47L82.82 67.92L82.35 67.55L81.76 67.52L81.33 67.74L81.05 68.13ZM67.92 30.22L67.92 31.71L67.92 33.19L67.92 34.68L67.92 36.16L67.92 37.65L67.92 39.14L67.92 40.62L67.92 42.11L67.92 43.6L67.92 45.08L67.92 46.57L67.92 48.06L67.92 49.54L67.92 51.03L67.92 52.51L67.92 54L67.92 55.49L67.92 56.97L67.92 58.46L67.92 59.95L67.92 61.43L67.92 62.92L67.92 64.41L67.92 65.89L69.01 65.89L70.09 65.89L71.17 65.89L72.26 65.89L73.34 65.89L74.43 65.89L75.51 65.89L76.59 65.89L77.68 65.89L78.76 65.89L79.84 65.89L80.93 65.89L82.01 65.89L83.09 65.89L84.18 65.89L85.26 65.89L87.43 65.89L88.51 65.89L89.6 65.89L90.68 65.89L91.76 65.89L92.85 65.89L93.93 65.89L95.01 65.89L96.1 65.89L96.1 27.25L95.01 27.25L93.93 27.25L92.85 27.25L91.76 27.25L90.68 27.25L89.6 27.25L88.51 27.25L87.43 27.25L86.34 27.25L85.26 27.25L84.18 27.25L83.09 27.25L82.01 27.25L80.93 27.25L79.84 27.25L78.76 27.25L77.68 27.25L76.59 27.25L75.51 27.25L74.42 27.25L73.34 27.25L72.26 27.25L71.17 27.25L70.09 27.25L69.01 27.25L67.92 27.25L67.92 28.73L67.92 30.22ZM41.24 54.89L41.21 55.9L41.72 56.79L42.58 57.31L43.57 57.29L44.44 56.78L44.93 55.88L44.92 54.87L44.41 54.02L43.58 53.51L42.61 53.5L41.73 54L41.24 54.89ZM77.31 4.78L75.4 4.78L73.5 4.79L71.59 4.79L69.68 4.79L67.78 4.79L65.87 4.79L63.97 4.79L62.06 4.79L60.15 4.79L58.25 4.79L56.34 4.79L54.44 4.79L52.53 4.79L50.62 4.79L48.72 4.78L46.81 4.78L44.9 4.78L43 4.78L41.09 4.78L39.19 4.78L37.28 4.78L35.37 4.78L33.47 4.78L31.56 4.78L29.66 4.78L27.75 4.78L25.84 4.78L23.94 4.78L22.03 4.78L20.13 4.79L18.22 4.79L16.31 4.79L14.41 4.79L12.5 4.79L10.6 4.79L8.69 4.79L6.78 4.79L4.88 4.79L4.88 5.9L4.88 7.02L4.88 8.13L4.88 9.25L4.88 10.36L4.88 11.48L4.88 12.59L4.88 13.71L4.88 14.82L4.88 15.94L4.88 17.05L4.88 18.17L4.88 19.28L4.88 20.4L4.88 21.51L4.88 22.63L4.88 23.74L4.88 24.86L4.88 25.97L4.88 27.09L4.88 28.21L4.88 29.32L4.88 30.44L4.88 31.55L4.88 32.67L4.88 33.78L4.88 34.9L4.88 36.01L4.88 37.13L4.88 38.24L4.88 39.36L4.88 40.47L4.88 42.7L4.88 43.82L4.88 44.93L4.88 46.05L4.88 47.16L4.88 48.28L4.88 49.39L6.36 49.39L7.84 49.39L9.31 49.39L10.79 49.39L12.27 49.39L13.75 49.39L15.23 49.4L16.71 49.4L18.19 49.4L19.66 49.4L21.14 49.4L22.62 49.4L24.1 49.4L25.58 49.4L27.06 49.4L28.54 49.4L30.02 49.4L31.49 49.4L32.97 49.4L34.45 49.4L35.93 49.4L37.41 49.4L38.89 49.4L40.37 49.4L41.84 49.4L43.32 49.4L44.8 49.4L46.28 49.4L47.76 49.4L49.24 49.4L50.72 49.4L52.2 49.4L53.67 49.4L56.63 49.39L58.11 49.39L59.59 49.39L61.07 49.39L62.55 49.39L64.02 49.39L64.02 48.78L64.02 48.16L64.02 47.55L64.02 46.93L64.02 46.32L64.02 45.7L64.02 45.08L64.02 44.47L64.02 43.85L64.02 43.24L64.02 42.62L64.02 42.01L64.02 41.39L64.02 40.78L64.02 40.16L64.02 39.54L64.02 38.93L64.02 38.31L64.02 37.7L64.02 37.08L64.02 36.47L64.02 35.85L64.02 35.24L64.02 34.62L64.02 34L64.02 33.39L64.02 32.77L64.02 32.16L64.02 31.54L64.02 30.93L64.02 30.31L64.02 29.7L64.02 29.08L64.02 28.46L64.02 27.85L64.02 27.23L64.02 26.62L64.02 26L64.02 24.77L64.02 24.71L64.02 24.66L64.02 24.6L64.03 24.54L64.04 24.48L64.05 24.43L64.06 24.37L64.07 24.32L64.09 24.26L64.11 24.21L64.13 24.15L64.15 24.1L64.18 24.05L64.2 24L64.23 23.95L64.26 23.9L64.29 23.86L64.33 23.81L64.36 23.76L64.4 23.72L64.44 23.68L64.48 23.64L64.52 23.6L64.56 23.57L64.6 23.53L64.65 23.5L64.7 23.47L64.74 23.44L64.79 23.41L64.84 23.39L64.89 23.37L64.94 23.35L65 23.33L65.05 23.32L65.11 23.31L65.16 23.3L65.22 23.29L65.27 23.29L65.33 23.28L65.39 23.29L65.78 23.29L66.17 23.29L66.57 23.29L66.96 23.29L67.35 23.29L67.75 23.29L68.14 23.29L68.53 23.29L68.93 23.29L69.32 23.29L69.71 23.29L70.11 23.29L70.5 23.29L70.9 23.28L71.29 23.28L71.68 23.28L72.08 23.28L72.47 23.28L72.86 23.28L73.26 23.28L73.65 23.28L74.04 23.28L74.44 23.28L74.83 23.28L75.22 23.28L75.62 23.28L76.01 23.28L76.4 23.28L77.98 23.29L78.37 23.29L78.76 23.29L79.16 23.29L79.55 23.29L79.94 23.29L80.34 23.29L80.73 23.29L81.12 23.29L81.12 22.82L81.12 22.36L81.12 21.9L81.12 21.44L81.12 20.97L81.12 20.51L81.12 20.05L81.12 19.59L81.12 19.12L81.12 18.66L81.12 18.2L81.12 17.74L81.12 17.27L81.12 15.89L81.12 15.42L81.12 14.96L81.12 14.5L81.12 14.03L81.12 13.57L81.12 13.11L81.12 12.65L81.12 12.18L81.12 11.72L81.12 11.26L81.12 10.8L81.12 10.33L81.12 9.87L81.12 9.41L81.12 8.95L81.12 8.48L81.12 8.02L81.12 7.56L81.12 7.1L81.12 6.63L81.12 6.17L81.12 5.71L81.12 5.25L81.12 4.78L79.21 4.78L77.31 4.78Z"
        id="a12LxPXcsz"></path>
    <path d="M9.63 46.84L22.33 46.84L22.33 67.12L9.63 67.12L9.63 46.84Z" id="a2eF20I1q0"></path>
    <path
        d="M12.07 42.65L12.73 42.65L13.4 42.65L14.07 42.65L14.74 42.65L15.4 42.65L16.07 42.65L16.74 42.65L17.4 42.65L18.07 42.65L18.74 42.65L19.41 42.65L20.07 42.65L20.74 42.66L21.41 42.66L22.07 42.66L22.25 42.66L22.43 42.68L22.61 42.71L22.78 42.76L22.95 42.82L23.11 42.9L23.27 42.99L23.41 43.09L23.55 43.2L23.67 43.33L23.78 43.46L23.87 43.6L23.95 43.75L24.01 43.91L24.06 44.08L24.08 44.25L24.08 44.42L24.08 45.94L24.08 47.45L24.08 48.97L24.08 50.48L24.09 52L24.08 53.51L24.08 55.03L24.08 56.55L24.08 58.06L24.08 59.58L24.08 61.09L24.08 62.61L24.08 64.12L24.08 65.64L24.09 67.15L24.09 68.67L24.09 70.18L24.1 70.35L24.09 70.52L24.07 70.68L24.03 70.84L23.97 70.99L23.89 71.14L23.81 71.29L23.7 71.42L23.59 71.55L23.47 71.66L23.33 71.77L23.19 71.86L23.03 71.94L22.87 72L22.71 72.04L22.53 72.07L22.36 72.08L21.62 72.08L20.89 72.08L20.16 72.09L19.43 72.09L18.7 72.09L17.97 72.09L17.24 72.09L16.51 72.09L15.78 72.09L15.05 72.09L14.32 72.09L13.59 72.08L12.87 72.08L12.14 72.08L11.41 72.08L10.68 72.08L9.95 72.08L9.76 72.08L9.58 72.06L9.41 72.02L9.24 71.96L9.08 71.89L8.93 71.8L8.79 71.7L8.65 71.58L8.53 71.46L8.42 71.32L8.33 71.18L8.25 71.03L8.18 70.87L8.13 70.71L8.09 70.54L8.08 70.37L8.08 70.2L8.08 68.7L8.08 67.2L8.07 65.69L8.07 64.19L8.07 62.69L8.07 61.19L8.07 59.69L8.07 58.19L8.07 56.68L8.07 55.18L8.07 53.68L8.07 52.18L8.07 50.68L8.07 49.17L8.07 47.67L8.07 46.17L8.07 44.67L8.07 44.54L8.08 44.42L8.09 44.3L8.12 44.17L8.15 44.05L8.18 43.93L8.23 43.82L8.28 43.7L8.34 43.59L8.4 43.49L8.48 43.38L8.56 43.29L8.65 43.2L8.74 43.11L8.84 43.03L8.95 42.96L9.07 42.9L9.16 42.85L9.25 42.81L9.34 42.78L9.44 42.75L9.54 42.73L9.63 42.71L9.73 42.69L9.83 42.68L9.93 42.67L10.03 42.66L10.13 42.66L10.23 42.66L10.33 42.65L10.43 42.65L10.53 42.65L10.63 42.65L10.73 42.65L11.4 42.65L12.07 42.65ZM15.1 68.8L14.83 69.35L14.86 69.95L15.21 70.47L15.84 70.81L16.55 70.74L17.14 70.34L17.41 69.71L17.3 69.09L16.88 68.6L16.27 68.35L15.62 68.44L15.1 68.8ZM20.24 47.12L19.2 47.12L18.16 47.12L17.12 47.12L16.08 47.12L15.04 47.12L14 47.12L12.96 47.12L11.92 47.12L10.88 47.13L9.84 47.13L9.84 48.79L9.84 50.45L9.84 52.12L9.84 53.78L9.84 55.44L9.84 57.1L9.84 58.77L9.84 60.43L9.84 62.09L9.84 63.75L9.84 65.42L9.84 67.08L10.88 67.08L11.92 67.08L12.96 67.08L14 67.08L15.04 67.08L16.08 67.08L17.12 67.08L18.16 67.08L20.24 67.08L21.28 67.08L22.32 67.08L22.32 65.42L22.32 63.75L22.32 62.09L22.32 60.43L22.32 58.76L22.32 57.1L22.32 55.44L22.32 53.77L22.32 52.11L22.32 50.45L22.32 48.78L22.32 47.12L21.28 47.12L20.24 47.12Z"
        id="a1IZVa5MZa"></path>
    <path
        d="M44.93 55.88C44.65 57.32 42.67 57.9 41.72 56.79C40.66 55.8 41.22 53.8 42.61 53.5C43.93 53.09 45.33 54.51 44.93 55.88Z"
        id="b2UHFIvuM9"></path>
    <path
        d="M82.93 69.07C82.6 69.85 81.41 69.84 81.07 69.08C80.72 68.48 81.12 67.67 81.76 67.52C82.57 67.27 83.39 68.32 82.93 69.07Z"
        id="a8jQDQ1uMV"></path>
    <path
        d="M17.39 69.78C17.33 70.75 15.88 71.3 15.18 70.54C14.48 69.97 14.73 68.8 15.59 68.51C16.43 68.11 17.52 68.91 17.39 69.78Z"
        id="bN2U1IGQe"></path>
    <path
        d="M31.87 9.22C31.86 14.78 31.91 20.35 31.84 25.91C24.27 25.82 16.7 25.94 9.13 25.85C9.13 20.3 9.13 14.76 9.13 9.22C16.71 9.2 24.29 9.2 31.87 9.22Z"
        id="apGWrlT9u"></path>
    <path
        d="M81.31 30.55C81.29 31.51 81.31 32.48 81.3 33.45C77.74 33.44 74.18 33.46 70.63 33.44C70.62 32.47 70.62 31.5 70.63 30.54C74.19 30.53 77.75 30.51 81.31 30.55Z"
        id="c1yTNH7DYH"></path>
    <path
        d="M77.32 46.85C77.31 48.81 77.32 50.76 77.31 52.72C75.09 52.73 72.87 52.7 70.65 52.73C70.59 50.78 70.65 48.81 70.62 46.85C72.85 46.83 75.09 46.84 77.32 46.85Z"
        id="abR8YGpBG"></path>
    <path
        d="M85.34 46.85C85.33 48.8 85.33 50.75 85.34 52.7C83.11 52.74 80.88 52.71 78.65 52.72C78.64 50.76 78.64 48.81 78.65 46.85C80.88 46.84 83.1 46.84 85.34 46.85Z"
        id="a3DUPuOT8"></path>
    <path
        d="M93.35 46.85C93.36 48.8 93.35 50.76 93.35 52.71C91.14 52.73 88.92 52.72 86.71 52.72C86.71 50.76 86.7 48.8 86.71 46.84C88.92 46.84 91.14 46.84 93.35 46.85Z"
        id="c5JG9SCOF"></path>
    <path
        d="M16.56 49C16.55 49.53 16.54 50.06 16.54 50.59C14.69 50.59 12.85 50.6 11 50.58C10.99 50.05 10.99 49.52 10.99 49C12.85 48.98 14.7 48.97 16.56 49Z"
        id="a18guQgLEU"></path>
    <path
        d="M15.67 54.24C15.68 55.83 15.68 57.42 15.68 59C14.14 59.01 12.6 59 11.06 59.01C11.06 57.41 11.02 55.82 11.08 54.23C12.61 54.24 14.14 54.23 15.67 54.24Z"
        id="e1ktx87oo5"></path>
    <path
        d="M21.24 54.26C21.25 55.84 21.24 57.43 21.24 59.01C19.68 59.02 18.12 59.02 16.56 59.01C16.56 57.43 16.56 55.84 16.56 54.26C18.12 54.25 19.68 54.24 21.24 54.26Z"
        id="a1hRJYPvm"></path>
    <path
        d="M76.82 9.21C76.84 11.03 76.84 12.85 76.82 14.67C74.95 14.68 73.07 14.69 71.2 14.66C71.19 12.85 71.19 11.03 71.21 9.22C73.08 9.19 74.95 9.2 76.82 9.21Z"
        id="a36RdI2gqO"></path>
    <path
        d="M93.34 30.53C93.36 31.5 93.36 32.48 93.33 33.45C91.48 33.45 89.63 33.45 87.78 33.45C87.76 32.47 87.76 31.5 87.78 30.53C89.63 30.53 91.48 30.53 93.34 30.53Z"
        id="a1uuxueNJ6"></path>
    <path
        d="M93.36 54.7C93.35 55.72 93.35 56.74 93.35 57.77C85.78 57.79 78.21 57.78 70.63 57.77C70.61 56.74 70.61 55.72 70.63 54.69C78.2 54.69 85.78 54.67 93.36 54.7Z"
        id="bMPMOcD1r"></path>
    <path
        d="M93.35 59.48C93.36 60.49 93.34 61.51 93.36 62.52C90.72 62.63 88.07 62.54 85.42 62.57C81.29 62.57 77.16 62.57 73.02 62.57C72.22 62.56 71.41 62.6 70.62 62.52C70.62 61.51 70.62 60.49 70.62 59.48C78.19 59.45 85.77 59.46 93.35 59.48Z"
        id="aFfEdnYSb"></path>
    <path
        d="M21.24 60.27C21.24 60.82 21.24 61.37 21.23 61.92C17.85 61.94 14.47 61.92 11.08 61.93C11.04 61.37 11.04 60.82 11.06 60.26C14.45 60.26 17.85 60.23 21.24 60.27Z"
        id="c3JNQ5chN"></path>
    <path
        d="M21.24 62.92C21.24 63.45 21.24 63.98 21.24 64.51C19.69 64.53 18.14 64.52 16.59 64.5C16.58 63.98 16.57 63.46 16.56 62.94C18.11 62.89 19.68 62.89 21.24 62.92Z"
        id="a9OaZF4zP"></path>
    <path
        d="M15.77 27.57C15.78 29.53 15.78 31.49 15.78 33.44C13.56 33.45 11.35 33.45 9.13 33.45C9.13 31.49 9.13 29.53 9.14 27.57C11.35 27.57 13.56 27.57 15.77 27.57Z"
        id="aj62LPE1O"></path>
    <path
        d="M23.52 27.57C23.53 29.53 23.52 31.49 23.53 33.44C21.31 33.45 19.1 33.45 16.88 33.45C16.88 31.49 16.87 29.53 16.89 27.57C19.1 27.57 21.31 27.57 23.52 27.57Z"
        id="j2UvKnKL0J"></path>
    <path
        d="M31.59 27.57C31.6 29.53 31.59 31.49 31.59 33.44C29.38 33.45 27.16 33.45 24.95 33.45C24.95 31.49 24.94 29.53 24.95 27.57C27.16 27.57 29.38 27.57 31.59 27.57Z"
        id="cpzOvtm6T"></path>
  </defs>
  <g>
    <g>
      <g>
        <use xlink:href="#a12LxPXcsz" opacity="1" fill="#707385" fill-opacity="1"></use>
        <g>
          <use xlink:href="#a12LxPXcsz" opacity="1" fill-opacity="0" stroke="#000000" stroke-width="1"
               stroke-opacity="0"></use>
        </g>
      </g>
      <g>
        <use xlink:href="#a2eF20I1q0" opacity="1" fill="#ffffff" fill-opacity="1"></use>
      </g>
      <g>
        <use xlink:href="#a1IZVa5MZa" opacity="1" fill="#707385" fill-opacity="1"></use>
        <g>
          <use xlink:href="#a1IZVa5MZa" opacity="1" fill-opacity="0" stroke="#000000" stroke-width="1"
               stroke-opacity="0"></use>
        </g>
      </g>
      <g>
        <use xlink:href="#b2UHFIvuM9" opacity="1" fill="#ffffff" fill-opacity="1"></use>
        <g>
          <use xlink:href="#b2UHFIvuM9" opacity="1" fill-opacity="0" stroke="#000000" stroke-width="1"
               stroke-opacity="0"></use>
        </g>
      </g>
      <g>
        <use xlink:href="#a8jQDQ1uMV" opacity="1" fill="#ffffff" fill-opacity="1"></use>
        <g>
          <use xlink:href="#a8jQDQ1uMV" opacity="1" fill-opacity="0" stroke="#000000" stroke-width="1"
               stroke-opacity="0"></use>
        </g>
      </g>
      <g>
        <use xlink:href="#bN2U1IGQe" opacity="1" fill="#ffffff" fill-opacity="1"></use>
        <g>
          <use xlink:href="#bN2U1IGQe" opacity="1" fill-opacity="0" stroke="#000000" stroke-width="1"
               stroke-opacity="0"></use>
        </g>
      </g>
      <g>
        <use xlink:href="#apGWrlT9u" opacity="1" fill="#00aff0" fill-opacity="1"></use>
        <g>
          <use xlink:href="#apGWrlT9u" opacity="1" fill-opacity="0" stroke="#000000" stroke-width="1"
               stroke-opacity="0"></use>
        </g>
      </g>
      <g>
        <use xlink:href="#c1yTNH7DYH" opacity="1" fill="#bdbec0" fill-opacity="1"></use>
        <g>
          <use xlink:href="#c1yTNH7DYH" opacity="1" fill-opacity="0" stroke="#000000" stroke-width="1"
               stroke-opacity="0"></use>
        </g>
      </g>
      <g>
        <use xlink:href="#abR8YGpBG" opacity="1" fill="#bdbec0" fill-opacity="1"></use>
        <g>
          <use xlink:href="#abR8YGpBG" opacity="1" fill-opacity="0" stroke="#000000" stroke-width="1"
               stroke-opacity="0"></use>
        </g>
      </g>
      <g>
        <use xlink:href="#a3DUPuOT8" opacity="1" fill="#0166bb" fill-opacity="1"></use>
        <g>
          <use xlink:href="#a3DUPuOT8" opacity="1" fill-opacity="0" stroke="#000000" stroke-width="1"
               stroke-opacity="0"></use>
        </g>
      </g>
      <g>
        <use xlink:href="#c5JG9SCOF" opacity="1" fill="#ff2e12" fill-opacity="1"></use>
        <g>
          <use xlink:href="#c5JG9SCOF" opacity="1" fill-opacity="0" stroke="#000000" stroke-width="1"
               stroke-opacity="0"></use>
        </g>
      </g>
      <g>
        <use xlink:href="#a18guQgLEU" opacity="1" fill="#bdbec0" fill-opacity="1"></use>
        <g>
          <use xlink:href="#a18guQgLEU" opacity="1" fill-opacity="0" stroke="#000000" stroke-width="1"
               stroke-opacity="0"></use>
        </g>
      </g>
      <g>
        <use xlink:href="#e1ktx87oo5" opacity="1" fill="#0166bb" fill-opacity="1"></use>
        <g>
          <use xlink:href="#e1ktx87oo5" opacity="1" fill-opacity="0" stroke="#000000" stroke-width="1"
               stroke-opacity="0"></use>
        </g>
      </g>
      <g>
        <use xlink:href="#a1hRJYPvm" opacity="1" fill="#ff2e12" fill-opacity="1"></use>
        <g>
          <use xlink:href="#a1hRJYPvm" opacity="1" fill-opacity="0" stroke="#000000" stroke-width="1"
               stroke-opacity="0"></use>
        </g>
      </g>
      <g>
        <use xlink:href="#a36RdI2gqO" opacity="1" fill="#dbdcde" fill-opacity="1"></use>
        <g>
          <use xlink:href="#a36RdI2gqO" opacity="1" fill-opacity="0" stroke="#000000" stroke-width="1"
               stroke-opacity="0"></use>
        </g>
      </g>
      <g>
        <use xlink:href="#a1uuxueNJ6" opacity="1" fill="#dbdcde" fill-opacity="1"></use>
        <g>
          <use xlink:href="#a1uuxueNJ6" opacity="1" fill-opacity="0" stroke="#000000" stroke-width="1"
               stroke-opacity="0"></use>
        </g>
      </g>
      <g>
        <use xlink:href="#bMPMOcD1r" opacity="1" fill="#dbdcde" fill-opacity="1"></use>
        <g>
          <use xlink:href="#bMPMOcD1r" opacity="1" fill-opacity="0" stroke="#000000" stroke-width="1"
               stroke-opacity="0"></use>
        </g>
      </g>
      <g>
        <use xlink:href="#aFfEdnYSb" opacity="1" fill="#dbdcde" fill-opacity="1"></use>
        <g>
          <use xlink:href="#aFfEdnYSb" opacity="1" fill-opacity="0" stroke="#000000" stroke-width="1"
               stroke-opacity="0"></use>
        </g>
      </g>
      <g>
        <use xlink:href="#c3JNQ5chN" opacity="1" fill="#dbdcde" fill-opacity="1"></use>
        <g>
          <use xlink:href="#c3JNQ5chN" opacity="1" fill-opacity="0" stroke="#000000" stroke-width="1"
               stroke-opacity="0"></use>
        </g>
      </g>
      <g>
        <use xlink:href="#a9OaZF4zP" opacity="1" fill="#dadbdd" fill-opacity="1"></use>
        <g>
          <use xlink:href="#a9OaZF4zP" opacity="1" fill-opacity="0" stroke="#000000" stroke-width="1"
               stroke-opacity="0"></use>
        </g>
      </g>
      <g>
        <use xlink:href="#aj62LPE1O" opacity="1" fill="#bdbec0" fill-opacity="1"></use>
        <g>
          <use xlink:href="#aj62LPE1O" opacity="1" fill-opacity="0" stroke="#000000" stroke-width="1"
               stroke-opacity="0"></use>
        </g>
      </g>
      <g>
        <use xlink:href="#j2UvKnKL0J" opacity="1" fill="#0166bb" fill-opacity="1"></use>
        <g>
          <use xlink:href="#j2UvKnKL0J" opacity="1" fill-opacity="0" stroke="#000000" stroke-width="1"
               stroke-opacity="0"></use>
        </g>
      </g>
      <g>
        <use xlink:href="#cpzOvtm6T" opacity="1" fill="#ff2e12" fill-opacity="1"></use>
        <g>
          <use xlink:href="#cpzOvtm6T" opacity="1" fill-opacity="0" stroke="#000000" stroke-width="1"
               stroke-opacity="0"></use>
        </g>
      </g>
    </g>
  </g>
</svg>