<?xml version="1.0" encoding="UTF-8" standalone="no"?>
<!DOCTYPE svg PUBLIC "-//W3C//DTD SVG 1.1//EN" "http://www.w3.org/Graphics/SVG/1.1/DTD/svg11.dtd">
<svg version="1.1" xmlns="http://www.w3.org/2000/svg" xmlns:xlink="http://www.w3.org/1999/xlink"
     preserveAspectRatio="xMidYMid meet" viewBox="0 0 100 100" width="80" height="80">
  <defs>
    <path
        d="M50.38 0.18L50.57 0.19L50.75 0.2L50.94 0.21L51.13 0.22L51.32 0.24L51.5 0.26L51.69 0.28L51.87 0.3L52.06 0.32L52.25 0.35L52.43 0.38L52.62 0.41L52.8 0.45L52.99 0.49L53.17 0.52L53.36 0.57L53.54 0.61L53.73 0.65L54.62 0.86L55.51 1.07L56.4 1.27L57.3 1.48L58.19 1.68L59.08 1.88L59.97 2.08L60.87 2.28L61.76 2.49L62.66 2.69L63.55 2.88L64.44 3.08L65.34 3.28L66.23 3.48L67.13 3.68L68.02 3.88L68.92 4.08L69.81 4.27L70.7 4.47L71.6 4.67L72.49 4.87L73.39 5.06L74.28 5.26L75.18 5.46L76.07 5.66L76.97 5.86L77.86 6.06L78.75 6.26L79.65 6.46L80.54 6.66L81.44 6.86L82.33 7.07L83.22 7.27L84.12 7.47L85.01 7.68L85.9 7.89L86.79 8.09L87.69 8.3L88.58 8.51L89.47 8.72L89.52 9.45L89.57 10.18L89.61 10.91L89.65 11.64L89.69 12.36L89.72 13.09L89.74 13.82L89.77 14.55L89.79 15.28L89.81 16.01L89.82 16.74L89.83 17.47L89.84 18.2L89.85 18.93L89.85 19.66L89.86 20.39L89.86 21.12L89.86 21.84L89.86 22.57L89.85 23.3L89.85 24.03L89.84 24.76L89.84 25.49L89.83 26.22L89.83 26.95L89.82 27.68L89.81 28.41L89.81 29.14L89.8 29.87L89.8 30.6L89.79 31.33L89.79 32.06L89.79 32.79L89.79 33.52L89.79 34.25L89.8 34.98L89.8 35.71L89.81 36.44L89.82 37.17L89.83 37.9L89.85 38.65L89.85 39.4L89.86 40.16L89.85 40.91L89.85 41.67L89.83 42.42L89.82 43.18L89.79 43.93L89.76 44.69L89.73 45.45L89.69 46.2L89.64 46.96L89.58 47.71L89.52 48.47L89.45 49.22L89.37 49.97L89.29 50.72L89.2 51.47L89.1 52.22L88.99 52.97L88.87 53.71L88.74 54.46L88.61 55.2L88.46 55.94L88.31 56.68L88.14 57.41L87.97 58.14L87.79 58.87L87.59 59.6L87.39 60.33L87.17 61.05L86.95 61.77L86.71 62.48L86.46 63.19L86.2 63.9L85.93 64.61L85.65 65.31L85.35 66.01L85.04 66.7L84.72 67.39L84.24 68.41L83.73 69.41L83.2 70.4L82.66 71.37L82.09 72.33L81.5 73.28L80.9 74.21L80.27 75.13L79.63 76.03L78.97 76.92L78.29 77.8L77.6 78.67L76.89 79.52L76.17 80.37L75.43 81.2L74.68 82.01L73.91 82.82L73.13 83.62L72.34 84.4L71.54 85.17L70.73 85.94L69.9 86.69L69.07 87.43L68.22 88.16L67.37 88.88L66.5 89.6L65.63 90.3L64.75 90.99L63.87 91.68L62.97 92.35L62.08 93.02L61.17 93.68L60.26 94.33L59.35 94.97L58.44 95.61L57.52 96.23L56.59 96.85L55.67 97.47L54.74 98.07L53.81 98.67L53.64 98.8L53.47 98.91L53.29 99.02L53.11 99.13L52.93 99.23L52.74 99.32L52.55 99.41L52.36 99.49L52.17 99.57L51.97 99.64L51.77 99.7L51.58 99.76L51.38 99.81L51.17 99.86L50.97 99.9L50.77 99.93L50.57 99.96L50.36 99.98L50.16 99.99L49.95 100L49.75 100L49.54 99.99L49.34 99.98L49.13 99.97L48.93 99.94L48.73 99.91L48.53 99.87L48.32 99.83L48.13 99.78L47.93 99.72L47.73 99.65L47.54 99.58L47.35 99.5L47.16 99.42L46.97 99.33L46.79 99.23L46.6 99.12L46.42 99.01L46.25 98.89L46.08 98.76L45.09 98.13L44.11 97.48L43.13 96.83L42.15 96.18L41.17 95.51L40.2 94.83L39.23 94.15L38.27 93.45L37.32 92.75L36.37 92.04L35.42 91.31L34.49 90.58L33.56 89.84L32.64 89.08L31.74 88.32L30.84 87.54L29.95 86.75L29.08 85.95L28.21 85.14L27.36 84.32L26.53 83.48L25.71 82.63L24.9 81.77L24.11 80.9L23.33 80.01L22.57 79.11L21.83 78.2L21.11 77.28L20.4 76.33L19.72 75.38L19.06 74.41L18.41 73.43L17.79 72.43L17.19 71.41L16.61 70.39L16.05 69.34L15.52 68.28L15.02 67.2L14.54 66.11L14.08 65L13.77 64.24L13.47 63.47L13.19 62.7L12.92 61.92L12.67 61.14L12.43 60.36L12.21 59.57L12 58.78L11.8 57.99L11.62 57.19L11.45 56.4L11.29 55.6L11.15 54.79L11.01 53.99L10.89 53.18L10.77 52.37L10.67 51.56L10.57 50.75L10.49 49.94L10.41 49.12L10.34 48.31L10.28 47.49L10.23 46.67L10.18 45.85L10.14 45.03L10.11 44.21L10.08 43.39L10.05 42.57L10.04 41.74L10.02 40.92L10.01 40.1L10.01 39.28L10 38.46L10 37.64L10.01 36.82L10.01 36L10.02 35.18L10.02 34.36L10.03 33.55L10.04 32.73L10.05 32.14L10.06 31.54L10.07 30.94L10.07 30.34L10.07 29.75L10.07 29.15L10.07 28.55L10.07 27.95L10.07 27.36L10.06 26.76L10.06 26.16L10.05 25.56L10.04 24.97L10.04 24.37L10.03 23.77L10.02 23.17L10.02 22.57L10.01 21.98L10.01 21.38L10 20.78L10 20.18L10 19.59L10 18.99L10 18.39L10.01 17.79L10.02 17.2L10.03 16.6L10.04 16L10.05 15.41L10.07 14.81L10.09 14.21L10.12 13.61L10.15 13.02L10.18 12.42L10.22 11.82L10.26 11.23L10.3 10.63L10.36 10.04L10.41 9.44L10.47 8.84L11.37 8.64L12.26 8.43L13.16 8.22L14.05 8.02L14.95 7.81L15.84 7.6L16.74 7.4L17.64 7.19L18.53 6.99L19.43 6.78L20.32 6.58L21.22 6.37L22.11 6.17L23.01 5.97L23.91 5.76L24.8 5.56L25.7 5.35L26.59 5.15L27.49 4.94L28.38 4.74L29.28 4.54L30.17 4.33L31.07 4.13L31.97 3.92L32.86 3.72L33.76 3.52L34.65 3.31L35.55 3.11L36.44 2.9L37.34 2.7L38.23 2.49L39.13 2.29L40.02 2.08L40.92 1.88L41.81 1.67L42.71 1.46L43.6 1.26L44.49 1.05L45.39 0.84L46.28 0.64L46.47 0.59L46.65 0.55L46.84 0.5L47.02 0.47L47.21 0.43L47.39 0.39L47.58 0.36L47.76 0.33L47.95 0.31L48.14 0.28L48.32 0.26L48.51 0.24L48.7 0.22L48.88 0.21L49.07 0.2L49.26 0.19L49.44 0.18L49.63 0.18L49.82 0.17L50.01 0.17L50.19 0.18L50.38 0.18ZM48.34 5.72L47.46 5.88L46.59 6.04L45.71 6.21L44.84 6.37L43.96 6.55L43.09 6.72L42.21 6.9L41.34 7.09L40.47 7.27L39.59 7.46L38.72 7.65L37.85 7.85L36.98 8.04L36.11 8.24L35.24 8.44L34.37 8.64L33.5 8.84L32.63 9.05L31.76 9.25L30.89 9.46L30.02 9.66L29.15 9.87L28.28 10.07L27.41 10.28L26.54 10.49L25.67 10.69L24.8 10.9L23.93 11.1L23.06 11.31L22.19 11.51L21.32 11.71L20.45 11.91L19.58 12.1L18.71 12.3L17.84 12.49L16.97 12.68L16.1 12.87L15.22 13.06L15.26 14.16L15.29 15.27L15.31 16.38L15.32 17.49L15.33 18.59L15.33 19.7L15.33 20.81L15.32 21.92L15.3 23.04L15.29 24.15L15.27 25.26L15.25 26.37L15.23 27.48L15.21 28.59L15.19 29.71L15.17 30.82L15.15 31.93L15.13 33.04L15.12 34.15L15.12 35.26L15.11 36.38L15.12 37.49L15.13 38.6L15.14 39.71L15.17 40.81L15.2 41.92L15.24 43.03L15.3 44.13L15.36 45.24L15.43 46.34L15.52 47.45L15.62 48.55L15.73 49.65L15.86 50.75L16 51.85L16.16 52.94L16.34 54.04L16.53 55.13L16.74 56.23L16.97 57.32L17.3 58.59L17.67 59.84L18.08 61.08L18.52 62.29L19 63.48L19.51 64.66L20.06 65.81L20.63 66.95L21.24 68.07L21.88 69.16L22.55 70.25L23.24 71.31L23.96 72.36L24.71 73.39L25.48 74.4L26.27 75.39L27.09 76.38L27.93 77.34L28.79 78.29L29.67 79.22L30.57 80.14L31.48 81.04L32.41 81.93L33.36 82.81L34.32 83.67L35.3 84.52L36.29 85.35L37.29 86.17L38.3 86.98L39.32 87.78L40.34 88.56L41.38 89.33L42.42 90.09L43.47 90.84L44.52 91.58L45.57 92.31L46.63 93.02L47.69 93.73L48.75 94.43L49.81 95.11L50.73 94.51L51.66 93.9L52.59 93.28L53.52 92.66L54.45 92.03L55.37 91.4L56.29 90.75L57.21 90.1L58.12 89.45L59.03 88.78L59.93 88.11L60.83 87.43L61.72 86.74L62.61 86.04L63.48 85.33L64.35 84.61L65.2 83.88L66.05 83.14L66.89 82.39L67.71 81.63L68.52 80.86L69.32 80.08L70.11 79.28L70.88 78.48L71.64 77.66L72.38 76.83L73.11 75.98L73.82 75.12L74.51 74.25L75.18 73.37L75.84 72.47L76.47 71.55L77.09 70.63L77.68 69.68L78.26 68.72L78.81 67.75L79.34 66.76L79.84 65.75L80.32 64.73L80.78 63.69L81.18 62.75L81.54 61.81L81.89 60.86L82.21 59.91L82.5 58.95L82.77 57.99L83.02 57.03L83.25 56.06L83.46 55.09L83.65 54.11L83.82 53.13L83.97 52.15L84.11 51.16L84.23 50.17L84.34 49.18L84.43 48.19L84.51 47.19L84.58 46.2L84.63 45.2L84.68 44.2L84.71 43.2L84.74 42.19L84.76 41.19L84.77 40.18L84.78 39.18L84.78 38.17L84.77 37.17L84.77 36.16L84.76 35.15L84.75 34.15L84.73 33.14L84.72 32.14L84.71 31.13L84.7 30.13L84.7 29.13L84.69 28.13L84.7 27.13L84.7 26.14L84.72 25.14L84.74 24.15L84.73 23.87L84.72 23.59L84.71 23.31L84.71 23.02L84.71 22.74L84.71 22.46L84.72 22.17L84.72 21.89L84.73 21.6L84.74 21.32L84.75 21.03L84.76 20.75L84.77 20.46L84.78 20.18L84.79 19.89L84.8 19.61L84.81 19.32L84.81 19.03L84.82 18.75L84.83 18.46L84.83 18.18L84.83 17.89L84.83 17.61L84.83 17.32L84.83 17.04L84.82 16.76L84.81 16.47L84.8 16.19L84.78 15.91L84.76 15.63L84.73 15.35L84.7 15.07L84.67 14.79L84.63 14.51L84.58 14.24L84.53 13.96L84.47 13.69L84.41 13.41L84.34 13.14L84.27 12.87L83.42 12.67L82.57 12.47L81.72 12.27L80.86 12.07L80.01 11.87L79.16 11.67L78.31 11.48L77.46 11.28L76.61 11.08L75.75 10.88L74.9 10.68L74.05 10.48L73.2 10.29L72.34 10.09L71.49 9.89L70.64 9.7L69.78 9.5L68.93 9.31L68.08 9.12L67.22 8.92L66.37 8.73L65.52 8.55L64.66 8.36L63.81 8.17L62.95 7.98L62.1 7.8L61.24 7.62L60.39 7.44L59.53 7.26L58.68 7.08L57.82 6.91L56.96 6.73L56.11 6.56L55.25 6.39L54.39 6.22L53.53 6.06L52.68 5.9L51.82 5.74L50.96 5.58L50.1 5.42L49.22 5.57L48.34 5.72Z"
        id="buGDamVp"></path>
    <path
        d="M51.83 5.87L52.69 6.03L53.54 6.19L54.4 6.35L55.26 6.52L56.12 6.69L56.97 6.86L57.83 7.04L58.68 7.21L59.54 7.39L60.4 7.57L61.25 7.75L62.11 7.93L62.96 8.12L63.82 8.3L64.67 8.49L65.53 8.68L66.38 8.86L67.23 9.06L68.09 9.25L68.94 9.44L69.79 9.63L70.65 9.83L71.5 10.02L72.35 10.22L73.21 10.42L74.06 10.61L74.91 10.81L75.76 11.01L76.62 11.21L77.47 11.41L78.32 11.61L79.17 11.8L80.02 12L80.87 12.2L81.73 12.4L82.58 12.6L83.43 12.8L84.28 13L84.35 13.27L84.42 13.54L84.48 13.82L84.54 14.09L84.59 14.37L84.64 14.64L84.67 14.92L84.71 15.2L84.74 15.48L84.77 15.76L84.79 16.04L84.81 16.32L84.82 16.6L84.83 16.89L84.84 17.17L84.84 17.45L84.84 17.74L84.84 18.02L84.84 18.31L84.84 18.59L84.83 18.88L84.82 19.16L84.82 19.45L84.81 19.74L84.8 20.02L84.79 20.31L84.78 20.59L84.77 20.88L84.76 21.16L84.75 21.45L84.74 21.73L84.73 22.02L84.73 22.3L84.72 22.59L84.72 22.87L84.72 23.15L84.72 23.44L84.73 23.72L84.73 24L84.75 24.28L84.73 25.27L84.71 26.27L84.7 27.26L84.7 28.26L84.71 29.26L84.71 30.26L84.72 31.26L84.73 32.27L84.74 33.27L84.75 34.28L84.77 35.28L84.78 36.29L84.78 37.3L84.79 38.3L84.79 39.31L84.78 40.31L84.77 41.32L84.75 42.32L84.72 43.33L84.69 44.33L84.64 45.33L84.59 46.33L84.52 47.33L84.44 48.32L84.35 49.31L84.24 50.3L84.12 51.29L83.98 52.28L83.83 53.26L83.66 54.24L83.47 55.22L83.26 56.19L83.03 57.16L82.78 58.12L82.51 59.08L82.21 60.04L81.9 60.99L81.55 61.94L81.18 62.88L80.79 63.82L80.33 64.86L79.85 65.88L79.35 66.89L78.82 67.88L78.27 68.85L77.69 69.81L77.1 70.76L76.48 71.68L75.85 72.6L75.19 73.5L74.52 74.38L73.82 75.25L73.12 76.11L72.39 76.96L71.65 77.79L70.89 78.61L70.12 79.41L69.33 80.21L68.53 80.99L67.72 81.76L66.9 82.52L66.06 83.27L65.21 84.01L64.36 84.74L63.49 85.46L62.61 86.17L61.73 86.87L60.84 87.56L59.94 88.24L59.04 88.91L58.13 89.58L57.22 90.23L56.3 90.88L55.38 91.53L54.46 92.16L53.53 92.79L52.6 93.41L51.67 94.03L50.74 94.64L49.82 95.24L48.76 94.56L47.7 93.86L46.64 93.15L45.58 92.44L44.53 91.71L43.48 90.97L42.43 90.22L41.39 89.46L40.35 88.69L39.33 87.91L38.31 87.11L37.3 86.3L36.3 85.48L35.31 84.65L34.33 83.8L33.37 82.94L32.42 82.06L31.49 81.17L30.58 80.27L29.68 79.35L28.8 78.42L27.94 77.47L27.1 76.51L26.28 75.53L25.49 74.53L24.72 73.52L23.97 72.49L23.25 71.44L22.56 70.38L21.89 69.29L21.25 68.2L20.64 67.08L20.07 65.94L19.52 64.79L19.01 63.61L18.53 62.42L18.09 61.21L17.68 59.97L17.31 58.72L16.98 57.45L16.75 56.36L16.54 55.26L16.35 54.17L16.17 53.08L16.01 51.98L15.87 50.88L15.74 49.78L15.63 48.68L15.53 47.58L15.44 46.47L15.37 45.37L15.31 44.26L15.25 43.16L15.21 42.05L15.18 40.94L15.15 39.84L15.14 38.73L15.13 37.62L15.12 36.51L15.13 35.4L15.13 34.28L15.14 33.17L15.16 32.06L15.18 30.95L15.2 29.84L15.22 28.72L15.24 27.61L15.26 26.5L15.28 25.39L15.3 24.28L15.31 23.17L15.33 22.05L15.34 20.94L15.34 19.83L15.34 18.72L15.33 17.62L15.32 16.51L15.3 15.4L15.27 14.29L15.23 13.19L16.1 13L16.98 12.81L17.85 12.62L18.72 12.43L19.59 12.24L20.46 12.04L21.33 11.84L22.2 11.64L23.07 11.44L23.94 11.23L24.81 11.03L25.68 10.82L26.55 10.62L27.42 10.41L28.29 10.2L29.16 10L30.03 9.79L30.9 9.59L31.77 9.38L32.64 9.18L33.51 8.97L34.38 8.77L35.25 8.57L36.12 8.37L36.99 8.17L37.86 7.98L38.73 7.78L39.6 7.59L40.48 7.4L41.35 7.22L42.22 7.03L43.1 6.85L43.97 6.68L44.85 6.5L45.72 6.34L46.6 6.17L47.47 6.01L48.35 5.85L49.23 5.7L50.11 5.55L50.97 5.71L51.83 5.87ZM61.22 50.11L59.97 50.12L58.72 50.12L57.48 50.12L56.23 50.12L54.98 50.12L53.73 50.12L52.49 50.12L51.24 50.12L49.99 50.12L49.99 51.79L49.99 53.46L49.99 55.12L49.99 56.79L49.99 58.46L49.99 60.13L49.99 61.79L49.99 63.46L49.99 65.13L49.99 66.8L49.99 68.46L49.98 70.13L49.98 71.8L49.98 73.47L49.98 75.13L49.98 76.8L49.98 78.47L49.99 80.14L49.99 81.8L49.99 83.47L49.99 85.14L50 86.81L50.01 88.47L51.79 87.31L53.57 86.11L55.32 84.86L57.06 83.57L58.76 82.23L60.43 80.85L62.07 79.43L63.65 77.95L65.19 76.44L66.68 74.87L68.11 73.26L69.47 71.6L70.76 69.9L71.97 68.14L73.11 66.34L74.16 64.49L75.12 62.59L75.98 60.64L76.75 58.65L77.4 56.6L77.95 54.5L78.38 52.36L78.68 50.16L77.43 50.15L76.19 50.14L74.94 50.13L73.69 50.13L72.44 50.12L71.2 50.12L69.95 50.12L68.7 50.12L67.45 50.11L66.21 50.11L64.96 50.11L63.71 50.11L62.47 50.11L61.22 50.11ZM47.43 19.82L46.16 19.86L44.88 19.9L43.61 19.96L42.35 20.03L41.08 20.11L39.81 20.2L38.54 20.3L37.28 20.41L36.01 20.53L34.75 20.66L33.49 20.8L32.23 20.95L30.97 21.12L29.71 21.29L28.45 21.47L27.19 21.67L25.94 21.87L24.68 22.08L23.43 22.31L22.18 22.55L20.93 22.79L20.93 23.98L20.93 25.17L20.92 26.36L20.92 27.54L20.92 28.73L20.91 29.92L20.91 31.1L20.9 32.29L20.9 33.48L20.91 34.67L20.91 35.85L20.92 37.04L20.93 38.23L20.94 39.41L20.96 40.6L20.99 41.79L21.02 42.97L21.06 44.16L21.1 45.35L21.15 46.53L21.21 47.72L21.27 48.9L21.35 50.09L22.59 50.1L23.84 50.1L25.08 50.11L26.32 50.12L27.57 50.12L28.81 50.12L30.06 50.13L31.3 50.13L32.55 50.13L33.79 50.13L35.04 50.13L36.28 50.13L37.53 50.13L38.78 50.13L40.02 50.13L41.27 50.13L42.51 50.13L43.76 50.13L45 50.12L46.25 50.12L47.5 50.12L48.74 50.12L49.99 50.12L49.99 48.8L49.99 47.48L49.99 46.16L49.99 44.84L49.99 43.52L49.99 42.2L49.99 40.88L49.99 39.56L49.99 38.24L49.99 36.93L49.99 35.61L49.99 34.29L49.99 32.97L49.99 31.65L49.99 30.33L49.99 29.01L49.99 27.69L49.99 26.37L49.99 25.05L49.98 23.73L49.98 22.41L49.98 21.09L49.97 19.77L48.7 19.79L47.43 19.82Z"
        id="a2Cr4FETE0"></path>
    <path
        d="M49.96 19.64C50 29.76 49.98 39.87 49.98 49.99C40.43 49.99 30.87 50.03 21.34 49.96C20.73 40.87 20.92 31.77 20.92 22.66C30.49 20.73 40.2 19.74 49.96 19.64Z"
        id="c6yv0yLa"></path>
    <path
        d="M78.67 50.03C76.81 67.08 63.73 79.62 50 88.34C49.94 75.56 50 62.78 49.98 49.99C59.55 49.99 69.1 49.96 78.67 50.03Z"
        id="cBZU94JZT"></path>
  </defs>
  <g>
    <g>
      <g>
        <use xlink:href="#buGDamVp" opacity="1" fill="#707385" fill-opacity="1"></use>
      </g>
      <g>
        <use xlink:href="#a2Cr4FETE0" opacity="1" fill="#E2EDF6" fill-opacity="1"></use>
      </g>
      <g>
        <use xlink:href="#c6yv0yLa" opacity="1" fill="#0166BB" fill-opacity="1"></use>
      </g>
      <g>
        <use xlink:href="#cBZU94JZT" opacity="1" fill="#0166BB" fill-opacity="1"></use>
      </g>
    </g>
  </g>
</svg>