<?xml version="1.0" encoding="UTF-8" standalone="no"?>
<!DOCTYPE svg PUBLIC "-//W3C//DTD SVG 1.1//EN" "http://www.w3.org/Graphics/SVG/1.1/DTD/svg11.dtd">
<svg version="1.1" xmlns="http://www.w3.org/2000/svg" xmlns:xlink="http://www.w3.org/1999/xlink"
     preserveAspectRatio="xMidYMid meet" viewBox="0 0 100 100" width="84" height="84">
  <defs>
    <path
        d="M36.94 12.94C36.94 13.47 36.94 17.65 36.94 18.18C37.8 17.37 39.03 16.94 40.23 17.1C40.23 17.03 40.23 16.52 40.23 16.45C40.23 15.94 40.67 15.54 41.18 15.58C46.18 15.93 51.27 14.34 55.12 11.83C55.48 11.59 55.96 11.65 56.25 11.97C59.54 15.51 59.52 15.37 59.52 15.83C59.52 15.96 59.52 16.97 59.52 17.1C60.84 16.9 62.01 17.31 62.82 18.06C62.82 17.55 62.82 13.45 62.82 12.94C62.82 5.79 57.03 0 49.88 0C42.73 0 36.94 5.79 36.94 12.94Z"
        id="bE5P5nr6A"></path>
    <path
        d="M59.51 23.75C59.51 23.82 59.5 23.9 59.5 23.98C62.02 24.36 63.99 22.54 63.99 20.3C63.99 18.06 62.02 16.25 59.51 16.63C59.51 18.05 59.51 23.03 59.51 23.75Z"
        id="a8IG5NOT6"></path>
    <path
        d="M40.26 16.62C38.06 16.33 35.76 18.01 35.76 20.3C35.76 22.54 37.74 24.37 40.27 23.99C40.26 23.91 40.26 23.83 40.26 23.75C40.26 22.33 40.26 17.33 40.26 16.62Z"
        id="c5LGDemUlA"></path>
    <path
        d="M44.58 31.25C44.58 31.61 44.58 33.37 44.58 36.55L49.99 43.23L55.4 36.55C55.4 33.29 55.4 31.47 55.4 31.11C53.87 32.17 52.01 32.79 50.02 32.79C47.92 32.79 46.09 32.21 44.58 31.25Z"
        id="bUz5zQK4b"></path>
    <path
        d="M55.4 36.1L49.99 42.78L44.58 36.1C36.01 39.42 31.24 41.27 30.29 41.64C30.29 41.64 25 43.82 25 49.85C25 55.31 25 69.11 25 73.52C25 74.49 25.79 75.28 26.76 75.28C27.51 75.28 72.48 75.28 73.24 75.28C74.21 75.28 75 74.49 75 73.52C75 69.11 75 55.31 75 49.85C75 43.82 69.71 41.64 69.71 41.64C67.8 40.9 63.03 39.06 55.4 36.1Z"
        id="ardRCfJmd"></path>
    <path
        d="M29.02 47.84C29.02 44.26 30.88 42.04 32.4 40.82C32.19 40.91 30.5 41.56 30.29 41.64C30.29 41.64 25 43.82 25 49.85C25 55.31 25 69.11 25 73.52C25 74.49 25.79 75.28 26.76 75.28C26.89 75.28 28.4 75.28 30.79 75.28C29.81 75.28 29.02 74.49 29.02 73.52C29.02 69.11 29.02 53.3 29.02 47.84Z"
        id="o4SrDcXT7H"></path>
    <path
        d="M55.12 11.37C51.27 13.89 46.18 15.48 41.18 15.12C40.67 15.08 40.23 15.49 40.23 16C40.23 16.77 40.23 22.96 40.23 23.73C40.23 28.7 44.13 33.24 50.02 33.24C55.26 33.24 59.52 28.98 59.52 23.73C59.52 22.9 59.52 16.21 59.52 15.38C59.52 14.91 59.54 15.05 56.25 11.51C55.96 11.2 55.48 11.14 55.12 11.37Z"
        id="bcjU4a2kr"></path>
    <path
        d="M60.57 38.1L55.4 36.1L49.99 42.78C53.16 45.02 54.91 46.27 55.27 46.52C55.69 46.82 56.29 46.67 56.52 46.21C57.06 45.13 58.41 42.42 60.57 38.1Z"
        id="g2OrTd0KaA"></path>
    <path
        d="M39.43 38.1L44.59 36.1L50 42.78C46.84 45.02 45.08 46.27 44.73 46.52C44.3 46.82 43.7 46.67 43.47 46.21C42.93 45.13 41.58 42.42 39.43 38.1Z"
        id="b1NQLFo26b"></path>
    <path
        d="M52.02 48.19L50 48.19L49.99 48.19L47.97 48.19C45.89 60.51 44.73 67.36 44.5 68.73C44.46 69 44.54 69.26 44.71 69.45C44.71 69.45 44.71 69.45 44.71 69.45L44.71 69.45C47.58 72.61 49.18 74.38 49.5 74.73C49.77 75.02 50.23 75.02 50.49 74.73C50.81 74.38 52.41 72.61 55.29 69.45L55.29 69.45C55.29 69.45 55.29 69.45 55.29 69.45C55.45 69.26 55.53 69 55.49 68.73C55.03 65.99 53.87 59.14 52.02 48.19Z"
        id="e288WcL8xM"></path>
    <path
        d="M50 42.78L50 42.78L49.99 42.78L49.99 42.78L46.16 45.5L47.97 48.23L49.99 48.23L50 48.23L52.02 48.23L53.83 45.5L50 42.78L50 42.78Z"
        id="b9wsGYLXD"></path>
    <path
        d="M61.94 31.14C61.94 31.66 61.94 35.85 61.94 36.37C62.8 35.57 64.03 35.13 65.23 35.29C65.23 35.23 65.23 34.71 65.23 34.65C65.23 34.14 65.67 33.73 66.18 33.77C71.18 34.13 76.27 32.54 80.12 30.02C80.48 29.79 80.96 29.85 81.25 30.16C84.54 33.7 84.52 33.56 84.52 34.02C84.52 34.15 84.52 35.16 84.52 35.29C85.84 35.09 87.01 35.5 87.82 36.25C87.82 35.74 87.82 31.65 87.82 31.14C87.82 23.99 82.03 18.19 74.88 18.19C67.73 18.19 61.94 23.99 61.94 31.14Z"
        id="bwJtZ5ZDQ"></path>
    <path
        d="M84.51 41.94C84.51 42.02 84.5 42.09 84.5 42.17C87.02 42.55 88.99 40.73 88.99 38.5C88.99 36.26 87.02 34.44 84.51 34.82C84.51 36.24 84.51 41.23 84.51 41.94Z"
        id="kNJz7Ixsv"></path>
    <path
        d="M65.26 34.81C63.06 34.52 60.76 36.21 60.76 38.5C60.76 40.73 62.74 42.56 65.27 42.18C65.26 42.1 65.26 42.02 65.26 41.95C65.26 40.52 65.26 35.53 65.26 34.81Z"
        id="a1NOKhW7MK"></path>
    <path
        d="M69.58 49.45C69.58 49.8 69.58 51.57 69.58 54.75L74.99 61.42L80.4 54.75C80.4 51.48 80.4 49.67 80.4 49.3C78.87 50.36 77.01 50.98 75.02 50.98C72.92 50.98 71.09 50.41 69.58 49.45Z"
        id="g1pxjuFDAJ"></path>
    <path
        d="M80.4 54.29L74.99 60.97L69.58 54.29C61.01 57.62 56.24 59.47 55.29 59.83C55.29 59.83 50 62.01 50 68.04C50 73.5 50 87.3 50 91.71C50 92.68 50.79 93.47 51.76 93.47C52.51 93.47 97.48 93.47 98.24 93.47C99.21 93.47 100 92.68 100 91.71C100 87.3 100 73.5 100 68.04C100 62.01 94.71 59.83 94.71 59.83C92.8 59.1 88.03 57.25 80.4 54.29Z"
        id="dz6nu5h8A"></path>
    <path
        d="M53.78 66.27C53.78 62.69 55.71 60.47 57.28 59.25C57.06 59.34 55.31 59.99 55.09 60.07C55.09 60.07 49.6 62.25 49.6 68.28C49.6 73.74 49.6 87.54 49.6 91.95C49.6 92.92 50.42 93.71 51.43 93.71C51.57 93.71 53.13 93.71 55.61 93.71C54.6 93.71 53.78 92.92 53.78 91.95C53.78 87.54 53.78 71.73 53.78 66.27Z"
        id="a30hpOVdNt"></path>
    <path
        d="M80.12 29.57C76.27 32.08 71.18 33.67 66.18 33.31C65.67 33.28 65.23 33.68 65.23 34.19C65.23 34.97 65.23 41.15 65.23 41.93C65.23 46.9 69.13 51.43 75.02 51.43C80.26 51.43 84.52 47.17 84.52 41.93C84.52 41.09 84.52 34.4 84.52 33.57C84.52 33.11 84.54 33.24 81.25 29.71C80.96 29.39 80.48 29.33 80.12 29.57Z"
        id="acHqo4SYo"></path>
    <path
        d="M85.57 56.29L80.4 54.29L74.99 60.97C78.16 63.22 79.91 64.46 80.27 64.71C80.69 65.02 81.29 64.87 81.52 64.4C82.06 63.32 83.41 60.62 85.57 56.29Z"
        id="a7luQju5R"></path>
    <path
        d="M64.43 56.29L69.59 54.29L75 60.97C71.84 63.22 70.08 64.46 69.73 64.71C69.3 65.02 68.7 64.87 68.47 64.4C67.93 63.32 66.58 60.62 64.43 56.29Z"
        id="f2fXyYpCTF"></path>
    <path
        d="M77.02 66.38L75 66.38L74.99 66.38L72.97 66.38C70.89 78.71 69.73 85.55 69.5 86.92C69.46 87.19 69.54 87.46 69.71 87.64C69.71 87.64 69.71 87.64 69.71 87.64L69.71 87.64C72.58 90.81 74.18 92.57 74.5 92.92C74.77 93.21 75.23 93.21 75.49 92.92C75.81 92.57 77.41 90.81 80.29 87.64L80.29 87.64C80.29 87.64 80.29 87.64 80.29 87.64C80.45 87.46 80.53 87.19 80.49 86.92C80.03 84.19 78.87 77.34 77.02 66.38Z"
        id="f1qevQ3uC"></path>
    <path
        d="M75 60.97L75 60.97L74.99 60.97L74.99 60.97L71.16 63.7L72.97 66.43L74.99 66.43L75 66.43L77.02 66.43L78.83 63.7L75 60.97L75 60.97Z"
        id="d4jVh7qnd"></path>
    <path
        d="M60.3 70.77C60.3 69.94 59.62 69.26 58.79 69.26C57.95 69.26 57.28 69.94 57.28 70.77C57.28 73.04 57.28 91.2 57.28 93.47C58.2 93.47 59.21 93.47 60.3 93.47C60.3 88.93 60.3 73.04 60.3 70.77Z"
        id="b1SfdUALF"></path>
    <path
        d="M92.48 70.77C92.48 69.94 91.8 69.26 90.97 69.26C90.14 69.26 89.46 69.94 89.46 70.77C89.46 73.04 89.46 91.2 89.46 93.47C90.54 93.47 91.55 93.47 92.48 93.47C92.48 88.93 92.48 73.04 92.48 70.77Z"
        id="b20E4mmWRo"></path>
    <path
        d="M11.93 31.14C11.93 31.66 11.93 35.85 11.93 36.37C12.8 35.57 14.03 35.13 15.23 35.29C15.23 35.23 15.23 34.71 15.23 34.65C15.23 34.14 15.67 33.73 16.18 33.77C21.18 34.13 26.27 32.54 30.12 30.02C30.48 29.79 30.96 29.85 31.25 30.16C34.54 33.7 34.52 33.56 34.52 34.02C34.52 34.15 34.52 35.16 34.52 35.29C35.84 35.09 37.01 35.5 37.82 36.25C37.82 35.74 37.82 31.65 37.82 31.14C37.82 23.99 32.03 18.19 24.88 18.19C17.73 18.19 11.93 23.99 11.93 31.14Z"
        id="d1AKENrAex"></path>
    <path
        d="M34.51 41.94C34.51 42.02 34.5 42.09 34.5 42.17C37.02 42.55 38.99 40.73 38.99 38.5C38.99 36.26 37.02 34.44 34.51 34.82C34.51 36.24 34.51 41.23 34.51 41.94Z"
        id="jmucOczGr"></path>
    <path
        d="M15.26 34.81C13.06 34.52 10.76 36.21 10.76 38.5C10.76 40.73 12.74 42.56 15.27 42.18C15.26 42.1 15.26 42.02 15.26 41.95C15.26 40.52 15.26 35.53 15.26 34.81Z"
        id="b4KymQTW"></path>
    <path
        d="M19.58 49.45C19.58 49.8 19.58 51.57 19.58 54.75L24.99 61.42L30.4 54.75C30.4 51.48 30.4 49.67 30.4 49.3C28.87 50.36 27.01 50.98 25.02 50.98C22.92 50.98 21.09 50.41 19.58 49.45Z"
        id="e1YH6QRjzc"></path>
    <path
        d="M30.4 54.29L24.99 60.97L19.58 54.29C11.01 57.62 6.24 59.47 5.29 59.83C5.29 59.83 0 62.01 0 68.04C0 73.5 0 87.3 0 91.71C0 92.68 0.79 93.47 1.76 93.47C2.51 93.47 47.48 93.47 48.24 93.47C49.21 93.47 50 92.68 50 91.71C50 87.3 50 73.5 50 68.04C50 62.01 44.71 59.83 44.71 59.83C42.8 59.1 38.03 57.25 30.4 54.29Z"
        id="dWpZnzyCD"></path>
    <path
        d="M4.02 66.03C4.02 62.45 5.88 60.23 7.4 59.02C7.19 59.1 5.5 59.75 5.29 59.83C5.29 59.83 0 62.01 0 68.04C0 73.5 0 87.3 0 91.71C0 92.68 0.79 93.47 1.76 93.47C1.89 93.47 3.4 93.47 5.79 93.47C4.81 93.47 4.02 92.68 4.02 91.71C4.02 87.3 4.02 71.49 4.02 66.03Z"
        id="bND663VN3"></path>
    <path
        d="M30.12 29.57C26.27 32.08 21.18 33.67 16.18 33.31C15.67 33.28 15.23 33.68 15.23 34.19C15.23 34.97 15.23 41.15 15.23 41.93C15.23 46.9 19.13 51.43 25.02 51.43C30.26 51.43 34.52 47.17 34.52 41.93C34.52 41.09 34.52 34.4 34.52 33.57C34.52 33.11 34.54 33.24 31.25 29.71C30.96 29.39 30.48 29.33 30.12 29.57Z"
        id="a3a6iSAKuy"></path>
    <path
        d="M35.57 56.29L30.4 54.29L24.99 60.97C28.16 63.22 29.91 64.46 30.27 64.71C30.69 65.02 31.29 64.87 31.52 64.4C32.06 63.32 33.41 60.62 35.57 56.29Z"
        id="d4shethO7"></path>
    <path
        d="M14.43 56.29L19.59 54.29L25 60.97C21.84 63.22 20.08 64.46 19.73 64.71C19.3 65.02 18.7 64.87 18.47 64.4C17.93 63.32 16.58 60.62 14.43 56.29Z"
        id="bmesSycB9"></path>
    <path
        d="M27.02 66.38L25 66.38L24.99 66.38L22.97 66.38C20.89 78.71 19.73 85.55 19.5 86.92C19.46 87.19 19.54 87.46 19.71 87.64C19.71 87.64 19.71 87.64 19.71 87.64L19.71 87.64C22.58 90.81 24.18 92.57 24.5 92.92C24.77 93.21 25.23 93.21 25.49 92.92C25.81 92.57 27.41 90.81 30.29 87.64L30.29 87.64C30.29 87.64 30.29 87.64 30.29 87.64C30.45 87.46 30.53 87.19 30.49 86.92C30.03 84.19 28.87 77.34 27.02 66.38Z"
        id="d4BNO7FpH5"></path>
    <path
        d="M25 60.97L25 60.97L24.99 60.97L24.99 60.97L21.16 63.7L22.97 66.43L24.99 66.43L25 66.43L27.02 66.43L28.83 63.7L25 60.97L25 60.97Z"
        id="c4vl5ylMhB"></path>
    <path
        d="M10.3 70.77C10.3 69.94 9.62 69.26 8.79 69.26C7.95 69.26 7.28 69.94 7.28 70.77C7.28 73.04 7.28 91.2 7.28 93.47C8.2 93.47 9.21 93.47 10.3 93.47C10.3 88.93 10.3 73.04 10.3 70.77Z"
        id="d43LAAiCs7"></path>
    <path
        d="M42.48 70.77C42.48 69.94 41.8 69.26 40.97 69.26C40.14 69.26 39.46 69.94 39.46 70.77C39.46 73.04 39.46 91.2 39.46 93.47C40.54 93.47 41.55 93.47 42.48 93.47C42.48 88.93 42.48 73.04 42.48 70.77Z"
        id="b2HYQAADG"></path>
  </defs>
  <g>
    <g>
      <g>
        <use xlink:href="#bE5P5nr6A" opacity="1" fill="#707487" fill-opacity="1"></use>
        <g>
          <use xlink:href="#bE5P5nr6A" opacity="1" fill-opacity="0" stroke="#000000" stroke-width="1"
               stroke-opacity="0"></use>
        </g>
      </g>
      <g>
        <use xlink:href="#a8IG5NOT6" opacity="1" fill="#f0a479" fill-opacity="1"></use>
        <g>
          <use xlink:href="#a8IG5NOT6" opacity="1" fill-opacity="0" stroke="#000000" stroke-width="1"
               stroke-opacity="0"></use>
        </g>
      </g>
      <g>
        <use xlink:href="#c5LGDemUlA" opacity="1" fill="#f0a479" fill-opacity="1"></use>
        <g>
          <use xlink:href="#c5LGDemUlA" opacity="1" fill-opacity="0" stroke="#000000" stroke-width="1"
               stroke-opacity="0"></use>
        </g>
      </g>
      <g>
        <use xlink:href="#bUz5zQK4b" opacity="1" fill="#f0a479" fill-opacity="1"></use>
        <g>
          <use xlink:href="#bUz5zQK4b" opacity="1" fill-opacity="0" stroke="#000000" stroke-width="1"
               stroke-opacity="0"></use>
        </g>
      </g>
      <g>
        <use xlink:href="#ardRCfJmd" opacity="1" fill="#dbe9f7" fill-opacity="1"></use>
        <g>
          <use xlink:href="#ardRCfJmd" opacity="1" fill-opacity="0" stroke="#000000" stroke-width="1"
               stroke-opacity="0"></use>
        </g>
      </g>
      <g>
        <use xlink:href="#o4SrDcXT7H" opacity="1" fill="#d8dce5" fill-opacity="1"></use>
        <g>
          <use xlink:href="#o4SrDcXT7H" opacity="1" fill-opacity="0" stroke="#000000" stroke-width="1"
               stroke-opacity="0"></use>
        </g>
      </g>
      <g>
        <use xlink:href="#bcjU4a2kr" opacity="1" fill="#f0a479" fill-opacity="1"></use>
        <g>
          <use xlink:href="#bcjU4a2kr" opacity="1" fill-opacity="0" stroke="#000000" stroke-width="1"
               stroke-opacity="0"></use>
        </g>
      </g>
      <g>
        <use xlink:href="#g2OrTd0KaA" opacity="1" fill="#d0e0ed" fill-opacity="1"></use>
        <g>
          <use xlink:href="#g2OrTd0KaA" opacity="1" fill-opacity="0" stroke="#000000" stroke-width="1"
               stroke-opacity="0"></use>
        </g>
      </g>
      <g>
        <use xlink:href="#b1NQLFo26b" opacity="1" fill="#d0e0ed" fill-opacity="1"></use>
        <g>
          <use xlink:href="#b1NQLFo26b" opacity="1" fill-opacity="0" stroke="#000000" stroke-width="1"
               stroke-opacity="0"></use>
        </g>
      </g>
      <g>
        <use xlink:href="#e288WcL8xM" opacity="1" fill="#ff2e12" fill-opacity="1"></use>
        <g>
          <use xlink:href="#e288WcL8xM" opacity="1" fill-opacity="0" stroke="#000000" stroke-width="1"
               stroke-opacity="0"></use>
        </g>
      </g>
      <g>
        <use xlink:href="#b9wsGYLXD" opacity="1" fill="#ff2e12" fill-opacity="1"></use>
        <g>
          <use xlink:href="#b9wsGYLXD" opacity="1" fill-opacity="0" stroke="#000000" stroke-width="1"
               stroke-opacity="0"></use>
        </g>
      </g>
      <g>
        <use xlink:href="#bwJtZ5ZDQ" opacity="1" fill="#707487" fill-opacity="1"></use>
        <g>
          <use xlink:href="#bwJtZ5ZDQ" opacity="1" fill-opacity="0" stroke="#000000" stroke-width="1"
               stroke-opacity="0"></use>
        </g>
      </g>
      <g>
        <use xlink:href="#kNJz7Ixsv" opacity="1" fill="#f0a479" fill-opacity="1"></use>
        <g>
          <use xlink:href="#kNJz7Ixsv" opacity="1" fill-opacity="0" stroke="#000000" stroke-width="1"
               stroke-opacity="0"></use>
        </g>
      </g>
      <g>
        <use xlink:href="#a1NOKhW7MK" opacity="1" fill="#f0a479" fill-opacity="1"></use>
        <g>
          <use xlink:href="#a1NOKhW7MK" opacity="1" fill-opacity="0" stroke="#000000" stroke-width="1"
               stroke-opacity="0"></use>
        </g>
      </g>
      <g>
        <use xlink:href="#g1pxjuFDAJ" opacity="1" fill="#f0a479" fill-opacity="1"></use>
        <g>
          <use xlink:href="#g1pxjuFDAJ" opacity="1" fill-opacity="0" stroke="#000000" stroke-width="1"
               stroke-opacity="0"></use>
        </g>
      </g>
      <g>
        <use xlink:href="#dz6nu5h8A" opacity="1" fill="#e2edf6" fill-opacity="1"></use>
        <g>
          <use xlink:href="#dz6nu5h8A" opacity="1" fill-opacity="0" stroke="#000000" stroke-width="1"
               stroke-opacity="0"></use>
        </g>
      </g>
      <g>
        <use xlink:href="#a30hpOVdNt" opacity="1" fill="#d0e0ed" fill-opacity="1"></use>
        <g>
          <use xlink:href="#a30hpOVdNt" opacity="1" fill-opacity="0" stroke="#000000" stroke-width="1"
               stroke-opacity="0"></use>
        </g>
      </g>
      <g>
        <use xlink:href="#acHqo4SYo" opacity="1" fill="#f0a479" fill-opacity="1"></use>
        <g>
          <use xlink:href="#acHqo4SYo" opacity="1" fill-opacity="0" stroke="#000000" stroke-width="1"
               stroke-opacity="0"></use>
        </g>
      </g>
      <g>
        <use xlink:href="#a7luQju5R" opacity="1" fill="#d0e0ed" fill-opacity="1"></use>
        <g>
          <use xlink:href="#a7luQju5R" opacity="1" fill-opacity="0" stroke="#000000" stroke-width="1"
               stroke-opacity="0"></use>
        </g>
      </g>
      <g>
        <use xlink:href="#f2fXyYpCTF" opacity="1" fill="#d0e0ed" fill-opacity="1"></use>
        <g>
          <use xlink:href="#f2fXyYpCTF" opacity="1" fill-opacity="0" stroke="#000000" stroke-width="1"
               stroke-opacity="0"></use>
        </g>
      </g>
      <g>
        <use xlink:href="#f1qevQ3uC" opacity="1" fill="#ff2e12" fill-opacity="1"></use>
        <g>
          <use xlink:href="#f1qevQ3uC" opacity="1" fill-opacity="0" stroke="#000000" stroke-width="1"
               stroke-opacity="0"></use>
        </g>
      </g>
      <g>
        <use xlink:href="#d4jVh7qnd" opacity="1" fill="#ff2e12" fill-opacity="1"></use>
        <g>
          <use xlink:href="#d4jVh7qnd" opacity="1" fill-opacity="0" stroke="#000000" stroke-width="1"
               stroke-opacity="0"></use>
        </g>
      </g>
      <g>
        <use xlink:href="#b1SfdUALF" opacity="1" fill="#d0e0ed" fill-opacity="1"></use>
        <g>
          <use xlink:href="#b1SfdUALF" opacity="1" fill-opacity="0" stroke="#000000" stroke-width="1"
               stroke-opacity="0"></use>
        </g>
      </g>
      <g>
        <use xlink:href="#b20E4mmWRo" opacity="1" fill="#d0e0ed" fill-opacity="1"></use>
        <g>
          <use xlink:href="#b20E4mmWRo" opacity="1" fill-opacity="0" stroke="#000000" stroke-width="1"
               stroke-opacity="0"></use>
        </g>
      </g>
      <g>
        <use xlink:href="#d1AKENrAex" opacity="1" fill="#707487" fill-opacity="1"></use>
        <g>
          <use xlink:href="#d1AKENrAex" opacity="1" fill-opacity="0" stroke="#000000" stroke-width="1"
               stroke-opacity="0"></use>
        </g>
      </g>
      <g>
        <use xlink:href="#jmucOczGr" opacity="1" fill="#f0a479" fill-opacity="1"></use>
        <g>
          <use xlink:href="#jmucOczGr" opacity="1" fill-opacity="0" stroke="#000000" stroke-width="1"
               stroke-opacity="0"></use>
        </g>
      </g>
      <g>
        <use xlink:href="#b4KymQTW" opacity="1" fill="#f0a479" fill-opacity="1"></use>
        <g>
          <use xlink:href="#b4KymQTW" opacity="1" fill-opacity="0" stroke="#000000" stroke-width="1"
               stroke-opacity="0"></use>
        </g>
      </g>
      <g>
        <use xlink:href="#e1YH6QRjzc" opacity="1" fill="#f0a479" fill-opacity="1"></use>
        <g>
          <use xlink:href="#e1YH6QRjzc" opacity="1" fill-opacity="0" stroke="#000000" stroke-width="1"
               stroke-opacity="0"></use>
        </g>
      </g>
      <g>
        <use xlink:href="#dWpZnzyCD" opacity="1" fill="#e2edf6" fill-opacity="1"></use>
        <g>
          <use xlink:href="#dWpZnzyCD" opacity="1" fill-opacity="0" stroke="#000000" stroke-width="1"
               stroke-opacity="0"></use>
        </g>
      </g>
      <g>
        <use xlink:href="#bND663VN3" opacity="1" fill="#e2edf6" fill-opacity="1"></use>
        <g>
          <use xlink:href="#bND663VN3" opacity="1" fill-opacity="0" stroke="#000000" stroke-width="1"
               stroke-opacity="0"></use>
        </g>
      </g>
      <g>
        <use xlink:href="#a3a6iSAKuy" opacity="1" fill="#f0a479" fill-opacity="1"></use>
        <g>
          <use xlink:href="#a3a6iSAKuy" opacity="1" fill-opacity="0" stroke="#000000" stroke-width="1"
               stroke-opacity="0"></use>
        </g>
      </g>
      <g>
        <use xlink:href="#d4shethO7" opacity="1" fill="#d0e0ed" fill-opacity="1"></use>
        <g>
          <use xlink:href="#d4shethO7" opacity="1" fill-opacity="0" stroke="#000000" stroke-width="1"
               stroke-opacity="0"></use>
        </g>
      </g>
      <g>
        <use xlink:href="#bmesSycB9" opacity="1" fill="#d0e0ed" fill-opacity="1"></use>
        <g>
          <use xlink:href="#bmesSycB9" opacity="1" fill-opacity="0" stroke="#000000" stroke-width="1"
               stroke-opacity="0"></use>
        </g>
      </g>
      <g>
        <use xlink:href="#d4BNO7FpH5" opacity="1" fill="#ff2e12" fill-opacity="1"></use>
        <g>
          <use xlink:href="#d4BNO7FpH5" opacity="1" fill-opacity="0" stroke="#000000" stroke-width="1"
               stroke-opacity="0"></use>
        </g>
      </g>
      <g>
        <use xlink:href="#c4vl5ylMhB" opacity="1" fill="#ff2e12" fill-opacity="1"></use>
        <g>
          <use xlink:href="#c4vl5ylMhB" opacity="1" fill-opacity="0" stroke="#000000" stroke-width="1"
               stroke-opacity="0"></use>
        </g>
      </g>
      <g>
        <use xlink:href="#d43LAAiCs7" opacity="1" fill="#d0e0ed" fill-opacity="1"></use>
        <g>
          <use xlink:href="#d43LAAiCs7" opacity="1" fill-opacity="0" stroke="#000000" stroke-width="1"
               stroke-opacity="0"></use>
        </g>
      </g>
      <g>
        <use xlink:href="#b2HYQAADG" opacity="1" fill="#d0e0ed" fill-opacity="1"></use>
        <g>
          <use xlink:href="#b2HYQAADG" opacity="1" fill-opacity="0" stroke="#000000" stroke-width="1"
               stroke-opacity="0"></use>
        </g>
      </g>
    </g>
  </g>
</svg>