<?xml version="1.0" encoding="UTF-8" standalone="no"?>
<!DOCTYPE svg PUBLIC "-//W3C//DTD SVG 1.1//EN" "http://www.w3.org/Graphics/SVG/1.1/DTD/svg11.dtd">
<svg version="1.1" xmlns="http://www.w3.org/2000/svg" xmlns:xlink="http://www.w3.org/1999/xlink"
     preserveAspectRatio="xMidYMid meet" viewBox="0 0 100 100" width="75" height="75">
  <defs>
    <path
        d="M4.08 0.01L5.4 0.02L6.69 0.02L7.97 0.03L10.45 0.03L11.67 0.04L15.18 0.04L16.31 0.05L29.92 0.05L30.73 0.04L33.05 0.04L33.78 0.03L35.19 0.03L35.85 0.02L36.51 0.02L37.14 0.01L37.74 0.01L38.32 0L38.9 0L39.39 1.95L39.88 3.89L40.37 5.84L40.85 7.77L41.83 11.67L42.32 13.61L43.29 17.51L43.78 19.44L44.26 21.39L44.75 23.33L45.73 27.23L46.21 29.17L47.19 33.06L47.67 35L48.65 38.9L49.14 40.84L49.62 42.78L50.11 44.73L50.59 46.67L51.57 50.57L52.05 52.52L52.54 54.45L53.03 56.4L53.51 58.35L54 60.29L54.49 62.24L54.97 64.19L55.45 66.12L55.94 68.07L56.42 70.02L56.91 71.96L57.4 73.91L57.88 75.86L58.37 77.81L24.2 77.81L23.59 78.37L22.99 78.92L22.37 79.48L19.35 82.3L18.74 82.86L12.09 89.05L11.48 89.62L9.07 91.87L8.46 92.45L6.65 94.13L6.04 94.71L5.45 95.27L4.85 95.83L4.24 96.41L3.64 96.97L3.04 97.54L2.44 98.1L1.83 98.68L1.24 99.24L0.64 99.81L0.03 100.38L0.03 93.84L0.02 92.09L0.02 80.54L0.01 78.44L0.01 54.8L0 52.17L0 10.23L0.01 6.87L0.01 0L1.39 0L2.74 0.01L4.08 0.01ZM21.75 23.81L21.2 25.4L20.14 28.57L19.61 30.17L18.55 33.33L18.02 34.93L17.48 36.51L16.95 38.11L16.42 39.69L15.9 41.27L15.37 42.87L14.84 44.45L14.31 46.05L13.79 47.63L13.25 49.22L12.19 52.39L11.67 53.99L11.14 55.57L16.99 55.57L17.33 54.53L17.4 54.27L17.48 54L17.82 52.95L17.89 52.69L17.97 52.43L18.06 52.16L18.56 50.6L18.64 50.33L18.72 50.07L19.32 50.06L20.53 50.04L21.12 50.04L22.33 50.02L23.53 50.02L24.13 50.01L26.53 50.01L27.13 50.02L28.33 50.02L28.94 50.03L29.53 50.03L30.74 50.05L31.33 50.06L31.43 50.32L31.59 50.84L31.68 51.11L31.84 51.63L31.94 51.89L32.02 52.16L32.35 53.2L32.44 53.48L32.53 53.74L32.7 54.26L32.78 54.53L33.11 55.57L38.96 55.57L38.43 53.99L37.9 52.39L36.83 49.22L36.3 47.63L35.77 46.05L35.25 44.45L34.72 42.87L34.19 41.27L33.12 38.11L32.59 36.51L32.06 34.93L31.52 33.33L30.46 30.17L29.93 28.57L29.38 26.99L28.85 25.4L28.32 23.81L27.78 22.23L22.28 22.23L21.75 23.81Z"
        id="a4CEZroEcD"></path>
    <path
        d="M4.08 0.01L5.4 0.02L6.69 0.02L7.97 0.03L10.45 0.03L11.67 0.04L15.18 0.04L16.31 0.05L29.92 0.05L30.73 0.04L33.05 0.04L33.78 0.03L35.19 0.03L35.85 0.02L36.51 0.02L37.14 0.01L37.74 0.01L38.32 0L38.9 0L39.39 1.95L39.88 3.89L40.37 5.84L40.85 7.77L41.83 11.67L42.32 13.61L43.29 17.51L43.78 19.44L44.26 21.39L44.75 23.33L45.73 27.23L46.21 29.17L47.19 33.06L47.67 35L48.65 38.9L49.14 40.84L49.62 42.78L50.11 44.73L50.59 46.67L51.57 50.57L52.05 52.52L52.54 54.45L53.03 56.4L53.51 58.35L54 60.29L54.49 62.24L54.97 64.19L55.45 66.12L55.94 68.07L56.42 70.02L56.91 71.96L57.4 73.91L57.88 75.86L58.37 77.81L24.2 77.81L23.59 78.37L22.99 78.92L22.37 79.48L19.35 82.3L18.74 82.86L12.09 89.05L11.48 89.62L9.07 91.87L8.46 92.45L6.65 94.13L6.04 94.71L5.45 95.27L4.85 95.83L4.24 96.41L3.64 96.97L3.04 97.54L2.44 98.1L1.83 98.68L1.24 99.24L0.64 99.81L0.03 100.38L0.03 93.84L0.02 92.09L0.02 80.54L0.01 78.44L0.01 54.8L0 52.17L0 10.23L0.01 6.87L0.01 0L1.39 0L2.74 0.01L4.08 0.01ZM21.75 23.81L21.2 25.4L20.14 28.57L19.61 30.17L18.55 33.33L18.02 34.93L17.48 36.51L16.95 38.11L16.42 39.69L15.9 41.27L15.37 42.87L14.84 44.45L14.31 46.05L13.79 47.63L13.25 49.22L12.19 52.39L11.67 53.99L11.14 55.57L16.99 55.57L17.33 54.53L17.4 54.27L17.48 54L17.82 52.95L17.89 52.69L17.97 52.43L18.06 52.16L18.56 50.6L18.64 50.33L18.72 50.07L19.32 50.06L20.53 50.04L21.12 50.04L22.33 50.02L23.53 50.02L24.13 50.01L26.53 50.01L27.13 50.02L28.33 50.02L28.94 50.03L29.53 50.03L30.74 50.05L31.33 50.06L31.43 50.32L31.59 50.84L31.68 51.11L31.84 51.63L31.94 51.89L32.02 52.16L32.35 53.2L32.44 53.48L32.53 53.74L32.7 54.26L32.78 54.53L33.11 55.57L38.96 55.57L38.43 53.99L37.9 52.39L36.83 49.22L36.3 47.63L35.77 46.05L35.25 44.45L34.72 42.87L34.19 41.27L33.12 38.11L32.59 36.51L32.06 34.93L31.52 33.33L30.46 30.17L29.93 28.57L29.38 26.99L28.85 25.4L28.32 23.81L27.78 22.23L22.28 22.23L21.75 23.81Z"
        id="aqHW5AatR"></path>
    <path
        d="M29.5 44.45C26.53 44.47 23.56 44.47 20.58 44.45C22.11 40.08 23.06 35.45 25.2 31.3C26.74 35.65 28.08 40.06 29.5 44.45Z"
        id="e1C0C7zikA"></path>
    <path
        d="M29.5 44.45C26.53 44.47 23.56 44.47 20.58 44.45C22.11 40.08 23.06 35.45 25.2 31.3C26.74 35.65 28.08 40.06 29.5 44.45Z"
        id="a1L0kUhrzl"></path>
    <path
        d="M98.49 77.81L89.92 77.81L88.58 77.8L63.6 77.8L62.86 77.81L58.95 77.81L58.37 77.82L57.88 75.87L57.4 73.92L56.91 71.98L56.42 70.03L55.94 68.08L55.45 66.14L54.97 64.2L54.49 62.25L54 60.3L53.51 58.36L53.03 56.41L52.54 54.46L52.05 52.53L51.57 50.58L51.08 48.63L50.59 46.69L50.11 44.74L49.62 42.79L49.14 40.86L47.67 35.01L47.19 33.07L46.21 29.18L45.73 27.24L45.24 25.29L44.75 23.35L44.26 21.4L43.78 19.45L43.29 17.52L42.32 13.62L41.83 11.68L40.85 7.78L40.37 5.85L39.88 3.9L39.39 1.96L38.9 0.01L39.79 0.01L40.72 0.02L44.77 0.02L45.87 0.03L78.06 0.03L79.89 0.02L87.55 0.02L89.54 0.01L95.72 0.01L97.84 0L100 0L100 77.82L98.49 77.81ZM72.28 19.61L72.27 19.76L72.27 21.72L72.26 21.86L72.26 24.12L72.25 24.27L72.25 25.02L58.37 25.02L58.37 30.57L58.97 30.57L59.56 30.58L67.31 30.58L67.91 30.57L80.41 30.57L80.24 30.82L80.09 31.06L79.92 31.3L79.76 31.54L79.26 32.26L79.11 32.49L78.61 33.21L78.43 33.44L78.26 33.68L78.1 33.91L77.93 34.15L77.75 34.38L77.59 34.6L77.41 34.84L77.24 35.07L75.47 37.37L75.28 37.58L75.11 37.81L74.92 38.04L74.74 38.26L74.55 38.49L74.38 38.71L74.19 38.94L74 39.16L73.88 39.01L73.5 38.54L73.38 38.4L73.13 38.08L73 37.94L72.88 37.78L72.76 37.63L72.51 37.31L72.39 37.17L72.01 36.7L71.9 36.55L71.4 35.93L71.28 35.77L71.16 35.63L70.78 35.16L70.67 35L70.42 34.69L70.3 34.54L69.93 34.07L69.81 33.92L69.56 33.6L69.45 33.45L68.64 33.89L68.51 33.96L67.7 34.4L67.57 34.47L67.44 34.54L67.3 34.6L66.76 34.9L66.64 34.97L66.36 35.12L66.23 35.18L65.69 35.47L65.56 35.53L64.88 35.9L64.75 35.96L64.49 36.11L65.8 37.89L65.96 38.08L66.25 38.48L66.41 38.68L66.55 38.87L66.7 39.06L66.85 39.26L67 39.46L67.16 39.65L67.3 39.85L67.46 40.04L67.6 40.23L67.76 40.43L67.92 40.62L68.07 40.81L68.22 41L68.38 41.2L68.69 41.58L68.84 41.77L69.16 42.15L69.31 42.35L70.09 43.28L69.88 43.5L69.65 43.72L69.43 43.93L69.2 44.15L68.97 44.36L68.75 44.58L67.38 45.83L67.14 46.04L66.91 46.24L66.68 46.44L66.44 46.65L66.21 46.85L65.97 47.06L65.73 47.25L65.5 47.45L64.06 48.64L63.81 48.83L63.57 49.03L63.33 49.21L63.08 49.4L62.84 49.59L61.59 50.53L61.34 50.7L61.53 50.97L61.62 51.1L61.81 51.37L61.89 51.5L62.08 51.77L62.18 51.89L62.36 52.16L62.45 52.29L62.54 52.42L62.63 52.55L62.82 52.82L62.91 52.94L63.19 53.35L63.27 53.48L63.46 53.75L63.55 53.87L63.64 54.01L63.73 54.14L63.82 54.27L64.01 54.54L64.09 54.67L64.19 54.8L64.37 55.07L64.46 55.19L64.74 55.6L65.01 55.39L65.29 55.19L65.56 54.99L65.84 54.79L66.11 54.58L66.4 54.37L67.75 53.33L68.02 53.11L68.28 52.9L68.55 52.68L68.81 52.46L69.08 52.26L69.34 52.04L69.62 51.82L69.88 51.59L70.4 51.15L70.66 50.92L70.92 50.7L71.18 50.47L71.44 50.26L71.69 50.03L71.95 49.8L72.2 49.57L72.46 49.34L72.71 49.1L72.96 48.87L73.22 48.64L73.47 48.4L73.72 48.17L73.96 47.93L74.46 47.45L74.76 47.7L75.97 48.66L76.28 48.89L76.59 49.13L76.9 49.36L77.2 49.59L78.14 50.28L78.45 50.49L78.76 50.72L79.08 50.94L79.39 51.17L79.7 51.39L80.03 51.61L80.34 51.83L80.66 52.05L80.97 52.27L81.3 52.49L81.62 52.69L81.93 52.91L82.25 53.13L82.9 53.55L83.22 53.77L83.87 54.18L84.19 54.4L86.13 55.65L86.28 55.38L86.35 55.26L86.5 54.99L86.57 54.86L86.71 54.59L86.78 54.45L86.85 54.33L87 54.06L87.07 53.93L87.21 53.66L87.29 53.54L87.43 53.27L87.51 53.14L87.65 52.87L87.73 52.75L87.8 52.61L87.87 52.49L88.02 52.21L88.09 52.09L88.16 51.95L88.24 51.83L88.31 51.69L88.39 51.56L88.47 51.43L88.54 51.3L88.61 51.17L88.68 51.04L88.76 50.91L88.83 50.78L88.53 50.59L88.23 50.41L87.92 50.22L87.63 50.04L87.33 49.85L87.04 49.65L86.74 49.46L86.44 49.28L86.15 49.08L85.85 48.89L84.1 47.7L83.82 47.5L83.53 47.31L83.23 47.1L82.95 46.89L82.66 46.69L82.38 46.48L82.09 46.27L81.24 45.65L80.96 45.43L80.4 45.01L79.84 44.58L79.57 44.36L79 43.92L78.46 43.48L78.18 43.26L78.45 42.94L78.71 42.62L78.96 42.29L79.48 41.65L79.98 41L80.24 40.67L80.48 40.34L80.73 40.01L80.98 39.68L81.46 39.01L81.71 38.68L81.95 38.33L82.18 38L82.42 37.66L82.65 37.32L82.89 36.98L83.81 35.6L84.25 34.92L84.47 34.56L84.69 34.21L84.91 33.86L85.12 33.51L85.34 33.16L85.55 32.8L85.77 32.45L86.18 31.74L86.39 31.37L86.59 31.02L86.8 30.66L91.72 30.53L91.72 25.02L77.84 25.02L77.84 24.27L77.83 24.11L77.83 21.86L77.82 21.7L77.82 19.76L77.81 19.61L77.81 19.46L72.28 19.46L72.28 19.61Z"
        id="bLRFeg5FM"></path>
    <path
        d="M98.49 77.81L89.92 77.81L88.58 77.8L63.6 77.8L62.86 77.81L58.95 77.81L58.37 77.82L57.88 75.87L57.4 73.92L56.91 71.98L56.42 70.03L55.94 68.08L55.45 66.14L54.97 64.2L54.49 62.25L54 60.3L53.51 58.36L53.03 56.41L52.54 54.46L52.05 52.53L51.57 50.58L51.08 48.63L50.59 46.69L50.11 44.74L49.62 42.79L49.14 40.86L47.67 35.01L47.19 33.07L46.21 29.18L45.73 27.24L45.24 25.29L44.75 23.35L44.26 21.4L43.78 19.45L43.29 17.52L42.32 13.62L41.83 11.68L40.85 7.78L40.37 5.85L39.88 3.9L39.39 1.96L38.9 0.01L39.79 0.01L40.72 0.02L44.77 0.02L45.87 0.03L78.06 0.03L79.89 0.02L87.55 0.02L89.54 0.01L95.72 0.01L97.84 0L100 0L100 77.82L98.49 77.81ZM72.28 19.61L72.27 19.76L72.27 21.72L72.26 21.86L72.26 24.12L72.25 24.27L72.25 25.02L58.37 25.02L58.37 30.57L58.97 30.57L59.56 30.58L67.31 30.58L67.91 30.57L80.41 30.57L80.24 30.82L80.09 31.06L79.92 31.3L79.76 31.54L79.26 32.26L79.11 32.49L78.61 33.21L78.43 33.44L78.26 33.68L78.1 33.91L77.93 34.15L77.75 34.38L77.59 34.6L77.41 34.84L77.24 35.07L75.47 37.37L75.28 37.58L75.11 37.81L74.92 38.04L74.74 38.26L74.55 38.49L74.38 38.71L74.19 38.94L74 39.16L73.88 39.01L73.5 38.54L73.38 38.4L73.13 38.08L73 37.94L72.88 37.78L72.76 37.63L72.51 37.31L72.39 37.17L72.01 36.7L71.9 36.55L71.4 35.93L71.28 35.77L71.16 35.63L70.78 35.16L70.67 35L70.42 34.69L70.3 34.54L69.93 34.07L69.81 33.92L69.56 33.6L69.45 33.45L68.64 33.89L68.51 33.96L67.7 34.4L67.57 34.47L67.44 34.54L67.3 34.6L66.76 34.9L66.64 34.97L66.36 35.12L66.23 35.18L65.69 35.47L65.56 35.53L64.88 35.9L64.75 35.96L64.49 36.11L65.8 37.89L65.96 38.08L66.25 38.48L66.41 38.68L66.55 38.87L66.7 39.06L66.85 39.26L67 39.46L67.16 39.65L67.3 39.85L67.46 40.04L67.6 40.23L67.76 40.43L67.92 40.62L68.07 40.81L68.22 41L68.38 41.2L68.69 41.58L68.84 41.77L69.16 42.15L69.31 42.35L70.09 43.28L69.88 43.5L69.65 43.72L69.43 43.93L69.2 44.15L68.97 44.36L68.75 44.58L67.38 45.83L67.14 46.04L66.91 46.24L66.68 46.44L66.44 46.65L66.21 46.85L65.97 47.06L65.73 47.25L65.5 47.45L64.06 48.64L63.81 48.83L63.57 49.03L63.33 49.21L63.08 49.4L62.84 49.59L61.59 50.53L61.34 50.7L61.53 50.97L61.62 51.1L61.81 51.37L61.89 51.5L62.08 51.77L62.18 51.89L62.36 52.16L62.45 52.29L62.54 52.42L62.63 52.55L62.82 52.82L62.91 52.94L63.19 53.35L63.27 53.48L63.46 53.75L63.55 53.87L63.64 54.01L63.73 54.14L63.82 54.27L64.01 54.54L64.09 54.67L64.19 54.8L64.37 55.07L64.46 55.19L64.74 55.6L65.01 55.39L65.29 55.19L65.56 54.99L65.84 54.79L66.11 54.58L66.4 54.37L67.75 53.33L68.02 53.11L68.28 52.9L68.55 52.68L68.81 52.46L69.08 52.26L69.34 52.04L69.62 51.82L69.88 51.59L70.4 51.15L70.66 50.92L70.92 50.7L71.18 50.47L71.44 50.26L71.69 50.03L71.95 49.8L72.2 49.57L72.46 49.34L72.71 49.1L72.96 48.87L73.22 48.64L73.47 48.4L73.72 48.17L73.96 47.93L74.46 47.45L74.76 47.7L75.97 48.66L76.28 48.89L76.59 49.13L76.9 49.36L77.2 49.59L78.14 50.28L78.45 50.49L78.76 50.72L79.08 50.94L79.39 51.17L79.7 51.39L80.03 51.61L80.34 51.83L80.66 52.05L80.97 52.27L81.3 52.49L81.62 52.69L81.93 52.91L82.25 53.13L82.9 53.55L83.22 53.77L83.87 54.18L84.19 54.4L86.13 55.65L86.28 55.38L86.35 55.26L86.5 54.99L86.57 54.86L86.71 54.59L86.78 54.45L86.85 54.33L87 54.06L87.07 53.93L87.21 53.66L87.29 53.54L87.43 53.27L87.51 53.14L87.65 52.87L87.73 52.75L87.8 52.61L87.87 52.49L88.02 52.21L88.09 52.09L88.16 51.95L88.24 51.83L88.31 51.69L88.39 51.56L88.47 51.43L88.54 51.3L88.61 51.17L88.68 51.04L88.76 50.91L88.83 50.78L88.53 50.59L88.23 50.41L87.92 50.22L87.63 50.04L87.33 49.85L87.04 49.65L86.74 49.46L86.44 49.28L86.15 49.08L85.85 48.89L84.1 47.7L83.82 47.5L83.53 47.31L83.23 47.1L82.95 46.89L82.66 46.69L82.38 46.48L82.09 46.27L81.24 45.65L80.96 45.43L80.4 45.01L79.84 44.58L79.57 44.36L79 43.92L78.46 43.48L78.18 43.26L78.45 42.94L78.71 42.62L78.96 42.29L79.48 41.65L79.98 41L80.24 40.67L80.48 40.34L80.73 40.01L80.98 39.68L81.46 39.01L81.71 38.68L81.95 38.33L82.18 38L82.42 37.66L82.65 37.32L82.89 36.98L83.81 35.6L84.25 34.92L84.47 34.56L84.69 34.21L84.91 33.86L85.12 33.51L85.34 33.16L85.55 32.8L85.77 32.45L86.18 31.74L86.39 31.37L86.59 31.02L86.8 30.66L91.72 30.53L91.72 25.02L77.84 25.02L77.84 24.27L77.83 24.11L77.83 21.86L77.82 21.7L77.82 19.76L77.81 19.61L77.81 19.46L72.28 19.46L72.28 19.61Z"
        id="a5SFebaSRh"></path>
    <path
        d="M77.84 25.02C78.76 25.02 83.39 25.02 91.72 25.02C91.72 28.33 91.72 30.16 91.72 30.53C90.08 30.57 88.43 30.61 86.8 30.66C84.3 35.1 81.43 39.32 78.18 43.26C81.56 46.01 85.12 48.52 88.83 50.78C87.92 52.39 87.02 54.02 86.13 55.65C82.13 53.08 78.16 50.47 74.46 47.45C71.42 50.4 68.17 53.12 64.74 55.6C63.61 53.95 62.49 52.33 61.34 50.7C64.45 48.45 67.34 45.95 70.09 43.28C68.14 40.97 66.28 38.56 64.49 36.11C66.14 35.23 67.79 34.35 69.45 33.45C70.95 35.37 72.46 37.27 74 39.16C76.29 36.41 78.43 33.56 80.41 30.57C73.07 30.56 65.72 30.59 58.37 30.57C58.37 30.2 58.37 28.35 58.37 25.02C66.7 25.02 71.33 25.02 72.25 25.02C72.26 23.17 72.26 21.31 72.28 19.46C72.65 19.46 74.49 19.46 77.81 19.46C77.82 21.92 77.83 23.77 77.84 25.02Z"
        id="f2aLJTGgAS"></path>
    <path
        d="M77.84 25.02C78.76 25.02 83.39 25.02 91.72 25.02C91.72 28.33 91.72 30.16 91.72 30.53C90.08 30.57 88.43 30.61 86.8 30.66C84.3 35.1 81.43 39.32 78.18 43.26C81.56 46.01 85.12 48.52 88.83 50.78C87.92 52.39 87.02 54.02 86.13 55.65C82.13 53.08 78.16 50.47 74.46 47.45C71.42 50.4 68.17 53.12 64.74 55.6C63.61 53.95 62.49 52.33 61.34 50.7C64.45 48.45 67.34 45.95 70.09 43.28C68.14 40.97 66.28 38.56 64.49 36.11C66.14 35.23 67.79 34.35 69.45 33.45C70.95 35.37 72.46 37.27 74 39.16C76.29 36.41 78.43 33.56 80.41 30.57C73.07 30.56 65.72 30.59 58.37 30.57C58.37 30.2 58.37 28.35 58.37 25.02C66.7 25.02 71.33 25.02 72.25 25.02C72.26 23.17 72.26 21.31 72.28 19.46C72.65 19.46 74.49 19.46 77.81 19.46C77.82 21.92 77.83 23.77 77.84 25.02Z"
        id="fj1gPtBtA"></path>
    <path
        d="M29.38 27L29.93 28.58L30.46 30.18L31.52 33.34L32.06 34.94L32.59 36.52L33.12 38.12L34.19 41.28L34.72 42.88L35.25 44.46L35.77 46.06L36.3 47.64L36.83 49.23L37.37 50.82L37.9 52.41L38.96 55.58L33.11 55.58L32.78 54.54L32.7 54.27L32.53 53.75L32.44 53.49L32.35 53.22L32.27 52.95L32.02 52.17L31.94 51.9L31.84 51.64L31.59 50.86L31.51 50.59L31.43 50.33L31.33 50.07L30.74 50.06L30.13 50.05L29.53 50.05L28.94 50.04L28.33 50.03L27.13 50.03L26.53 50.02L24.13 50.02L23.53 50.03L22.33 50.03L21.12 50.05L20.53 50.05L19.32 50.07L18.72 50.08L18.64 50.34L18.56 50.61L18.06 52.17L17.97 52.44L17.89 52.7L17.82 52.96L17.48 54.01L17.4 54.28L17.33 54.54L16.99 55.58L11.14 55.58L11.67 54L12.19 52.41L12.72 50.82L13.25 49.23L13.79 47.64L14.31 46.06L14.84 44.46L15.37 42.88L15.9 41.28L16.42 39.7L16.95 38.12L17.48 36.52L18.02 34.94L18.55 33.34L19.61 30.18L20.14 28.58L21.2 25.41L21.75 23.83L22.28 22.24L27.78 22.24L28.32 23.83L29.38 27ZM23.8 34.48L23.05 36.72L22.3 39.07L21.59 41.3L21.01 43.18L20.58 44.45L21.86 44.46L28.23 44.46L29.5 44.45L28.89 42.58L28.27 40.69L27 36.92L25.71 33.17L25.04 31.3L24.49 32.59L23.8 34.48Z"
        id="go7WZS9Ro"></path>
    <path
        d="M29.38 27L29.93 28.58L30.46 30.18L31.52 33.34L32.06 34.94L32.59 36.52L33.12 38.12L34.19 41.28L34.72 42.88L35.25 44.46L35.77 46.06L36.3 47.64L36.83 49.23L37.37 50.82L37.9 52.41L38.96 55.58L33.11 55.58L32.78 54.54L32.7 54.27L32.53 53.75L32.44 53.49L32.35 53.22L32.27 52.95L32.02 52.17L31.94 51.9L31.84 51.64L31.59 50.86L31.51 50.59L31.43 50.33L31.33 50.07L30.74 50.06L30.13 50.05L29.53 50.05L28.94 50.04L28.33 50.03L27.13 50.03L26.53 50.02L24.13 50.02L23.53 50.03L22.33 50.03L21.12 50.05L20.53 50.05L19.32 50.07L18.72 50.08L18.64 50.34L18.56 50.61L18.06 52.17L17.97 52.44L17.89 52.7L17.82 52.96L17.48 54.01L17.4 54.28L17.33 54.54L16.99 55.58L11.14 55.58L11.67 54L12.19 52.41L12.72 50.82L13.25 49.23L13.79 47.64L14.31 46.06L14.84 44.46L15.37 42.88L15.9 41.28L16.42 39.7L16.95 38.12L17.48 36.52L18.02 34.94L18.55 33.34L19.61 30.18L20.14 28.58L21.2 25.41L21.75 23.83L22.28 22.24L27.78 22.24L28.32 23.83L29.38 27ZM23.8 34.48L23.05 36.72L22.3 39.07L21.59 41.3L21.01 43.18L20.58 44.45L21.86 44.46L28.23 44.46L29.5 44.45L28.89 42.58L28.27 40.69L27 36.92L25.71 33.17L25.04 31.3L24.49 32.59L23.8 34.48Z"
        id="b1KNjbICUD"></path>
  </defs>
  <g>
    <g>
      <g>
        <use xlink:href="#a4CEZroEcD" opacity="1" fill="#00ACEB" fill-opacity="1"></use>
        <g>
          <use xlink:href="#a4CEZroEcD" opacity="1" fill-opacity="0" stroke="#000000" stroke-width="1"
               stroke-opacity="0"></use>
        </g>
      </g>
      <g>
        <use xlink:href="#aqHW5AatR" opacity="1" fill="#000000" fill-opacity="0"></use>
        <g>
          <use xlink:href="#aqHW5AatR" opacity="1" fill-opacity="0" stroke="#000000" stroke-width="1"
               stroke-opacity="0"></use>
        </g>
      </g>
      <g>
        <use xlink:href="#e1C0C7zikA" opacity="1" fill="#00ACEB" fill-opacity="1"></use>
        <g>
          <use xlink:href="#e1C0C7zikA" opacity="1" fill-opacity="0" stroke="#000000" stroke-width="1"
               stroke-opacity="0"></use>
        </g>
      </g>
      <g>
        <use xlink:href="#a1L0kUhrzl" opacity="1" fill="#000000" fill-opacity="0"></use>
        <g>
          <use xlink:href="#a1L0kUhrzl" opacity="1" fill-opacity="0" stroke="#000000" stroke-width="1"
               stroke-opacity="0"></use>
        </g>
      </g>
      <g>
        <use xlink:href="#bLRFeg5FM" opacity="1" fill="#E2EDF6" fill-opacity="1"></use>
        <g>
          <use xlink:href="#bLRFeg5FM" opacity="1" fill-opacity="0" stroke="#000000" stroke-width="1"
               stroke-opacity="0"></use>
        </g>
      </g>
      <g>
        <use xlink:href="#a5SFebaSRh" opacity="1" fill="#000000" fill-opacity="0"></use>
        <g>
          <use xlink:href="#a5SFebaSRh" opacity="1" fill-opacity="0" stroke="#000000" stroke-width="1"
               stroke-opacity="0"></use>
        </g>
      </g>
      <g>
        <use xlink:href="#f2aLJTGgAS" opacity="1" fill="#707385" fill-opacity="1"></use>
        <g>
          <use xlink:href="#f2aLJTGgAS" opacity="1" fill-opacity="0" stroke="#000000" stroke-width="1"
               stroke-opacity="0"></use>
        </g>
      </g>
      <g>
        <use xlink:href="#fj1gPtBtA" opacity="1" fill="#000000" fill-opacity="0"></use>
        <g>
          <use xlink:href="#fj1gPtBtA" opacity="1" fill-opacity="0" stroke="#000000" stroke-width="1"
               stroke-opacity="0"></use>
        </g>
      </g>
      <g>
        <use xlink:href="#go7WZS9Ro" opacity="1" fill="#ffffff" fill-opacity="1"></use>
        <g>
          <use xlink:href="#go7WZS9Ro" opacity="1" fill-opacity="0" stroke="#000000" stroke-width="1"
               stroke-opacity="0"></use>
        </g>
      </g>
      <g>
        <use xlink:href="#b1KNjbICUD" opacity="1" fill="#000000" fill-opacity="0"></use>
        <g>
          <use xlink:href="#b1KNjbICUD" opacity="1" fill-opacity="0" stroke="#000000" stroke-width="1"
               stroke-opacity="0"></use>
        </g>
      </g>
    </g>
  </g>
</svg>